<svg width="1920" height="1314" viewBox="0 0 1920 1314" fill="none" xmlns="http://www.w3.org/2000/svg">
<path opacity="0.1" d="M-1184.53 0.622559L-1178.44 1.44187C-1162.37 4.26993 -1148.29 6.6055 -1132.25 9.42988C-1113.26 12.9893 -1096.25 16.0563 -1074.39 20.5573C-1059.51 23.7109 -1047.59 26.1301 -1032.73 29.2844C-1016.88 32.6109 -1002.07 35.9608 -985.289 39.6901C-983.324 40.176 -982.339 40.4201 -980.383 40.909C-869.107 65.8332 -746.162 97.3631 -591.99 140.437C-582.318 143.228 -573.606 145.707 -564.892 148.115C-561.03 149.237 -557.167 150.359 -553.305 151.481C-551.368 152.04 -550.36 152.221 -548.466 152.787C-455.677 179.223 -363.114 206.75 -260.182 238.521C-256.335 239.707 -252.483 240.955 -248.643 242.157C-145.781 274.075 -45.9075 306.211 56.7828 340.528C63.5029 342.733 71.1791 345.327 77.8967 347.537C81.7353 348.798 84.6157 349.813 88.4532 351.146C159.49 374.99 227.652 398.615 294.895 422.443C319.88 431.369 343.898 440.053 368.918 449.059C369.884 449.44 371.8 450.154 372.764 450.54C401.62 460.951 428.569 470.88 455.544 481.102C457.473 481.803 458.43 482.12 460.357 482.826C464.21 484.301 468.066 485.782 471.924 487.267C473.85 487.973 474.815 488.287 476.742 488.993C572.246 525.199 646.774 555.208 706.134 581.577C748.006 599.551 792.804 618.114 849.217 640.023C873.559 649.46 896.926 658.434 924.153 668.528C929.992 670.716 934.865 672.589 940.703 674.777C942.649 675.485 943.614 675.799 945.56 676.506C1068.33 722.259 1199.54 767.705 1338.3 813.907L1348.96 817.382C1496.47 866.28 1641.44 911.886 1779.98 953.581C1783.84 954.77 1786.7 955.568 1790.54 956.684C1848.21 974.068 1900.91 989.44 1955.4 1005.2C1957.31 1005.76 1958.24 1005.92 1960.15 1006.47C1969.72 1009.25 1978.31 1011.72 1986.89 1014.12C1990.71 1015.22 1994.54 1016.33 1998.37 1017.44C2206.79 1076.51 2360.47 1115.34 2478.48 1139.57C2483.02 1140.47 2487.6 1141.45 2493.1 1142.67C2500.38 1144.14 2506.72 1145.37 2514 1146.85C2530.23 1149.82 2547.49 1153.34 2560.78 1155.29M-1107.57 32.8529L-1101.63 33.4819C-1085.96 35.8875 -1072.24 37.8507 -1056.6 40.2374C-1038.09 43.322 -1021.52 45.9411 -1000.23 49.9344C-985.745 52.7519 -974.135 54.8997 -959.66 57.7201C-944.223 60.6793 -929.823 63.7409 -913.481 67.0869L-908.705 68.2183C-800.44 90.7703 -680.922 120.142 -531.131 160.857C-521.736 163.509 -513.273 165.86 -504.809 168.127C-501.054 169.206 -497.297 170.269 -493.539 171.314C-491.661 171.844 -490.709 171.99 -488.837 172.518C-398.722 197.599 -308.849 223.889 -208.905 254.44C-205.169 255.583 -201.445 256.781 -197.707 257.948C-97.8457 288.659 -0.908409 319.757 98.7668 353.162C105.293 355.302 112.743 357.831 119.267 359.977C122.998 361.201 125.788 362.199 129.513 363.506C198.469 386.734 264.646 409.859 329.931 433.257C354.194 442.037 377.535 450.592 401.817 459.458C402.756 459.828 404.594 460.553 405.555 460.932C433.577 471.183 459.754 480.988 485.957 491.129C487.832 491.82 488.778 492.133 490.633 492.822L501.863 497.251C503.735 497.947 504.681 498.26 506.544 498.946C599.337 534.865 671.8 564.879 729.56 591.567C770.312 609.695 813.9 628.334 868.778 650.162C892.453 659.558 915.193 668.466 941.667 678.478C947.35 680.647 952.09 682.51 957.77 684.684C959.661 685.382 960.593 685.683 962.489 686.383C1081.92 731.723 1209.5 776.278 1344.38 821.303L1354.74 824.678C1498.12 872.297 1638.92 916.291 1773.44 956.221C1777.18 957.361 1779.96 958.114 1783.68 959.176C1839.65 975.836 1890.77 990.433 1943.64 1005.41C1945.49 1005.94 1946.38 1006.08 1948.23 1006.62C1957.52 1009.27 1965.84 1011.61 1974.15 1013.87L1985.28 1017.05C2187.31 1072.87 2335.94 1108.6 2449.66 1129.62C2454.04 1130.39 2458.45 1131.25 2463.76 1132.33C2470.77 1133.6 2476.88 1134.65 2483.88 1135.92C2499.49 1138.4 2516.12 1141.41 2528.86 1142.92M-1032.87 65.1765L-1027.07 65.5976C-1011.79 67.5503 -998.405 69.0805 -983.149 71.0295C-965.108 73.5958 -948.954 75.7488 -928.211 79.2062C-914.102 81.6716 -902.79 83.5155 -888.7 85.9794C-873.668 88.5561 -859.649 91.2933 -843.74 94.258C-841.885 94.6704 -840.957 94.8803 -839.094 95.2898C-733.734 115.343 -617.56 142.409 -472.001 180.745C-462.878 183.26 -454.661 185.477 -446.434 187.603C-442.785 188.609 -439.136 189.616 -435.488 190.626C-433.663 191.129 -432.735 191.242 -430.911 191.745C-343.396 215.427 -256.141 240.481 -159.11 269.805C-155.482 270.899 -151.85 272.066 -148.234 273.185C-51.3058 302.686 42.786 332.764 139.546 365.296C145.879 367.372 153.111 369.845 159.465 371.948C163.079 373.138 165.793 374.118 169.41 375.4C236.346 398.036 300.594 420.701 363.992 443.711C387.573 452.372 410.219 460.81 433.795 469.553C434.717 469.917 436.522 470.629 437.444 470.992C464.66 481.123 490.09 490.821 515.555 500.905C517.36 501.617 518.28 501.889 520.097 502.575L531.019 506.973C532.824 507.685 533.743 507.957 535.56 508.643C625.741 544.375 696.186 574.489 752.443 601.637C792.112 619.994 834.547 638.786 887.941 660.6C910.979 669.992 933.099 678.901 958.863 688.815C964.378 690.989 969.01 692.816 974.531 694.993C976.367 695.681 977.282 695.976 979.124 696.666C1095.33 741.723 1219.41 785.467 1350.54 829.368L1360.61 832.641C1499.99 879.042 1636.8 921.477 1767.36 959.582C1770.99 960.683 1773.69 961.384 1777.29 962.392C1831.63 978.285 1881.19 992.125 1932.48 1006.29C1934.28 1006.79 1935.14 1006.9 1936.94 1007.4C1945.94 1009.91 1954.02 1012.12 1962.05 1014.22L1972.83 1017.23C2168.61 1069.71 2312.27 1102.2 2421.76 1119.78C2425.97 1120.42 2430.21 1121.15 2435.33 1122.08C2442.08 1123.13 2447.94 1123.98 2454.68 1125.04C2469.66 1126.99 2485.65 1129.51 2497.85 1130.47M-960.406 97.7048L-954.736 97.9073C-939.83 99.3696 -926.763 100.456 -911.887 101.912C-894.3 103.932 -878.551 105.577 -858.316 108.466C-844.57 110.554 -833.554 112.077 -819.826 114.164C-805.18 116.329 -791.524 118.707 -776.043 121.28C-774.242 121.653 -773.334 121.837 -771.523 122.214C-668.976 139.593 -555.992 164.289 -414.591 200.13C-405.729 202.5 -397.745 204.584 -389.76 206.566C-386.214 207.511 -382.669 208.46 -379.126 209.412C-377.371 209.881 -376.455 209.965 -374.684 210.441C-289.66 232.702 -204.966 256.481 -110.769 284.567C-107.253 285.617 -103.74 286.774 -100.218 287.826C-6.13631 316.113 85.1948 345.187 179.11 376.88C185.258 378.901 192.283 381.311 198.425 383.33C201.94 384.481 204.571 385.453 208.082 386.711C273.057 408.784 335.433 431.03 396.988 453.716C419.871 462.252 441.889 470.61 464.788 479.249C465.677 479.642 467.449 480.298 468.32 480.714C494.761 490.726 519.462 500.365 544.204 510.417C545.965 511.111 546.849 511.387 548.615 512.072C552.153 513.535 555.691 515.001 559.228 516.468C560.989 517.162 561.873 517.438 563.641 518.117C651.296 553.767 719.841 584.125 774.621 611.846C813.239 630.516 854.584 649.552 906.576 671.433C928.997 680.876 950.536 689.773 975.606 699.648C980.994 701.772 985.478 703.661 990.859 705.813C992.636 706.514 993.536 706.784 995.343 707.479C1108.47 752.379 1229.16 795.403 1356.67 838.23L1366.45 841.414C1501.99 886.638 1634.9 927.506 1761.62 963.788C1765.15 964.835 1767.76 965.493 1771.26 966.44C1824 981.58 1872.07 994.631 1921.79 1007.95C1923.54 1008.42 1924.36 1008.5 1926.11 1008.97C1934.83 1011.33 1942.66 1013.41 1950.46 1015.38C1953.97 1016.33 1957.46 1017.28 1960.93 1018.22C2150.59 1067.24 2289.36 1096.29 2394.62 1110.21C2398.66 1110.69 2402.74 1111.29 2407.66 1112.06C2414.14 1112.88 2419.77 1113.52 2426.24 1114.34C2440.61 1115.72 2455.95 1117.69 2467.61 1118.09M-890.084 130.574L-884.551 130.536C-869.998 131.462 -857.245 132.069 -842.734 133.002C-825.576 134.426 -810.214 135.521 -790.508 137.787C-777.107 139.462 -766.388 140.681 -753.009 142.347C-738.743 144.075 -725.447 146.099 -710.367 148.226C-708.605 148.554 -707.727 148.719 -705.967 149.052C-606.143 163.589 -496.281 185.772 -358.893 219.021C-350.271 221.217 -342.531 223.187 -334.766 225.022L-324.441 227.686C-322.722 228.135 -321.847 228.179 -320.126 228.623C-237.582 249.395 -155.329 271.886 -63.892 298.727C-60.4729 299.733 -57.0628 300.855 -53.6493 301.858C37.6692 328.923 126.314 357.004 217.475 387.9C223.441 389.861 230.254 392.217 236.247 394.19C239.668 395.316 242.211 396.265 245.62 397.501C308.69 419.046 369.255 440.914 429.032 463.32C451.253 471.764 472.638 480.052 494.886 488.621C495.739 489.018 497.455 489.695 498.315 490.094C523.997 500.011 548.005 509.611 572.049 519.676C573.765 520.353 574.62 520.636 576.336 521.313L586.652 525.724C588.368 526.401 589.223 526.684 590.939 527.36C676.162 563.056 742.859 593.767 796.246 622.232C833.901 641.323 874.165 660.679 924.774 682.7C946.617 692.18 967.583 701.146 991.986 711.01C997.223 713.159 1001.6 715.034 1006.85 717.197C1008.59 717.883 1009.46 718.153 1011.2 718.833C1121.36 763.73 1238.79 806.111 1362.79 847.937L1372.31 851.023C1504.12 895.138 1633.25 934.443 1756.25 968.852C1759.68 969.86 1762.21 970.468 1765.62 971.343C1816.81 985.713 1863.41 997.953 1911.6 1010.4C1913.29 1010.84 1914.09 1010.89 1915.77 1011.33C1924.23 1013.54 1931.82 1015.47 1939.38 1017.29C1942.76 1018.17 1946.15 1019.06 1949.52 1019.95C2133.19 1065.38 2267.13 1090.8 2368.16 1100.75C2372.04 1101.07 2375.96 1101.53 2380.69 1102.13C2386.9 1102.7 2392.3 1103.1 2398.5 1103.69C2412.24 1104.43 2426.95 1105.82 2438.06 1105.61M-821.859 163.976L-816.457 163.7C-802.256 164.06 -789.796 164.131 -775.627 164.49C-758.871 165.286 -743.9 165.775 -724.691 167.376C-711.633 168.621 -701.165 169.434 -688.131 170.676C-674.234 171.944 -661.28 173.563 -646.59 175.217C-644.879 175.501 -644.012 175.632 -642.314 175.929C-545.125 187.411 -438.29 206.938 -304.803 237.482C-296.448 239.573 -288.903 241.345 -281.368 243.023C-278.024 243.848 -274.681 244.675 -271.339 245.504C-269.671 245.921 -268.819 245.932 -267.127 246.353C-186.973 265.574 -107.117 286.736 -18.3579 312.316C-15.042 313.275 -11.7199 314.332 -8.41589 315.316C80.1951 341.139 166.224 368.243 254.722 398.389C260.511 400.293 267.131 402.597 272.92 404.5C276.227 405.588 278.705 406.535 282.018 407.751C343.239 428.789 402.038 450.322 460.096 472.502C481.68 480.887 502.455 489.128 524.063 497.643C524.9 498.045 526.565 498.72 527.397 499.12C552.363 508.965 575.68 518.575 599.08 528.694C600.746 529.351 601.577 529.642 603.234 530.332L613.271 534.777C614.937 535.434 615.767 535.726 617.43 536.417C700.302 572.292 765.238 603.507 817.305 632.884C854.025 652.49 893.277 672.271 942.578 694.534C963.854 704.128 984.288 713.16 1008.05 723.037C1013.15 725.199 1017.42 727.091 1022.52 729.255C1024.22 729.925 1025.05 730.204 1026.75 730.88C1134.07 775.933 1248.38 817.779 1368.98 858.618L1378.23 861.624C1506.45 904.684 1631.92 942.414 1751.29 974.923C1754.62 975.879 1757.07 976.431 1760.36 977.255C1810.02 990.821 1855.21 1002.23 1901.91 1013.77C1903.54 1014.18 1904.34 1014.2 1905.95 1014.6C1914.15 1016.66 1921.5 1018.45 1928.82 1020.11L1938.65 1022.57C2116.44 1064.25 2245.59 1085.8 2342.41 1091.46C2346.11 1091.62 2349.87 1091.91 2354.4 1092.34C2360.35 1092.64 2365.5 1092.8 2371.44 1093.1C2384.58 1093.18 2398.63 1093.91 2409.18 1093.04M-755.648 198.028L-750.357 197.443C-736.485 197.174 -724.298 196.68 -710.482 196.406C-694.144 196.496 -679.488 196.356 -660.79 197.226C-648.062 197.998 -637.857 198.406 -625.15 199.182C-611.603 199.922 -598.986 201.125 -584.674 202.281L-580.505 202.872C-485.874 211.065 -381.98 227.754 -252.271 255.46C-244.147 257.37 -236.824 259.025 -229.511 260.519C-226.265 261.281 -223.019 262.046 -219.775 262.812C-218.15 263.194 -217.314 263.181 -215.701 263.546C-137.86 281.151 -60.337 300.935 25.8064 325.232C29.0272 326.141 32.2498 327.171 35.4586 328.106C121.47 352.681 204.955 378.811 290.815 408.224C296.432 410.072 302.857 412.329 308.474 414.177C311.685 415.233 314.117 416.18 317.309 417.372C376.736 437.938 433.832 459.184 490.217 481.197C511.183 489.537 531.366 497.761 552.368 506.248C553.176 506.657 554.795 507.331 555.614 507.744C579.864 517.584 602.536 527.193 625.283 537.396C626.901 538.07 627.699 538.349 629.337 538.995L639.076 543.485C640.7 544.162 641.497 544.44 643.136 545.086C723.748 581.279 786.994 613.157 837.817 643.631C873.652 663.882 911.943 684.192 959.995 706.799C980.745 716.528 1000.66 725.698 1023.81 735.629C1028.78 737.812 1032.94 739.729 1037.92 741.907C1039.58 742.564 1040.37 742.875 1042.03 743.53C1146.65 788.913 1257.93 830.319 1375.3 870.29L1384.28 873.232C1509.04 915.294 1630.96 951.461 1746.8 981.993C1750.03 982.902 1752.4 983.397 1755.59 984.156C1803.77 996.912 1847.57 1007.44 1892.82 1018.05C1894.41 1018.43 1895.15 1018.36 1896.73 1018.77C1904.67 1020.67 1911.79 1022.3 1918.87 1023.79C1922.03 1024.54 1925.2 1025.3 1928.39 1026.07C2100.43 1063.79 2224.83 1081.19 2317.39 1082.21C2320.93 1082.18 2324.52 1082.29 2328.86 1082.52C2334.54 1082.53 2339.45 1082.42 2345.12 1082.43C2357.61 1081.76 2371.03 1081.82 2381.01 1080.2M-691.379 232.944L-686.206 232.036C-672.654 231.093 -660.761 229.953 -647.22 229.018C-631.272 228.347 -616.989 227.488 -598.712 227.59C-586.311 227.842 -576.346 227.825 -563.946 228.064C-550.737 228.25 -538.452 228.997 -524.482 229.609C-522.858 229.798 -522.045 229.89 -520.418 230.075C-428.266 234.703 -327.223 248.361 -201.197 273.068C-193.308 274.807 -186.203 276.297 -179.091 277.616C-175.935 278.319 -172.782 279.017 -169.63 279.711C-168.056 280.061 -167.25 279.987 -165.676 280.337C-90.1302 296.231 -14.9031 314.599 68.7014 337.575C71.827 338.435 74.9561 339.44 78.0665 340.318C161.536 363.608 242.547 388.78 325.897 417.522C331.351 419.312 337.584 421.529 343.041 423.326C346.155 424.35 348.494 425.284 351.615 426.473C409.314 446.598 464.74 467.6 519.498 489.513C539.874 497.831 559.486 506.065 579.902 514.537C580.689 514.962 582.262 515.636 583.049 516.061C606.619 525.903 628.664 535.571 650.776 545.903C652.354 546.58 653.137 546.834 654.713 547.516C657.879 549.041 661.045 550.564 664.209 552.085C665.785 552.766 666.57 553.016 668.143 553.702C746.588 590.382 808.227 623.095 857.871 654.879C892.867 675.899 930.272 696.87 977.112 719.95C997.354 729.876 1016.77 739.2 1039.35 749.24C1044.2 751.446 1048.25 753.401 1053.1 755.608C1054.71 756.29 1055.5 756.554 1057.11 757.226C1159.14 803.134 1267.54 844.216 1381.77 883.352L1390.52 886.2C1511.93 927.322 1630.41 961.906 1742.81 990.402C1745.94 991.259 1748.24 991.695 1751.33 992.391C1798.07 1004.29 1840.51 1013.91 1884.33 1023.52C1885.87 1023.87 1886.56 1023.8 1888.1 1024.14C1895.79 1025.87 1902.7 1027.34 1909.54 1028.65C1912.61 1029.34 1915.68 1030.03 1918.76 1030.72C2085.12 1064.28 2204.8 1077.22 2293.08 1073.17C2296.44 1072.93 2299.88 1072.84 2304.01 1072.88C2309.43 1072.56 2314.1 1072.16 2319.49 1071.84C2331.33 1070.37 2344.11 1069.66 2353.5 1067.24M-628.994 268.916L-623.928 267.665C-610.68 265.971 -599.06 264.14 -585.872 262.434C-570.298 260.935 -556.347 259.301 -538.514 258.543C-526.407 258.246 -516.697 257.749 -504.629 257.466C-491.747 257.048 -479.772 257.294 -466.177 257.306L-462.232 257.659C-372.448 258.376 -274.174 268.776 -151.732 290.289C-144.072 291.859 -137.169 293.174 -130.26 294.31C-127.203 294.934 -124.142 295.559 -121.078 296.186C-119.547 296.501 -118.766 296.382 -117.234 296.697C-43.8525 310.799 29.1817 327.658 110.319 349.288C113.349 350.098 116.379 351.077 119.402 351.902C200.385 373.887 278.996 398.088 359.895 426.189C365.186 427.932 371.223 430.103 376.533 431.848C379.554 432.846 381.83 433.774 384.856 434.955C440.852 454.667 494.687 475.494 547.899 497.374C567.683 505.705 586.756 513.979 606.589 522.498C607.358 522.934 608.888 523.615 609.662 524.053C632.571 533.941 654.01 543.707 675.516 554.234C677.051 554.917 677.821 555.143 679.361 555.858C682.437 557.416 685.519 558.972 688.606 560.527C690.136 561.208 690.911 561.436 692.451 562.151C768.825 599.489 828.93 633.232 877.482 666.559C915.054 690.769 953.934 713.242 993.974 733.891C1013.72 744.085 1032.7 753.613 1054.71 763.787C1059.44 766.032 1063.4 768.032 1068.12 770.277C1069.68 770.961 1070.46 771.201 1072.02 771.896C1171.6 818.545 1277.22 859.433 1388.44 897.78L1396.95 900.536C1515.15 940.79 1630.3 973.763 1739.35 1000.14C1742.39 1000.95 1744.61 1001.32 1747.61 1001.94C1792.94 1012.97 1834.06 1021.6 1876.46 1030.19C1877.95 1030.5 1878.62 1030.37 1880.11 1030.68C1887.55 1032.23 1894.22 1033.54 1900.84 1034.64C1903.82 1035.26 1906.79 1035.89 1909.77 1036.51C2070.55 1065.62 2185.51 1073.76 2269.45 1064.16C2272.64 1063.7 2275.9 1063.42 2279.85 1063.21C2284.97 1062.54 2289.4 1061.81 2294.51 1061.17C2305.7 1058.81 2317.81 1057.27 2326.61 1053.97M-568.409 306.158L-563.444 304.506C-550.493 301.991 -539.127 299.398 -526.23 296.873C-511.011 294.452 -497.403 291.997 -479.986 290.281C-468.169 289.37 -458.7 288.351 -446.915 287.439C-434.365 286.372 -422.682 286.064 -409.431 285.424C-407.89 285.496 -407.124 285.534 -405.564 285.607C-318.176 282.166 -222.604 289.04 -103.64 307.148C-96.1929 308.526 -89.4953 309.664 -82.786 310.595L-73.8698 312.252C-72.3844 312.525 -71.6253 312.355 -70.1399 312.628C1.0947 324.818 71.9759 340.112 150.705 360.341C153.642 361.097 156.582 362.058 159.522 362.82C238.067 383.452 314.345 406.692 392.867 434.204C398 435.891 403.873 438.033 409.012 439.722C411.949 440.688 414.155 441.624 417.094 442.795C471.45 462.131 523.735 482.834 575.435 504.762C594.672 513.136 613.211 521.464 632.491 530.065C633.242 530.512 634.727 531.206 635.475 531.657C657.767 541.651 678.614 551.539 699.563 562.285C701.053 562.98 701.788 563.222 703.28 563.913C706.286 565.5 709.292 567.086 712.298 568.673C713.788 569.368 714.496 569.599 716.016 570.301C790.397 608.495 849.061 643.487 896.597 678.615C933.128 703.868 971.157 727.26 1010.51 748.685C1029.81 759.161 1048.36 768.988 1069.82 779.341C1074.44 781.639 1078.31 783.693 1082.93 785.99C1084.46 786.686 1085.21 786.927 1086.76 787.63C1184.02 835.254 1287 876.034 1395.31 913.703L1403.6 916.372C1512.48 953.747 1623.6 985.445 1736.41 1011.31C1739.35 1012.06 1741.52 1012.37 1744.41 1012.92C1788.39 1023.04 1828.17 1030.65 1869.21 1038.11C1870.65 1038.38 1871.28 1038.2 1872.72 1038.47C1879.92 1039.84 1886.38 1040.96 1892.77 1041.87C1895.65 1042.41 1898.53 1042.96 1901.4 1043.51C2056.67 1067.91 2166.9 1070.81 2246.43 1055.13C2249.67 1054.39 2252.96 1053.83 2256.28 1053.45C2261.13 1052.4 2265.3 1051.32 2270.14 1050.26C2280.65 1046.93 2292.1 1044.48 2300.28 1040.21M-509.592 344.994L-504.74 342.925C-492.064 339.501 -480.95 336.063 -468.33 332.617C-453.462 329.197 -440.145 325.767 -423.158 323.051C-411.631 321.472 -402.384 319.878 -390.896 318.296C-378.651 316.507 -367.257 315.586 -354.349 314.25C-352.838 314.245 -352.094 314.261 -350.593 314.264C-265.449 306.172 -172.505 309.224 -56.9469 323.708C-49.7156 324.887 -43.2112 325.834 -36.7023 326.548L-28.0244 327.942C-26.5818 328.18 -25.8455 327.947 -24.3958 328.17C44.7428 338.313 113.514 351.95 189.899 370.726C192.749 371.429 195.598 372.372 198.451 373.07C275.126 392.399 350.683 415.255 424.832 441.551C429.81 443.189 435.514 445.3 440.498 446.94C443.349 447.878 445.488 448.818 448.348 449.988C501.103 468.987 551.894 489.618 602.134 511.68C620.841 520.128 638.87 528.574 657.62 537.267C658.347 537.735 659.792 538.443 660.525 538.912C682.195 549.01 702.494 559.109 722.91 570.132C724.362 570.837 725.098 571.079 726.528 571.775C729.456 573.415 732.382 575.06 735.305 576.71C736.757 577.415 737.493 577.657 738.923 578.354C811.414 617.619 868.712 654.094 915.317 691.316C948.138 715.587 983.139 739.401 1026.83 764.626C1045.71 775.475 1063.82 785.616 1084.82 796.228C1089.32 798.606 1093.12 800.705 1097.63 803.085C1099.12 803.788 1099.82 804.017 1101.35 804.733C1196.42 853.59 1296.88 894.417 1402.41 931.464L1410.48 934.047C1522.66 972.759 1631.43 1002.42 1734 1024.25C1736.87 1024.95 1738.94 1025.18 1741.75 1025.65C1784.37 1034.79 1822.87 1041.32 1862.56 1047.6C1863.95 1047.83 1864.54 1047.59 1865.94 1047.82C1872.91 1048.99 1879.15 1049.92 1885.31 1050.61L1893.67 1052C2043.47 1071.34 2148.96 1068.54 2223.97 1046.17C2227.01 1045.16 2230.11 1044.33 2233.27 1043.7C2237.83 1042.23 2241.75 1040.75 2246.29 1039.27C2256.12 1034.87 2266.87 1031.42 2274.41 1026.07M-452.418 385.59L-447.659 383.051C-435.265 378.619 -424.393 374.255 -412.058 369.824C-397.527 365.291 -384.52 360.831 -367.931 356.976C-356.683 354.662 -347.659 352.439 -336.456 350.137C-324.505 347.522 -313.409 345.989 -300.817 343.856L-297.161 343.691C-214.228 330.522 -123.854 329.42 -11.6002 339.978C-4.5828 340.941 1.72752 341.685 8.05127 342.163C10.8552 342.551 13.6572 342.938 16.4574 343.324C17.8564 343.515 18.5697 343.219 19.9688 343.409C87.0625 351.368 153.78 363.245 227.871 380.502C230.637 381.148 233.393 382.078 236.165 382.708C310.707 400.622 384.036 422.508 455.776 448.255C460.61 449.849 466.15 451.931 470.984 453.524C473.75 454.435 475.832 455.382 478.603 456.559C529.819 475.246 579.145 495.895 627.992 518.172C646.183 526.735 663.716 535.34 681.961 544.165C682.672 544.656 684.076 545.378 684.787 545.881C705.875 556.153 725.641 566.498 745.525 577.907C746.938 578.627 747.635 578.854 749.047 579.573C751.899 581.283 754.749 582.989 757.6 584.69C759.018 585.412 759.709 585.637 761.127 586.358C831.821 626.931 887.842 665.158 933.614 704.8C965.828 730.535 1000.15 755.64 1042.92 781.907C1061.4 793.202 1079.13 803.739 1099.65 814.66C1104.07 817.093 1107.78 819.301 1112.2 821.738C1113.66 822.462 1114.38 822.695 1115.83 823.415C1208.86 873.789 1306.93 914.827 1409.79 951.318L1417.66 953.818C1526.97 991.849 1632.74 1019.81 1732.18 1039.17C1734.66 1039.68 1737.17 1040.06 1739.69 1040.32C1780.99 1048.44 1818.23 1053.81 1856.58 1058.82C1857.93 1059.01 1858.49 1058.7 1859.84 1058.9C1866.57 1059.85 1872.59 1060.57 1878.53 1061.02L1886.6 1062.16C2030.99 1076.03 2131.7 1067.02 2202.08 1037.28C2204.89 1035.96 2207.81 1034.84 2210.8 1033.93C2215.06 1032 2218.72 1030.08 2222.97 1028.14C2232.08 1022.54 2242.12 1017.98 2249 1011.44M-396.849 428.344L-392.191 425.278C-380.057 419.739 -369.422 414.343 -357.354 408.802C-343.153 403.044 -330.439 397.421 -314.246 392.327C-303.265 389.198 -294.465 386.291 -283.545 383.137C-271.887 379.636 -261.06 377.39 -248.799 374.398L-245.237 374.04C-164.467 355.284 -76.5917 349.64 32.4032 355.984C39.2116 356.719 45.3398 357.235 51.4624 357.483C54.1829 357.778 56.8997 358.071 59.6128 358.363C60.9714 358.514 61.6611 358.142 63.0221 358.288C128.111 363.88 192.816 373.88 264.669 389.545C267.35 390.133 270.035 391.017 272.716 391.605C345.195 408.028 416.368 428.929 485.745 454.166C490.43 455.712 495.806 457.778 500.499 459.322C503.023 460.21 505.493 461.22 507.899 462.348C557.62 480.753 605.539 501.508 653.028 524.104C670.725 532.822 687.787 541.614 705.546 550.632C706.242 551.153 707.59 551.884 708.311 552.408C728.835 562.909 748.089 573.558 767.485 585.4C768.861 586.141 769.533 586.364 770.912 587.1L779.263 592.433C780.639 593.174 781.317 593.4 782.696 594.136C851.69 636.282 906.537 676.561 951.566 718.985C983.235 746.406 1016.95 773.044 1058.86 800.515C1076.99 812.335 1094.35 823.333 1114.44 834.63C1118.77 837.16 1122.4 839.466 1126.73 841.991C1128.16 842.734 1128.85 842.959 1130.28 843.702C1221.43 895.892 1317.22 937.324 1417.53 973.346L1425.21 975.769C1531.81 1013.2 1634.62 1039.4 1731.01 1056.13C1733.71 1056.72 1735.65 1056.76 1738.27 1057.07C1778.28 1064.11 1814.26 1068.21 1851.29 1071.87C1852.59 1072.01 1853.12 1071.63 1854.43 1071.77C1860.93 1072.49 1866.73 1072.99 1872.45 1073.18C1875.05 1073.47 1877.65 1073.76 1880.24 1074.04C2019.24 1082.01 2115.11 1066.19 2180.72 1028.29C2183.29 1026.64 2186.01 1025.2 2188.86 1023.97C2192.81 1021.51 2196.18 1019.13 2200.12 1016.67C2208.5 1009.75 2217.8 1003.98 2223.99 996.106M-342.797 473.579L-338.229 469.924C-326.366 463.171 -315.948 456.607 -304.148 449.835C-290.242 442.721 -277.841 435.82 -262.023 429.345C-251.308 425.316 -242.713 421.631 -232.037 417.599C-220.692 413.114 -210.122 410.075 -198.155 406.143C-196.769 405.914 -196.076 405.802 -194.687 405.567C-116.038 380.632 -30.6223 370.03 75.2202 371.737C81.8267 372.23 87.7721 372.505 93.724 372.446C96.3664 372.646 99.0059 372.842 101.642 373.036C102.96 373.134 103.628 372.682 104.951 372.783C168.092 375.819 230.806 383.801 300.468 397.784C303.072 398.312 305.672 399.168 308.276 399.696C377.718 414.326 445.213 433.633 514.868 459.242C519.429 460.746 524.636 462.793 529.193 464.29C531.653 465.163 534.051 466.174 536.376 467.315C584.63 485.52 631.225 506.427 677.4 529.449C694.621 538.364 711.235 547.406 728.526 556.662C729.21 557.208 730.544 557.969 731.225 558.52C751.214 569.303 769.988 580.328 788.915 592.701C790.254 593.464 790.91 593.681 792.255 594.446L800.41 600.026C801.755 600.791 802.411 601.007 803.756 601.772C871.146 645.795 924.889 688.436 969.308 734.061C1000.5 763.418 1033.68 791.764 1074.8 820.7C1092.6 833.131 1109.66 844.672 1129.33 856.438C1133.57 859.074 1137.14 861.497 1141.38 864.132C1142.79 864.902 1143.45 865.118 1144.86 865.887C1234.25 920.297 1327.92 962.256 1425.8 997.892L1433.25 1000.26C1537.27 1037.18 1637.24 1061.54 1730.62 1075.47C1733.24 1075.99 1735.1 1075.97 1737.64 1076.16C1776.38 1082.02 1811.14 1084.79 1846.85 1086.97C1848.12 1087.06 1848.6 1086.6 1849.85 1086.69C1856.13 1087.16 1861.72 1087.42 1867.22 1087.33C1869.73 1087.52 1872.24 1087.7 1874.74 1087.89C2008.36 1089.44 2099.3 1066.13 2159.96 1019.22C2162.28 1017.21 2164.8 1015.41 2167.48 1013.82C2171.12 1010.79 2174.21 1007.87 2177.83 1004.84C2185.43 996.47 2193.97 989.341 2199.46 980M-290.184 521.677L-285.713 517.376C-274.089 509.235 -263.901 501.413 -252.362 493.27C-238.787 484.641 -226.651 476.335 -211.205 468.319C-200.746 463.298 -192.359 458.755 -181.946 453.734C-170.855 448.169 -160.577 444.257 -148.917 439.271L-145.536 438.463C-68.9804 406.721 14.0324 390.636 116.766 387.321C122.75 387.566 128.744 387.52 134.722 387.182L142.399 387.448C143.692 387.5 144.33 386.958 145.606 387.004C206.775 387.242 267.595 393.069 335.121 405.271C337.639 405.728 340.17 406.564 342.677 407.047C409.963 419.979 475.4 438.258 543.003 463.527C547.414 464.984 552.479 467.023 556.891 468.48C559.294 469.344 561.627 470.361 563.874 471.523C610.705 489.546 655.988 510.706 700.921 534.279C717.675 543.443 733.876 552.786 750.711 562.336C751.384 562.921 752.693 563.72 753.349 564.297C772.829 575.432 791.142 586.902 809.668 599.887C810.974 600.678 811.613 600.888 812.919 601.68C815.578 603.639 818.238 605.6 820.898 607.564C822.212 608.353 822.846 608.561 824.157 609.354C890.062 655.57 942.851 700.982 986.716 750.233C1017.51 781.815 1050.22 812.159 1090.64 842.769C1108.14 855.928 1124.9 868.118 1144.21 880.397C1148.38 883.165 1151.89 885.722 1156.06 888.491C1157.42 889.289 1158.08 889.495 1159.45 890.294C1247.27 947.298 1338.93 990.008 1434.51 1025.35L1441.79 1027.66C1543.34 1064.15 1640.56 1086.59 1730.99 1097.51C1733.53 1097.97 1735.32 1097.84 1737.77 1097.92C1775.27 1102.56 1808.8 1103.85 1843.2 1104.42C1844.41 1104.46 1844.87 1103.91 1846.06 1103.95C1851.64 1104.17 1857.22 1104.1 1862.79 1103.72L1870.03 1103.96C1998.26 1098.52 2084.17 1066.96 2139.68 1010.03C2141.76 1007.65 2144.06 1005.45 2146.57 1003.45C2149.87 999.775 2152.66 996.273 2155.95 992.601C2162.73 982.64 2170.49 973.979 2175.17 962.987M-238.927 573.091L-234.539 568.059C-223.169 558.393 -213.201 549.154 -201.921 539.482C-188.659 529.172 -176.806 519.305 -161.717 509.577C-151.511 503.446 -143.331 497.961 -133.171 491.83C-122.362 485.065 -112.342 480.19 -100.978 474.035L-97.6842 472.964C-23.1868 433.672 57.44 411.58 157.123 402.76C162.942 402.746 168.755 402.4 174.527 401.724C177.011 401.701 179.492 401.677 181.969 401.651C183.206 401.639 183.831 401.001 185.071 400.985C244.371 398.205 303.263 401.672 368.691 411.97C371.14 412.364 373.579 413.17 376.02 413.554C441.195 424.679 504.62 441.905 570.232 466.895C574.511 468.312 579.433 470.349 583.714 471.761C586.159 472.568 588.019 473.597 590.495 474.826C635.955 492.753 679.982 514.242 723.741 538.513C740.088 547.968 755.855 557.687 772.275 567.586C772.928 568.21 774.221 569.045 774.852 569.661C793.89 581.173 812.247 593.597 829.846 606.882C831.122 607.71 831.744 607.913 833.022 608.736C835.627 610.81 838.23 612.885 840.833 614.962C842.114 615.792 842.731 615.994 844.015 616.819C908.543 665.597 960.46 714.178 1003.92 767.576C1034.4 801.698 1066.71 834.329 1106.52 866.88C1123.75 880.859 1140.26 893.796 1159.23 906.704C1163.33 909.62 1166.79 912.338 1170.89 915.253C1172.24 916.085 1172.88 916.29 1174.22 917.121C1260.63 977.154 1350.42 1020.84 1443.82 1055.99L1450.92 1058.24C1550.13 1094.39 1644.69 1114.8 1732.22 1122.5C1734.68 1122.87 1736.41 1122.65 1738.75 1122.61C1775.04 1125.9 1807.34 1125.59 1840.45 1124.43C1841.61 1124.41 1842.02 1123.76 1843.19 1123.74C1848.56 1123.71 1853.92 1123.33 1859.24 1122.62C1861.56 1122.58 1863.88 1122.54 1866.21 1122.5C1989.02 1109.42 2069.76 1068.74 2119.9 1000.68C2121.71 997.89 2123.79 995.246 2126.12 992.783C2129.07 988.406 2131.55 984.252 2134.48 979.868C2140.42 968.079 2147.34 957.775 2151.2 944.949M-188.927 628.292L-184.637 622.451C-173.513 611.088 -163.759 600.266 -152.724 588.898C-139.768 576.71 -128.181 565.066 -113.468 553.469C-103.508 546.116 -95.5331 539.575 -85.6306 532.218C-75.0914 524.113 -65.3325 518.161 -54.2645 510.721L-51.059 509.362C21.3847 461.675 99.6789 432.905 196.363 418.078C202.031 417.766 207.667 417.087 213.229 416.048L220.441 415.583C221.644 415.504 222.241 414.758 223.444 414.679C280.848 408.565 337.907 409.51 401.225 417.748C403.581 418.076 405.977 418.846 408.329 419.154C471.429 428.341 532.887 444.485 596.549 469.253C600.703 470.627 605.479 472.666 609.633 474.04C612.003 474.824 613.814 475.887 616.219 477.142C660.367 494.973 703.172 516.955 745.791 542.077C761.715 551.924 777.114 562.045 793.129 572.368C793.775 573.038 795.034 573.913 795.66 574.569C814.378 586.689 832.322 599.775 849.405 613.764C850.656 614.63 851.256 614.825 852.505 615.696C855.054 617.905 857.607 620.115 860.164 622.326C861.412 623.198 862.012 623.392 863.263 624.259C926.531 676.011 977.7 728.225 1020.88 786.346C1051.12 823.358 1083.13 858.602 1122.42 893.382C1139.42 908.323 1155.71 922.112 1174.39 935.748C1178.43 938.844 1181.84 941.736 1185.91 944.843C1187.23 945.715 1187.85 945.911 1189.18 946.784C1274.35 1010.34 1362.42 1055.25 1453.76 1090.31L1460.69 1092.49C1557.71 1128.41 1649.66 1146.72 1734.33 1150.88C1736.7 1151.21 1738.36 1150.83 1740.63 1150.67C1775.7 1152.51 1806.78 1150.47 1838.59 1147.39C1839.71 1147.31 1840.07 1146.54 1841.19 1146.46C1846.38 1146.14 1851.53 1145.42 1856.58 1144.33L1863.28 1143.84C1980.63 1122.37 2056.04 1071.6 2100.51 991.163C2102.08 987.91 2103.92 984.776 2106.03 981.788C2108.62 976.625 2110.78 971.747 2113.33 966.572C2118.37 952.778 2124.41 940.61 2127.4 925.738M-140.103 687.837L-135.897 681.073C-125.017 667.814 -115.48 655.223 -104.703 641.959C-92.0341 627.703 -80.7496 614.105 -66.3892 600.383C-56.6735 591.665 -48.8987 583.944 -39.2537 575.222C-28.9875 565.631 -19.4812 558.485 -8.6991 549.615L-5.57837 547.934C64.8221 490.922 140.782 454.782 234.464 433.314C239.99 432.674 245.451 431.629 250.794 430.188C253.125 429.904 255.455 429.62 257.786 429.336C258.948 429.192 259.525 428.319 260.689 428.17C316.219 418.411 371.407 416.567 432.756 422.627C435.038 422.859 437.348 423.619 439.63 423.851C500.688 430.958 560.224 445.971 622.004 470.593C626.031 471.928 630.657 474.005 634.697 475.315C636.978 476.065 638.759 477.176 641.122 478.451C683.987 496.263 725.636 518.836 767.176 544.945C782.737 555.239 797.744 565.856 813.388 576.67C814.021 577.394 815.246 578.317 815.87 579.032C834.306 591.867 851.873 605.711 868.472 620.49C869.699 621.407 870.28 621.6 871.474 622.504L878.996 629.591C880.223 630.508 880.807 630.696 882.028 631.611C944.155 686.794 994.696 743.152 1037.76 806.638C1067.86 846.936 1099.66 885.159 1138.5 922.496C1155.3 938.526 1171.44 953.311 1189.85 967.793C1193.84 971.085 1197.22 974.188 1201.21 977.481C1202.51 978.404 1203.12 978.595 1204.42 979.518C1288.55 1047.14 1375.04 1093.54 1464.44 1128.64L1471.22 1130.76C1566.16 1166.54 1655.6 1182.59 1737.44 1182.94C1739.76 1183.18 1741.33 1182.68 1743.51 1182.38C1777.38 1182.64 1807.24 1178.7 1837.74 1173.53C1838.82 1173.35 1839.13 1172.48 1840.21 1172.33C1845.21 1171.68 1850.13 1170.6 1854.91 1169.11L1861.33 1168.19C1973.15 1137.49 2043.02 1075.53 2081.53 981.282C2082.84 977.515 2084.43 973.837 2086.31 970.275C2088.51 964.229 2090.3 958.536 2092.48 952.489C2096.56 936.453 2101.67 922.217 2103.7 905.049M-92.3391 752.329L-88.2356 744.568C-77.6022 729.197 -68.2903 714.628 -57.7657 699.249C-45.4196 682.652 -34.3951 666.857 -20.3777 650.823C-10.9215 640.576 -3.35746 631.545 6.05029 621.303C16.0383 610.057 25.2616 601.571 35.7638 591.105L38.8062 589.074C107.141 521.67 180.774 477.363 271.49 448.606C276.886 447.596 282.173 446.147 287.288 444.278C289.537 443.821 291.79 443.372 294.046 442.93C295.168 442.705 295.723 441.697 296.85 441.473C350.528 427.699 403.882 422.821 463.227 426.514C465.441 426.653 467.673 427.395 469.885 427.54C528.922 432.399 586.58 446.239 646.535 470.79C650.438 472.083 654.939 474.159 658.831 475.447C661.06 476.181 662.781 477.335 665.056 478.672C706.689 496.539 747.217 519.825 787.747 547.137C802.913 557.931 817.613 569.142 832.901 580.544C833.532 581.328 834.71 582.292 835.339 583.081C853.539 596.756 870.764 611.479 886.905 627.163C888.1 628.133 888.664 628.32 889.856 629.283C892.32 631.823 894.786 634.361 897.254 636.899C898.455 637.872 899.021 638.053 900.205 639.019C961.324 698.148 1011.41 759.241 1054.47 828.794C1084.53 872.824 1116.22 914.431 1154.73 954.701C1171.42 971.991 1187.4 987.893 1205.6 1003.35C1209.54 1006.88 1212.89 1010.22 1216.84 1013.74C1218.13 1014.72 1218.72 1014.91 1220.01 1015.88C1303.29 1088.19 1388.37 1136.38 1475.96 1171.64L1482.58 1173.7C1575.58 1209.46 1662.6 1223.13 1741.63 1219.31C1743.87 1219.45 1745.37 1218.8 1747.47 1218.34C1780.15 1216.89 1808.78 1210.86 1837.95 1203.38C1838.98 1203.15 1839.26 1202.12 1840.29 1201.89C1845.13 1200.88 1849.84 1199.38 1854.33 1197.44L1860.47 1196.06C1966.65 1155.19 2030.77 1080.81 2062.91 971.198C2063.97 966.853 2065.3 962.568 2066.92 958.368C2068.71 951.344 2070.12 944.747 2071.89 937.721C2074.94 919.179 2079.06 902.646 2080.12 882.927M-45.5352 822.459L-41.5261 813.56C-31.161 795.815 -22.0575 779.052 -11.798 761.307C0.24407 742.105 10.98 723.868 24.6075 705.201C33.8183 693.257 41.1869 682.771 50.3214 670.821C60.0326 657.721 69.0274 647.768 79.2025 635.513L82.1625 633.07C148.411 554.104 219.704 500.71 307.474 463.855C312.754 462.427 317.868 460.531 322.743 458.193C324.921 457.572 327.1 456.953 329.28 456.337C330.369 456.027 330.891 454.867 331.98 454.556C383.8 436.349 435.34 428.145 492.707 429.26C494.845 429.309 497.016 430.026 499.149 430.073C556.199 432.501 612.012 445.101 670.202 469.679C673.986 470.93 678.359 473.04 682.148 474.294C684.306 475.012 685.982 476.221 688.197 477.612C728.612 495.589 768.105 519.754 807.672 548.461C822.5 559.861 836.891 571.751 851.855 583.825C852.476 584.671 853.631 585.728 854.252 586.575C872.249 601.235 889.159 616.972 904.87 633.681C906.044 634.71 906.597 634.892 907.763 635.923L915.077 644.15C916.257 645.18 916.804 645.36 917.97 646.392C978.229 710.03 1027.96 776.503 1071.23 852.94C1101.37 901.2 1133.06 946.652 1171.35 990.257C1187.95 1008.98 1203.83 1026.17 1221.86 1042.74C1225.78 1046.53 1229.11 1050.14 1233.04 1053.94C1234.31 1054.98 1234.89 1055.16 1236.16 1056.2C1318.82 1133.89 1402.64 1184.2 1488.57 1219.76L1495.04 1221.77C1586.25 1257.64 1670.9 1268.73 1747.13 1260.37C1749.3 1260.41 1750.72 1259.6 1752.73 1258.97C1784.23 1255.63 1811.62 1247.3 1839.42 1237.27C1840.41 1236.96 1840.63 1235.77 1841.6 1235.45C1846.29 1234.02 1850.77 1232.07 1854.95 1229.67L1860.81 1227.77C1961.23 1175.65 2019.31 1087.45 2044.7 960.669C2045.48 955.667 2046.53 950.705 2047.86 945.8C2049.22 937.69 2050.23 930.075 2051.54 921.984C2053.5 900.647 2056.56 881.531 2056.54 858.978M0.437012 898.994L4.34326 888.821C14.4648 868.441 23.3177 849.197 33.3114 828.808C45.0279 806.698 55.4705 785.723 68.7257 764.135C77.6812 750.292 84.8407 738.171 93.7096 724.33C103.136 709.156 111.867 697.559 121.74 683.307L124.606 680.437C188.727 588.533 257.661 525.046 342.484 479.232C347.654 477.326 352.593 474.932 357.22 472.09L363.528 469.674C364.581 469.272 365.076 467.945 366.125 467.54C416.084 444.43 465.808 432.568 521.222 430.873C523.286 430.814 525.388 431.511 527.449 431.457C582.518 431.245 636.5 442.576 692.981 467.213C696.649 468.431 700.9 470.577 704.573 471.784C706.669 472.479 708.306 473.756 710.466 475.209C749.717 493.377 788.209 518.586 826.88 548.924C841.392 561.018 855.499 573.692 870.164 586.551C870.779 587.479 871.923 588.586 872.539 589.515C890.372 605.32 907.005 622.217 922.322 640.088C923.479 641.194 924.015 641.357 925.151 642.467L932.371 651.379C933.528 652.485 934.064 652.648 935.2 653.758C994.741 722.552 1044.31 795.132 1087.96 879.349C1118.3 932.398 1150.1 982.209 1188.26 1029.6C1204.82 1049.97 1220.66 1068.61 1238.58 1086.46C1242.46 1090.56 1245.8 1094.48 1249.69 1098.58C1250.96 1099.68 1251.52 1099.86 1252.77 1100.99C1335.05 1184.81 1417.77 1237.62 1502.17 1273.64L1508.5 1275.59C1598.05 1311.71 1680.41 1320.04 1753.84 1306.67C1755.95 1306.62 1757.29 1305.62 1759.21 1304.81C1789.52 1299.41 1815.65 1288.56 1842.11 1275.7C1843.05 1275.29 1843.22 1273.95 1844.17 1273.51C1848.71 1271.59 1852.97 1269.15 1856.83 1266.24L1862.4 1263.77C1956.85 1199.19 2008.62 1095.61 2026.76 949.638C2027.27 943.612 2028.02 938.354 2029.05 932.491C2029.93 923.153 2030.51 914.417 2031.36 905.068C2032.15 880.607 2034.08 858.61 2032.88 832.87" stroke="url(#paint0_linear_1008_1228)" stroke-miterlimit="10"/>
<defs>
<linearGradient id="paint0_linear_1008_1228" x1="879.065" y1="1245.5" x2="1175.21" y2="494.532" gradientUnits="userSpaceOnUse">
<stop stop-color="#AEFF01"/>
<stop offset="1" stop-color="#01D1FF"/>
</linearGradient>
</defs>
</svg>
