<svg width="607" height="616" viewBox="0 0 607 616" fill="none" xmlns="http://www.w3.org/2000/svg">
<g opacity="0.12" clip-path="url(#clip0_919_1240)">
<path d="M124.113 258.601L321.726 318.497M321.726 318.497L287.372 515.228M321.726 318.497L401.065 135.377M321.726 318.497L483.702 425.461M287.372 515.228L103.663 449.862L124.108 258.602L208.403 81.4976L401.065 135.377M287.372 515.228L483.702 425.461M401.065 135.377L462.841 90.9264M401.065 135.377L552.142 247.483L483.702 425.461" stroke="#01D1FF" stroke-width="0.461405" stroke-linecap="round"/>
<path d="M289.511 44.43L116.831 123.725M116.833 123.724L37.5972 282.89L103.668 449.861L154.667 511.166L319.296 571.222L495.457 489.13L554.268 331.807L552.149 247.481L462.849 90.9249L289.514 44.4295" stroke="#01D1FF" stroke-width="2.72485" stroke-linecap="round"/>
<path d="M124.112 258.601L37.5963 282.889" stroke="#01D1FF" stroke-width="0.461405" stroke-linecap="round"/>
<path d="M54.0433 266.015L120.429 247.952L193.142 100.297" stroke="#01D1FF" stroke-width="2.72485" stroke-linecap="round"/>
<path d="M193.142 100.297L119.831 133.305L101.995 169.282M93.5219 186.375L80.2465 213.15M73.3807 226.996L54.0433 266.015" stroke="#01D1FF" stroke-width="1.13541" stroke-linecap="round"/>
<path d="M189.933 106.788L123.328 136.783L105.346 173.064M97.0188 189.853L85.9732 212.142M76.9608 230.313L60.0812 264.367" stroke="#01D1FF" stroke-width="2.72485" stroke-linecap="round"/>
<path d="M123.327 136.783L119.831 133.305M98.3315 184.201L93.5217 186.375L97.0176 189.853" stroke="#01D1FF" stroke-width="1.13541" stroke-linecap="round"/>
<path d="M101.83 187.691L97.0178 189.852" stroke="#01D1FF" stroke-width="2.72485" stroke-linecap="round"/>
<path d="M101.83 187.691L98.3331 184.201C98.3331 184.201 102.965 174.67 101.964 169.695L105.459 173.173" stroke="#01D1FF" stroke-width="1.13541" stroke-linecap="round"/>
<path d="M101.83 187.691C101.83 187.691 106.46 178.148 105.459 173.172M88.3839 214.54L84.8879 211.063L80.0755 213.224" stroke="#01D1FF" stroke-width="2.72485" stroke-linecap="round"/>
<path d="M84.8892 211.063C84.8892 211.063 79.6405 221.058 73.6072 226.977L77.1019 230.455" stroke="#01D1FF" stroke-width="1.13541" stroke-linecap="round"/>
<path d="M88.3846 214.54C88.3846 214.54 83.1359 224.536 77.1014 230.455" stroke="#01D1FF" stroke-width="2.72485" stroke-linecap="round"/>
<path d="M149.983 247.459L168.999 207.496M178.376 187.81L190.69 161.909M199.853 142.659L218.927 102.593" stroke="#01D1FF" stroke-width="1.13541" stroke-linecap="round"/>
<path d="M149.984 247.459L310.828 296.205L328.586 255.211M375.715 146.441L357.345 188.83M349.231 207.554L337.669 234.26" stroke="#01D1FF" stroke-width="2.72485" stroke-linecap="round"/>
<path d="M218.928 102.593L375.711 146.428" stroke="#01D1FF" stroke-width="1.13541" stroke-linecap="round"/>
<path d="M152.364 248.185L169.83 211.497M180.771 188.494L191.501 165.94M201.448 145.038L219.736 106.612L374.24 149.818M349.23 207.554L343.933 206.025" stroke="#01D1FF" stroke-width="2.72485" stroke-linecap="round"/>
<path d="M198.509 164.164L190.703 161.907" stroke="#01D1FF" stroke-width="1.13541" stroke-linecap="round"/>
<path d="M343.934 206.025C346.018 199.288 350.078 192.192 357.343 188.83M337.668 234.26L331.607 232.517C327.964 240.446 326.558 246.313 328.588 255.224" stroke="#01D1FF" stroke-width="2.72485" stroke-linecap="round"/>
<path d="M219.736 106.612L218.928 102.593M190.703 161.907L191.514 165.938" stroke="#01D1FF" stroke-width="1.13541" stroke-linecap="round"/>
<path d="M199.319 168.182L191.516 165.938" stroke="#01D1FF" stroke-width="2.72485" stroke-linecap="round"/>
<path d="M199.317 168.182L198.509 164.164C201.599 155.835 205.407 149.642 199.889 142.639" stroke="#01D1FF" stroke-width="1.13541" stroke-linecap="round"/>
<path d="M199.317 168.182C201.651 161.906 204.375 156.849 203.23 151.745M203.296 152.007L202.432 147.711C202.432 147.711 201.68 144.69 199.866 142.657M184.131 189.47L178.376 187.81" stroke="#01D1FF" stroke-width="2.72485" stroke-linecap="round"/>
<path d="M184.132 189.47C184.132 189.47 181.724 200.925 169.015 207.506L169.818 211.499" stroke="#01D1FF" stroke-width="1.13541" stroke-linecap="round"/>
<path d="M169.818 211.499C182.528 204.918 184.933 193.45 184.933 193.45L184.132 189.47" stroke="#01D1FF" stroke-width="2.72485" stroke-linecap="round"/>
<path d="M127.232 136.417L152.218 183.399" stroke="#01D1FF" stroke-width="1.13541" stroke-linecap="round"/>
<path d="M117.165 150.239L143.711 200.171M139.503 129.465L148.861 147.073C152.742 148.481 156.977 151.457 159.856 157.614L155.467 159.481L159.888 167.819" stroke="#01D1FF" stroke-width="2.72485" stroke-linecap="round"/>
<path d="M315.794 147.788L179.289 207.287M303.043 144.835L183.772 196.817" stroke="#01D1FF" stroke-width="1.13541" stroke-linecap="round"/>
<path d="M184.754 192.556L298.171 143.129L294.284 127.461M286.362 95.6577L280.039 70.2305" stroke="#01D1FF" stroke-width="2.72485" stroke-linecap="round"/>
<path d="M298.171 143.129L303.526 144.621L299.626 128.956M315.794 147.788L368.692 162.626M291.701 97.1394L282.288 59.2921" stroke="#01D1FF" stroke-width="1.13541" stroke-linecap="round"/>
<path d="M236.26 81.7913L391.768 124.835" stroke="#01D1FF" stroke-width="2.72485" stroke-linecap="round"/>
<path d="M315.794 147.788L311.965 132.41M294.592 62.5706L304.043 100.541" stroke="#01D1FF" stroke-width="1.13541" stroke-linecap="round"/>
<path d="M287.723 252.947L283.735 276.254L188.411 213.211L302.997 163.719L298.454 190.271M321.374 194.442C326.272 205.41 324.246 214.98 324.246 214.98L317.976 213.895L314.196 235.627L319.926 236.506C319.926 236.506 317.511 248.644 311.022 253.843M326.905 162.553L321.359 194.432M311.034 253.84L305.677 284.632L314.601 287.49M351.891 299.465L428.607 320.848M409.329 163.048L345.453 314.772M298.442 190.274C289.459 195.673 287.572 208.609 287.572 208.609L295.094 209.914L291.289 232.11L284.396 231.059C284.396 231.059 282.311 245.621 287.738 252.957" stroke="#01D1FF" stroke-width="2.72485" stroke-linecap="round"/>
<path d="M317.441 159.437L293.214 285.855M178.141 223.443L246.617 269.252M440.708 340.158L359.679 315.671M440.708 340.158L462.461 217.423M440.708 340.158L428.699 368.815M415.881 399.457L395.172 448.948" stroke="#01D1FF" stroke-width="0.461405" stroke-linecap="round"/>
<path d="M334.012 347.365L452.47 422.753L308.447 488.601L314.28 456.389C322.443 449.006 325.458 435.803 325.458 435.803L317.564 434.023L323.197 407.147M334.009 347.352L327.121 385.412M466.19 441.62L310.365 513.08M422.518 347.291L416.983 361.211M379.208 456.25L386.862 437.002C384.653 430.133 387.796 417.114 387.796 417.114L393.941 419.207L402.517 397.624L397.909 395.536C397.909 395.536 398.676 392.826 400.589 389.741M345.453 314.772L475.086 398.922M446.556 351.473L437.518 374.538M425.397 405.511L411.271 441.594M323.185 407.149L330.383 407.3C330.383 407.3 332.907 395.638 327.124 385.425M300.484 337.189L293.569 379.684M290.057 401.179L285.51 429.148M281.48 453.879L275.344 491.565" stroke="#01D1FF" stroke-width="2.72485" stroke-linecap="round"/>
<path d="M275.343 491.565L120.592 438.093" stroke="#01D1FF" stroke-width="1.13541" stroke-linecap="round"/>
<path d="M275.983 487.635L125.592 435.672" stroke="#01D1FF" stroke-width="2.72485" stroke-linecap="round"/>
<path d="M125.158 398.626L120.592 438.093L125.593 435.671M127.458 378.738L130.798 349.872M133.333 327.919L138.179 286.049" stroke="#01D1FF" stroke-width="1.13541" stroke-linecap="round"/>
<path d="M124.806 435.371L129.22 397.206M131.59 376.74L134.546 351.163M138.178 286.049L300.488 337.188M125.989 462.842L276.695 517.442L282.225 526.92M287.674 536.257L291.119 542.157M294.729 548.351L302.198 561.136" stroke="#01D1FF" stroke-width="2.72485" stroke-linecap="round"/>
<path d="M287.377 515.227L319.293 571.223" stroke="#01D1FF" stroke-width="0.461405" stroke-linecap="round"/>
<path d="M310.365 513.08L334.242 558.935" stroke="#01D1FF" stroke-width="2.72485" stroke-linecap="round"/>
<path d="M474.153 480.283L476.764 492.734L334.242 558.935" stroke="#01D1FF" stroke-width="1.13541" stroke-linecap="round"/>
<path d="M332.639 554.487L472.758 489.398" stroke="#01D1FF" stroke-width="2.72485" stroke-linecap="round"/>
<path d="M483.708 425.46L495.455 489.131" stroke="#01D1FF" stroke-width="0.461405" stroke-linecap="round"/>
<path d="M466.803 470.11L471.94 468.499" stroke="#01D1FF" stroke-width="1.13541" stroke-linecap="round"/>
<path d="M465.876 465.499L470.791 463.96" stroke="#01D1FF" stroke-width="2.72485" stroke-linecap="round"/>
<path d="M465.875 465.499C465.875 465.499 464.308 457.714 468.73 454.177M466.802 470.11C466.802 470.11 465.7 477.357 474.153 480.283M471.753 468.55L470.79 463.96M466.19 441.62L468.742 454.174M476.763 492.734L472.757 489.398" stroke="#01D1FF" stroke-width="1.13541" stroke-linecap="round"/>
<path d="M472.757 489.398L470.704 479.194L470.55 478.426M463.402 442.901L465.182 451.745" stroke="#01D1FF" stroke-width="2.72485" stroke-linecap="round"/>
<path d="M468.743 454.174L464.74 450.851" stroke="#01D1FF" stroke-width="1.13541" stroke-linecap="round"/>
<path d="M465.875 465.499L461.882 462.16M462.238 463.085C462.238 463.085 460.672 455.3 465.093 451.762" stroke="#01D1FF" stroke-width="2.72485" stroke-linecap="round"/>
<path d="M466.804 470.11L462.811 466.771" stroke="#01D1FF" stroke-width="1.13541" stroke-linecap="round"/>
<path d="M470.551 478.426C462.113 475.51 462.197 467.052 462.197 467.052L466.436 466.199" stroke="#01D1FF" stroke-width="2.72485" stroke-linecap="round"/>
<path d="M471.939 468.499L467.934 465.163" stroke="#01D1FF" stroke-width="1.13541" stroke-linecap="round"/>
<path d="M500.275 462.72L491.938 417.565L546.459 275.784" stroke="#01D1FF" stroke-width="2.72485" stroke-linecap="round"/>
<path d="M547.948 335.189L546.459 275.784M547.948 335.189L500.275 462.72M547.948 335.189L543.679 334.068" stroke="#01D1FF" stroke-width="1.13541" stroke-linecap="round"/>
<path d="M473.336 397.793L487.985 359.679M497.053 336.109L506.774 310.822M514.316 291.217L529.839 250.856" stroke="#01D1FF" stroke-width="2.72485" stroke-linecap="round"/>
<path d="M475.085 398.922L490.497 358.859M498.767 337.324L509.284 309.99M516.677 290.755L532.13 250.565L529.838 250.856" stroke="#01D1FF" stroke-width="1.13541" stroke-linecap="round"/>
<path d="M529.84 250.856L408.697 164.539" stroke="#01D1FF" stroke-width="2.72485" stroke-linecap="round"/>
<path d="M532.13 250.565L409.328 163.048M506.773 310.823L509.284 309.99L504.536 306.62" stroke="#01D1FF" stroke-width="1.13541" stroke-linecap="round"/>
<path d="M506.775 310.823L502.037 307.437" stroke="#01D1FF" stroke-width="2.72485" stroke-linecap="round"/>
<path d="M502.037 307.437L504.537 306.62C506.647 300.14 512.626 291.033 516.636 290.737" stroke="#01D1FF" stroke-width="1.13541" stroke-linecap="round"/>
<path d="M516.23 290.74C510.662 291.126 504.147 300.957 502.037 307.437M498.769 337.324L494.4 334.205" stroke="#01D1FF" stroke-width="2.72485" stroke-linecap="round"/>
<path d="M487.973 359.681L490.484 358.848C489.957 354.21 487.928 347.841 494.4 334.205" stroke="#01D1FF" stroke-width="1.13541" stroke-linecap="round"/>
<path d="M494.4 334.205L491.889 335.038C485.43 348.672 487.447 355.042 487.973 359.681M498.901 453.861L543.681 334.068" stroke="#01D1FF" stroke-width="2.72485" stroke-linecap="round"/>
<path d="M521.029 394.659L525.341 395.666M511.309 420.667L515.621 421.674" stroke="#01D1FF" stroke-width="1.13541" stroke-linecap="round"/>
<path d="M531.212 342.501L518.356 379.481C511.883 385.149 509.066 394.051 509.066 394.051L513.132 394.492L505.073 417.662L500.82 416.748C500.82 416.748 497.707 427.637 498.706 435.995L496.498 442.312M543.68 334.068L542.478 286.141" stroke="#01D1FF" stroke-width="2.72485" stroke-linecap="round"/>
<path d="M446.557 351.473L487.765 347.101M520.363 343.649L531.212 342.501" stroke="#01D1FF" stroke-width="1.13541" stroke-linecap="round"/>
<path d="M446.291 354.724L487.333 350.373M519.07 347.015L530.946 345.753" stroke="#01D1FF" stroke-width="2.72485" stroke-linecap="round"/>
<path d="M440.709 340.158L485.862 335.621M466.891 484.838L381.13 484.267L333.295 546.923M340.358 470.515L316.408 462.987M233.706 427.512L273.241 337.243M221.216 442.817L208.551 457.254M218.903 426.82L142.63 384.559M233.078 436.197L278.628 450.468" stroke="#01D1FF" stroke-width="0.461405" stroke-linecap="round"/>
<path d="M290.058 401.179L284.536 399.249C284.536 399.249 283.845 388.182 293.545 379.69M281.458 453.831C275.262 436.216 281.009 427.589 281.009 427.589L285.511 429.148" stroke="#01D1FF" stroke-width="2.72485" stroke-linecap="round"/>
<path d="M137.696 378.12L132.695 380.542L127.459 378.738L132.46 376.317" stroke="#01D1FF" stroke-width="1.13541" stroke-linecap="round"/>
<path d="M137.695 378.12L132.459 376.317M136.001 351.67L130.764 349.853" stroke="#01D1FF" stroke-width="2.72485" stroke-linecap="round"/>
<path d="M132.695 380.542C132.695 380.542 134.06 388.709 125.167 398.624" stroke="#01D1FF" stroke-width="1.13541" stroke-linecap="round"/>
<path d="M137.695 378.12C137.695 378.12 139.152 386.845 129.248 397.174" stroke="#01D1FF" stroke-width="2.72485" stroke-linecap="round"/>
<path d="M125.091 399.216L129.221 397.206M133.334 327.919L137.425 325.942" stroke="#01D1FF" stroke-width="1.13541" stroke-linecap="round"/>
<path d="M137.425 325.942L141.905 287.226" stroke="#01D1FF" stroke-width="2.72485" stroke-linecap="round"/>
<path d="M136.001 351.67C137.802 343.915 136.796 338.127 133.335 327.931" stroke="#01D1FF" stroke-width="1.13541" stroke-linecap="round"/>
<path d="M136.002 351.67L140.091 349.681C141.893 341.926 140.886 336.138 137.426 325.942M132.994 363.692L224.42 414.241L263.255 325.451M133.889 390.67L213.508 436.281L202.571 446.647C195.615 446.146 191.73 449.366 189.451 451.908M169.043 478.441L159.197 489.152" stroke="#01D1FF" stroke-width="2.72485" stroke-linecap="round"/>
<path d="M189.451 451.908L194.239 454.445" stroke="#01D1FF" stroke-width="1.13541" stroke-linecap="round"/>
<path d="M190.186 458.393L194.239 454.445M236.268 450.104L279.87 463.758M311.171 473.569L329.05 479.173M248.359 427.919L278.613 437.285M319.442 450.082L362.904 463.698" stroke="#01D1FF" stroke-width="2.72485" stroke-linecap="round"/>
<path d="M165.068 505.154L162.677 508.741L301.076 559.238" stroke="#01D1FF" stroke-width="1.13541" stroke-linecap="round"/>
<path d="M165.068 505.154L297.768 553.56M236.27 450.104L222.211 463.615M196.482 488.387L180.034 504.214" stroke="#01D1FF" stroke-width="2.72485" stroke-linecap="round"/>
<path d="M236.27 450.104L235.573 446.64M235.573 446.64L221.749 459.946M235.573 446.64L279.177 460.307M193.363 487.258L176.485 503.499" stroke="#01D1FF" stroke-width="1.13541" stroke-linecap="round"/>
<path d="M221.365 460.587C221.365 460.587 223.433 465.125 221.584 468.984M248.36 427.919L262.211 395.562C271.024 389.843 275.392 378.924 275.392 378.924L269.825 377.816L278.322 357.992L283.501 359.008C283.501 359.008 289.55 349.337 286.057 339.934L288.808 333.509M99.7382 416.821L114.779 276.116" stroke="#01D1FF" stroke-width="2.72485" stroke-linecap="round"/>
<path d="M51.1328 293.981L99.7419 416.821" stroke="#01D1FF" stroke-width="1.13541" stroke-linecap="round"/>
<path d="M114.782 276.116L51.132 293.981M55.5309 293.726L100.698 407.873M391.77 124.834L405.232 115.14M413.351 109.299L421.804 103.22M429.005 98.0357L439.876 90.2123" stroke="#01D1FF" stroke-width="2.72485" stroke-linecap="round"/>
<path d="M421.8 103.221L417.945 101.938" stroke="#01D1FF" stroke-width="1.13541" stroke-linecap="round"/>
<path d="M417.947 101.938C417.947 101.938 422.588 98.9074 429.003 98.0362M413.35 109.299L408.442 107.678C408.442 107.678 405.683 110.868 405.243 115.138" stroke="#01D1FF" stroke-width="2.72485" stroke-linecap="round"/>
<path d="M439.85 90.2305L296.463 51.7739L297.745 57.886" stroke="#01D1FF" stroke-width="1.13541" stroke-linecap="round"/>
<path d="M434.015 94.4326L297.746 57.886M421.055 138.983L427.868 134.087M439.243 125.9L448.129 119.498M456.249 113.657L464.814 107.49M417.947 101.938L418.465 105.622M444.104 122.392L449.61 127.707L453.504 124.682C453.504 124.682 457.933 121.117 456.264 113.667" stroke="#01D1FF" stroke-width="2.72485" stroke-linecap="round"/>
<path d="M447.984 119.37L453.504 124.682" stroke="#01D1FF" stroke-width="1.13541" stroke-linecap="round"/>
<path d="M439.243 125.9L444.376 130.857C444.376 130.857 440.741 136.346 427.895 134.094" stroke="#01D1FF" stroke-width="2.72485" stroke-linecap="round"/>
<path d="M528.072 218.391L464.826 107.488" stroke="#01D1FF" stroke-width="1.13541" stroke-linecap="round"/>
<path d="M520.943 213.101L461.903 109.596M528.505 218.71L421.054 138.983M161.839 251.05L170.406 231.776L230.553 271.881M145.277 288.278L140.553 298.902M428.606 320.848L435.49 289.028M447.602 233.153L455.27 197.728M458.578 298.08L452.751 325.362L503.576 319.134M471.208 238.902L476.725 213.019M422.519 347.291L369.915 330.651M458.601 298.062C466.176 291.02 467.322 284.511 467.322 284.511L461.783 283.082L466.859 259.307L471.425 260.472C471.425 260.472 475.723 248.427 471.22 238.9M435.502 289.025C432.204 280.658 433.986 272.029 433.986 272.029L438.914 273.292L444.128 249.161L439.882 248.088C439.882 248.088 440.601 238.611 447.59 233.155M326.904 162.553L364.309 172.748M401.022 182.768L454.984 197.484" stroke="#01D1FF" stroke-width="2.72485" stroke-linecap="round"/>
<path d="M429.354 179.65L405.188 172.873" stroke="#01D1FF" stroke-width="1.13541" stroke-linecap="round"/>
<path d="M476.725 213.019L516.22 286.26" stroke="#01D1FF" stroke-width="2.72485" stroke-linecap="round"/>
<path d="M492.201 224.035L520.098 275.78" stroke="#01D1FF" stroke-width="1.13541" stroke-linecap="round"/>
<path d="M505.151 233.266L523.291 266.919M456.547 165.318L455.628 159.186M454.087 148.852L451.892 134.155" stroke="#01D1FF" stroke-width="2.72485" stroke-linecap="round"/>
<path d="M454.086 148.852L449.133 147.005" stroke="#01D1FF" stroke-width="1.13541" stroke-linecap="round"/>
<path d="M453.189 142.82L449.134 147.005C449.134 147.005 449.858 154.645 455.628 159.186M451.892 134.155L447.835 132.717C447.835 132.717 447.472 130.26 448.683 126.819" stroke="#01D1FF" stroke-width="2.72485" stroke-linecap="round"/>
<path d="M469.87 174.71L461.9 109.584" stroke="#01D1FF" stroke-width="1.13541" stroke-linecap="round"/>
<path d="M480.375 183.003L473.988 130.771M464.121 473.546L397.564 473.096" stroke="#01D1FF" stroke-width="2.72485" stroke-linecap="round"/>
<path d="M469.336 490.991L386.361 490.436L387.208 494.644" stroke="#01D1FF" stroke-width="1.13541" stroke-linecap="round"/>
<path d="M459.679 495.123L387.209 494.643" stroke="#01D1FF" stroke-width="2.72485" stroke-linecap="round"/>
<path d="M386.363 490.436L374.741 506.537M368.106 515.71L359.924 527.043M350.614 539.952L343.959 549.155M368.303 515.972L369.152 520.192M339.808 511.757L346.129 512.634M368.364 515.75L372.806 516.363C372.806 516.363 376.527 514.238 374.746 506.562" stroke="#01D1FF" stroke-width="1.13541" stroke-linecap="round"/>
<path d="M387.208 494.643L375.587 510.744" stroke="#01D1FF" stroke-width="2.72485" stroke-linecap="round"/>
<path d="M372.807 516.364L373.653 520.571" stroke="#01D1FF" stroke-width="1.13541" stroke-linecap="round"/>
<path d="M374.747 506.562C378.18 514.037 373.653 520.571 373.653 520.571L369.15 520.179L363.813 527.584" stroke="#01D1FF" stroke-width="2.72485" stroke-linecap="round"/>
<path d="M359.922 527.043L365.395 527.816C365.395 527.816 359.891 537.391 350.613 539.952" stroke="#01D1FF" stroke-width="1.13541" stroke-linecap="round"/>
<path d="M365.395 527.816L366.242 532.023C366.242 532.023 360.738 541.598 351.46 544.16" stroke="#01D1FF" stroke-width="2.72485" stroke-linecap="round"/>
<path d="M350.613 539.952L351.46 544.159" stroke="#01D1FF" stroke-width="1.13541" stroke-linecap="round"/>
<path d="M351.461 544.16L349.736 546.551M346.129 512.635L336.9 525.423L329.971 524.458C329.971 524.458 326.74 530.455 326.795 538.165L324.803 540.793M343.202 516.684L340.7 516.191L339.808 511.757C339.808 511.757 344.854 506.495 352.33 504.047L363.571 488.468" stroke="#01D1FF" stroke-width="2.72485" stroke-linecap="round"/>
<path d="M296.463 51.7739L282.348 58.8081M271.048 64.437L261.373 69.2672M250.813 74.5245L236.257 81.7787M251.167 74.7155L252.01 78.7139M270.854 64.3843L272.149 70.494" stroke="#01D1FF" stroke-width="1.13541" stroke-linecap="round"/>
<path d="M265.965 70.4929L261.373 69.2672M252.01 78.7139L242.431 83.4986" stroke="#01D1FF" stroke-width="2.72485" stroke-linecap="round"/>
<path d="M251.167 74.7156C255.014 75.7634 263.204 72.5559 265.965 70.4929" stroke="#01D1FF" stroke-width="1.13541" stroke-linecap="round"/>
<path d="M252.01 78.7139C255.857 79.7617 264.047 76.5542 266.809 74.4912M265.965 70.4928L266.811 74.5038M297.745 57.886L283.69 64.8949M272.343 70.5466L266.712 73.3573" stroke="#01D1FF" stroke-width="2.72485" stroke-linecap="round"/>
<path d="M275.445 65.6101L270.854 64.3843" stroke="#01D1FF" stroke-width="1.13541" stroke-linecap="round"/>
<path d="M276.743 71.7323L272.148 70.494" stroke="#01D1FF" stroke-width="2.72485" stroke-linecap="round"/>
<path d="M276.743 71.7323L275.446 65.6101C275.446 65.6101 279.822 65.1753 282.288 59.2921" stroke="#01D1FF" stroke-width="1.13541" stroke-linecap="round"/>
<path d="M276.744 71.7322C276.744 71.7322 281.118 71.2849 283.586 65.4142M427.365 98.1822L290.862 61.578" stroke="#01D1FF" stroke-width="2.72485" stroke-linecap="round"/>
<path d="M324.82 141.044L372.368 154.153" stroke="#01D1FF" stroke-width="1.13541" stroke-linecap="round"/>
<path d="M328.805 139.115L374.073 151.595" stroke="#01D1FF" stroke-width="2.72485" stroke-linecap="round"/>
<path d="M324.821 141.044L323.466 135.615M315.471 103.708L313.939 97.5935M305.916 65.6136L310.555 84.1052L314.019 82.2025" stroke="#01D1FF" stroke-width="1.13541" stroke-linecap="round"/>
<path d="M313.94 97.5935L319.776 98.9358M314.02 82.2024L310.148 66.7416M318.125 98.5602L319.713 104.886" stroke="#01D1FF" stroke-width="2.72485" stroke-linecap="round"/>
<path d="M318.125 98.5602C318.125 98.5602 318.506 91.7072 310.557 84.1052" stroke="#01D1FF" stroke-width="1.13541" stroke-linecap="round"/>
<path d="M314.02 82.2025C321.969 89.8045 321.588 96.6575 321.588 96.6575L318.125 98.5603M282.553 534.378C281.844 532.489 280.882 528.881 282.221 526.921M287.189 540.72C288.805 543.658 291.551 547.13 294.724 548.352" stroke="#01D1FF" stroke-width="2.72485" stroke-linecap="round"/>
<path d="M287.189 540.72L291.835 542.341" stroke="#01D1FF" stroke-width="1.13541" stroke-linecap="round"/>
<path d="M287.189 540.72L288.931 538.416M282.553 534.378L287.67 536.258" stroke="#01D1FF" stroke-width="2.72485" stroke-linecap="round"/>
<path d="M162.678 508.741L156.521 501.041M149.237 491.929L140.969 481.586M137.551 477.319L125.982 462.843" stroke="#01D1FF" stroke-width="1.13541" stroke-linecap="round"/>
<path d="M139.949 473.73C143.82 475.743 146.125 477.639 148.187 479.898L145.799 483.498" stroke="#01D1FF" stroke-width="2.72485" stroke-linecap="round"/>
<path d="M145.798 483.498C143.733 481.226 141.427 479.331 137.55 477.306L139.941 473.719" stroke="#01D1FF" stroke-width="1.13541" stroke-linecap="round"/>
<path d="M145.801 483.498L140.968 481.586M139.942 473.719L133.395 465.533M165.068 505.154L158.911 497.454M151.545 488.24L146.687 482.166" stroke="#01D1FF" stroke-width="2.72485" stroke-linecap="round"/>
<path d="M151.568 488.196L149.177 491.784L154.008 493.695" stroke="#01D1FF" stroke-width="1.13541" stroke-linecap="round"/>
<path d="M156.397 490.108L151.566 488.196" stroke="#01D1FF" stroke-width="2.72485" stroke-linecap="round"/>
<path d="M156.396 490.095L154.008 493.695C154.008 493.695 157.181 497.762 156.519 501.041L158.91 497.454" stroke="#01D1FF" stroke-width="1.13541" stroke-linecap="round"/>
<path d="M156.396 490.095C156.396 490.095 159.572 494.175 158.91 497.454L291.611 545.859" stroke="#01D1FF" stroke-width="2.72485" stroke-linecap="round"/>
<path d="M168.278 495.529L181.506 482.959M203.084 462.443L208.55 457.254" stroke="#01D1FF" stroke-width="0.461405" stroke-linecap="round"/>
<path d="M189.451 451.909L190.354 456.393M159.197 489.152L152.583 472.486M139.946 440.635L127.762 409.925" stroke="#01D1FF" stroke-width="2.72485" stroke-linecap="round"/>
<path d="M98.4244 357.461L65.1816 311.589M98.4244 357.461L106.698 340.434M98.4244 357.461L102.638 369.222" stroke="#01D1FF" stroke-width="0.461405" stroke-linecap="round"/>
<path d="M101.014 341.263L109.755 323.121" stroke="#01D1FF" stroke-width="1.13541" stroke-linecap="round"/>
<path d="M101.015 341.263L91.7352 328.463M83.4434 317.011L74.8939 305.218M68.7892 296.786L64.1133 290.334" stroke="#01D1FF" stroke-width="2.72485" stroke-linecap="round"/>
<path d="M83.443 317.011L86.8474 313.692" stroke="#01D1FF" stroke-width="1.13541" stroke-linecap="round"/>
<path d="M96.4292 334.938L111.932 302.746M91.7344 328.463C90.8339 321.671 86.847 313.692 86.847 313.692L79.2683 311.219M68.7871 296.786C74.1807 298.388 78.0174 301.942 78.0174 301.942L74.8932 305.218" stroke="#01D1FF" stroke-width="2.72485" stroke-linecap="round"/>
<path d="M74.1387 331.348L82.0763 341.876M87.769 349.434L97.9352 362.92" stroke="#01D1FF" stroke-width="1.13541" stroke-linecap="round"/>
<path d="M83.2715 350.417L93.4389 363.904" stroke="#01D1FF" stroke-width="2.72485" stroke-linecap="round"/>
<path d="M93.439 363.904L97.9357 362.92L103.654 380.212" stroke="#01D1FF" stroke-width="1.13541" stroke-linecap="round"/>
<path d="M93.4375 363.904L102.475 391.236" stroke="#01D1FF" stroke-width="2.72485" stroke-linecap="round"/>
<path d="M82.0754 341.876L82.9016 347.398M82.9016 347.398L79.4672 348.089M82.9016 347.398C82.9016 347.398 84.6897 350.302 87.8097 349.491M83.2701 350.417L87.7668 349.434" stroke="#01D1FF" stroke-width="1.13541" stroke-linecap="round"/>
<path d="M84.3766 350.181C81.2553 350.993 79.4672 348.089 79.4672 348.089L78.641 342.566" stroke="#01D1FF" stroke-width="2.72485" stroke-linecap="round"/>
<path d="M82.075 341.876L78.6406 342.567" stroke="#01D1FF" stroke-width="1.13541" stroke-linecap="round"/>
<path d="M74.138 331.348L74.9642 336.871L72.7738 337.311M74.4267 336.979L78.6412 342.567" stroke="#01D1FF" stroke-width="2.72485" stroke-linecap="round"/>
<path d="M208.477 81.6403L208.408 81.4965" stroke="#01D1FF" stroke-width="1.13541" stroke-linecap="round"/>
</g>
<defs>
<clipPath id="clip0_919_1240">
<rect width="513.601" height="524.49" fill="white" transform="translate(0 101.567) rotate(-11.3759)"/>
</clipPath>
</defs>
</svg>
