<svg width="22" height="15" viewBox="0 0 22 15" fill="none" xmlns="http://www.w3.org/2000/svg">
<g clip-path="url(#clip0_841_1703)">
<path d="M10.9978 0C6.512 0 2.4816 3.31393 0.1595 6.94607C0.0539 7.11643 0 7.30821 0 7.5C0 7.69179 0.0528001 7.88357 0.1584 8.05393C2.4816 11.6861 6.512 15 10.9978 15C15.5551 15 19.5734 11.6893 21.8482 8.04321C21.9494 7.87607 22 7.6875 22 7.5C22 7.3125 21.9494 7.12393 21.8482 6.95679C19.5734 3.31071 15.5551 0 10.9978 0ZM20.2521 7.5C18.2314 10.5836 14.8654 13.3929 10.9978 13.3929C7.1863 13.3929 3.8126 10.5729 1.7534 7.5C3.8115 4.42714 7.1863 1.60714 10.9978 1.60714C14.8676 1.60714 18.2347 4.41857 20.2521 7.5ZM11 3.21429C13.4288 3.21429 15.4 5.13429 15.4 7.5C15.4 9.86571 13.4288 11.7857 11 11.7857C8.5712 11.7857 6.6 9.86571 6.6 7.5C6.6 5.13429 8.5712 3.21429 11 3.21429ZM11 4.82143C9.482 4.82143 8.25 6.02143 8.25 7.5C8.25 8.97857 9.482 10.1786 11 10.1786C12.518 10.1786 13.75 8.97857 13.75 7.5C13.75 6.02143 12.518 4.82143 11 4.82143Z" fill="#01D1FF"/>
</g>
<defs>
<clipPath id="clip0_841_1703">
<rect width="22" height="15" fill="white"/>
</clipPath>
</defs>
</svg>
