<svg id='phone_icon' width="46" height="46" viewBox="0 0 46 46" fill="none" xmlns="http://www.w3.org/2000/svg">
<style type='text/css'>
#phone_icon{
      cursor: pointer;
}
#phone_icon circle{
        animation: lk_bg_out 0.1s ease-in 1 forwards;
}
#phone_icon:hover circle{

        animation: lk_bg_fill 0.2s ease-in 1 forwards;
}
@keyframes lk_bg_fill {
      0% {
        transform: translate(7,6);
        r: 2;
        fill: #afff0100;
      }
      100% {
        transform: translate(7,6);
        cx: 26;
        cy: 25;
        width: 100%;
        height: 100%;
        r: 19;
        fill: #aeff01;
      }
    }

    @keyframes lk_bg_out {
      0% {
        transform: translate(7,6);
        cx: 26;
        cy: 25;
        width: 100%;
        height: 100%;
        r: 19;
        fill: #aeff01;
      }
      100% {
        transform: translate(7,6);
        r: 2;
        fill: #afff0100;
      }
    }
</style>
<mask id="mask0_547_350" style='mask-type:alpha' maskUnits="userSpaceOnUse" x="7" y="6" width="32" height="32">
<circle cx="8" cy="7" r="2" fill="#afff0100"/>
</mask>
<g mask="url(#mask0_547_350)">
<path d="M29.0358 36.5186C28.1539 36.5186 27.1916 36.3622 26.1741 36.0464C23.8182 35.3157 21.4225 33.8134 19.4294 31.8154L13.2301 25.6008C11.2371 23.6029 9.73443 21.1982 8.9994 18.8303C8.23379 16.3663 8.38671 14.213 9.42757 12.7679C10.2584 11.6141 11.126 10.5666 11.8692 9.81544C13.0069 8.66674 13.5339 8.51855 13.8663 8.51855H13.8673C14.1415 8.51855 14.3882 8.64119 14.5432 8.85683L18.3447 14.1036C18.9105 14.8854 18.1928 16.2191 17.2855 17.1287C16.9573 17.4577 16.7126 17.842 16.6127 18.1833C16.5383 18.4399 16.5719 18.5819 16.6005 18.6095L26.374 28.4072C26.5442 28.4225 27.1141 28.2314 27.738 27.607C28.6759 26.6667 29.9492 25.9575 30.6801 26.492L36.2066 30.5318C36.4044 30.6759 36.5175 30.9038 36.5186 31.1573C36.5196 31.4843 36.3616 31.9718 35.1892 33.1103C34.4246 33.8522 33.3623 34.7332 32.2001 35.5906C31.3611 36.2058 30.2795 36.5186 29.0358 36.5186ZM13.7317 9.82361C13.2485 10.12 12.0598 11.2074 10.4185 13.4853C9.61923 14.5942 9.52748 16.4092 10.1667 18.4654C10.8446 20.6473 12.2392 22.8742 14.0946 24.7342L20.2939 30.9488C22.1493 32.8088 24.3656 34.2028 26.535 34.8752C28.578 35.5089 30.3784 35.4087 31.4743 34.6003C33.5458 33.0735 34.7957 31.8481 35.182 31.3004L30.0267 27.5324C29.8126 27.561 29.2295 27.843 28.6015 28.4736C28.1376 28.9386 27.6085 29.2983 27.1141 29.4853C26.2323 29.8185 25.748 29.515 25.538 29.3045L15.7339 19.4761C15.3526 19.0939 15.2446 18.4971 15.4373 17.8379C15.5953 17.2973 15.9439 16.7362 16.419 16.26C17.0878 15.5896 17.3243 14.9692 17.3232 14.7812L13.7317 9.82361Z" fill="#AEFF01"/>
<path d="M13.7317 9.82361C13.2485 10.12 12.0598 11.2074 10.4185 13.4853C9.61923 14.5942 9.52748 16.4092 10.1667 18.4654C10.8446 20.6473 12.2392 22.8742 14.0946 24.7342L20.2939 30.9488C22.1493 32.8088 24.3656 34.2028 26.535 34.8752C28.578 35.5089 30.3784 35.4087 31.4743 34.6003C33.5458 33.0735 34.7957 31.8481 35.182 31.3004L30.0267 27.5324C29.8126 27.561 29.2295 27.843 28.6015 28.4736C28.1376 28.9386 27.6085 29.2983 27.1141 29.4853C26.2323 29.8185 25.748 29.515 25.538 29.3045L15.7339 19.4761C15.3526 19.0939 15.2446 18.4971 15.4373 17.8379C15.5953 17.2973 15.9439 16.7362 16.419 16.26C17.0878 15.5896 17.3243 14.9692 17.3232 14.7812L13.7317 9.82361Z" fill="#AEFF01"/>
</g>
<path d="M29.0358 36.5186C28.1539 36.5186 27.1916 36.3622 26.1742 36.0464C23.8182 35.3157 21.4225 33.8134 19.4294 31.8154L13.2301 25.6008C11.2371 23.6029 9.73443 21.1982 8.9994 18.8303C8.23379 16.3663 8.38671 14.213 9.42757 12.7679C10.2584 11.6141 11.126 10.5666 11.8692 9.81544C13.0069 8.66674 13.5339 8.51855 13.8663 8.51855H13.8673C14.1415 8.51855 14.3882 8.64119 14.5432 8.85683L18.3447 14.1036C18.9105 14.8854 18.1928 16.2191 17.2855 17.1287C16.9573 17.4577 16.7126 17.842 16.6127 18.1833C16.5383 18.4399 16.5719 18.5819 16.6005 18.6095L26.374 28.4072C26.5442 28.4225 27.1141 28.2314 27.738 27.607C28.6759 26.6667 29.9492 25.9575 30.6801 26.492L36.2066 30.5318C36.4044 30.6759 36.5175 30.9038 36.5186 31.1573C36.5196 31.4843 36.3616 31.9718 35.1892 33.1103C34.4246 33.8522 33.3623 34.7332 32.2001 35.5906C31.3611 36.2058 30.2795 36.5186 29.0358 36.5186ZM13.7317 9.82361C13.2485 10.12 12.0598 11.2074 10.4185 13.4853C9.61923 14.5942 9.52748 16.4092 10.1667 18.4654C10.8446 20.6473 12.2392 22.8742 14.0946 24.7342L20.2939 30.9488C22.1493 32.8088 24.3656 34.2028 26.535 34.8752C28.578 35.5089 30.3784 35.4087 31.4743 34.6003C33.5458 33.0735 34.7957 31.8481 35.182 31.3004L30.0267 27.5324C29.8126 27.561 29.2295 27.843 28.6015 28.4736C28.1376 28.9386 27.6085 29.2983 27.1141 29.4853C26.2323 29.8185 25.748 29.515 25.538 29.3045L15.7339 19.4761C15.3526 19.0939 15.2446 18.4971 15.4373 17.8379C15.5953 17.2973 15.9439 16.7362 16.419 16.26C17.0878 15.5896 17.3243 14.9692 17.3232 14.7812L13.7317 9.82361ZM17.3538 14.8231H17.3549H17.3538ZM13.5523 9.5763C13.5523 9.5763 13.5533 9.57732 13.5523 9.5763V9.5763Z" fill="#AEFF01"/>
</svg>
