<svg width="41" height="41" viewBox="0 0 41 41" fill="none" xmlns="http://www.w3.org/2000/svg">
<path d="M29.875 1.75H11.125C5.94733 1.75 1.75 5.94733 1.75 11.125V29.875C1.75 35.0527 5.94733 39.25 11.125 39.25H29.875C35.0527 39.25 39.25 35.0527 39.25 29.875V11.125C39.25 5.94733 35.0527 1.75 29.875 1.75Z" stroke="#AEFF01" stroke-width="2" stroke-linecap="round" stroke-linejoin="round"/>
<path d="M27.9999 19.3188C28.2313 20.8793 27.9648 22.473 27.2382 23.8732C26.5117 25.2735 25.3621 26.409 23.953 27.1182C22.5439 27.8275 20.947 28.0743 19.3895 27.8237C17.832 27.5731 16.3932 26.8377 15.2778 25.7223C14.1623 24.6068 13.4269 23.168 13.1763 21.6105C12.9257 20.053 13.1726 18.4561 13.8818 17.047C14.591 15.6379 15.7265 14.4883 17.1268 13.7618C18.527 13.0352 20.1207 12.7687 21.6812 13.0001C23.2729 13.2361 24.7465 13.9778 25.8844 15.1157C27.0222 16.2535 27.7639 17.7271 27.9999 19.3188Z" stroke="#AEFF01" stroke-width="2" stroke-linecap="round" stroke-linejoin="round"/>
<path d="M30.8125 10.1875H30.83" stroke="#AEFF01" stroke-width="2" stroke-linecap="round" stroke-linejoin="round"/>
</svg>
