<svg width="40" height="40" viewBox="0 0 40 40" fill="none" xmlns="http://www.w3.org/2000/svg">
<path d="M1 19.2C1 14.6462 1.00212 11.3315 1.34255 8.79944C1.67912 6.29611 2.32976 4.708 3.51888 3.51888C4.708 2.32976 6.29611 1.67912 8.79944 1.34255C11.3315 1.00212 14.6462 1 19.2 1L20.8 1C25.3538 1 28.6685 1.00212 31.2006 1.34255C33.7039 1.67912 35.292 2.32976 36.4811 3.51888C37.6702 4.708 38.3209 6.29611 38.6574 8.79944C38.9979 11.3315 39 14.6462 39 19.2V20.8C39 25.3538 38.9979 28.6685 38.6574 31.2006C38.3209 33.7039 37.6702 35.292 36.4811 36.4811C35.292 37.6702 33.7039 38.3209 31.2006 38.6574C28.6685 38.9979 25.3538 39 20.8 39H19.2C14.6462 39 11.3315 38.9979 8.79944 38.6574C6.29611 38.3209 4.708 37.6702 3.51888 36.4811C2.32976 35.292 1.67912 33.7039 1.34255 31.2006C1.00212 28.6685 1 25.3538 1 20.8V19.2Z" stroke="#AEFF01" stroke-width="2"/>
<path d="M17.9999 23.7001V12.6667H21.3V18.7501V19.3067L21.8535 19.2472C23.33 19.0883 24.7823 18.1813 25.9666 16.9339C27.0738 15.7679 27.9874 14.2636 28.5039 12.6667H31.8192C30.9643 16.2548 28.2705 18.9137 26.3329 20.0338L25.504 20.5131L26.371 20.9194C28.3121 21.8294 31.3913 24.1574 32.7605 28.3167H29.0577C27.9213 25.164 25.3083 22.7133 21.8496 22.3692L21.3 22.3145V22.8667V28.3167H21.2833C16.8475 28.3167 13.4156 26.8013 11.0579 24.0653C8.76945 21.4096 7.447 17.5498 7.26471 12.6667H10.8309C11.116 20.0952 14.4809 23.4607 17.3787 24.1851L17.9999 24.3404V23.7001Z" fill="#AEFF01" stroke="#AEFF01"/>
</svg>
