<svg id='lk_icon' width="38" height="40" viewBox="0 0 38 40" fill="none" xmlns="http://www.w3.org/2000/svg">
<style type='text/css'>
#lk_icon{
      cursor: pointer;
}
#lk_icon circle{
        animation: lk_bg_out 0.1s ease-in 1 forwards;
}
#lk_icon:hover circle{

        animation: lk_bg_fill 0.2s ease-in 1 forwards;
}
#lk_icon:hover #bottom_line{
        animation: bottom_line_fill 0.1s 0.1s ease-in 1 forwards;
}
@keyframes lk_bg_fill {
      0% {
        transform: translate(19,4);
        r: 1;
        fill: #afff0100;
      }
      100% {
        cx: 20;
        cy: 23;
        width: 100%;
        height: 100%;
        r: 19;
        fill: #aeff01;
      }
    }

    @keyframes lk_bg_out {
      0% {
        transform: translate(0, 0);
        cx: 20;
        cy: 23;
        width: 100%;
        height: 100%;
        r: 19;
        fill: #aeff01;
      }
      100% {
        transform: translate(19,4);
        r: 1;
        fill: #afff0100;
      }
    }
    @keyframes bottom_line_fill{
        0%{
        fill: #afff0100;
        }
        100%{
        fill: #aeff01;
        }
    }
</style>
<path fill-rule="evenodd" clip-rule="evenodd" d="M5 32.3637C5.26462 32.6976 5.9016 33.4752 6.33255 33.9145L6.34434 33.6947V33.6703C6.34434 28.8591 10.1297 24.9394 14.7759 24.9394H25.2358C29.8821 24.9394 33.6675 28.8469 33.6675 33.6703L33.6557 34C34.238 33.4236 34.7945 32.7016 35 32.4126C34.3986 27.3816 30.2476 23.4618 25.2241 23.4618H14.7641C9.76415 23.4618 5.61321 27.345 5 32.3637ZM27.3231 13.5831C27.3231 17.7593 24.0448 21.1662 20 21.1662C15.9552 21.1662 12.6769 17.7593 12.6769 13.5831C12.6769 9.40689 15.9552 6 20 6C22.1698 6 24.2217 6.9891 25.6132 8.71086C26.7099 10.0663 27.3231 11.8003 27.3231 13.5831ZM24.5283 9.6389C23.3962 8.24684 21.7453 7.45312 20 7.45312C16.7453 7.45312 14.092 10.2006 14.092 13.5709C14.092 16.9411 16.7453 19.6886 20 19.6886C23.2547 19.6886 25.908 16.9411 25.908 13.5709C25.908 12.13 25.4245 10.7379 24.5283 9.6389Z" fill="#AEFF01"/>
<path id='bottom_line' d="M35 32.4126C34.7945 32.7016 34.238 33.4236 33.6557 34L6.33255 33.9145C5.9016 33.4752 5.26462 32.6976 5 32.3637C5 33.2425 5.4 35 7 35H33C33.6667 35.1084 35 34.7426 35 32.4126Z" fill="#afff0100"/>
<mask id="mask0_547_331" style="mask-type:alpha" maskUnits="userSpaceOnUse" x="1" y="4" width="38" height="38">
<circle cx="19" cy="4" r="1" fill="#afff0100"/>
</mask>
<g mask="url(#mask0_547_331)">
<path fill-rule="evenodd" clip-rule="evenodd" d="M5 32.3637C5.26462 32.6976 5.9016 33.4752 6.33255 33.9145L6.34434 33.6947V33.6703C6.34434 28.8591 10.1297 24.9394 14.7759 24.9394H25.2358C29.8821 24.9394 33.6675 28.8469 33.6675 33.6703L33.6557 34C34.238 33.4236 34.7945 32.7016 35 32.4126C34.3986 27.3816 30.2476 23.4618 25.2241 23.4618H14.7641C9.76415 23.4618 5.61321 27.345 5 32.3637ZM27.3231 13.5831C27.3231 17.7593 24.0448 21.1662 20 21.1662C15.9552 21.1662 12.6769 17.7593 12.6769 13.5831C12.6769 9.40689 15.9552 6 20 6C22.1698 6 24.2217 6.9891 25.6132 8.71086C26.7099 10.0663 27.3231 11.8003 27.3231 13.5831ZM24.5283 9.6389C23.3962 8.24684 21.7453 7.45312 20 7.45312C16.7453 7.45312 14.092 10.2006 14.092 13.5709C14.092 16.9411 16.7453 19.6886 20 19.6886C23.2547 19.6886 25.908 16.9411 25.908 13.5709C25.908 12.13 25.4245 10.7379 24.5283 9.6389Z" fill="#AEFF01"/>
<path d="M20 7.45312C21.7453 7.45312 23.3962 8.24684 24.5283 9.6389C25.4245 10.7379 25.908 12.13 25.908 13.5709C25.908 16.9411 23.2547 19.6886 20 19.6886C16.7453 19.6886 14.092 16.9411 14.092 13.5709C14.092 10.2006 16.7453 7.45312 20 7.45312Z" fill="#AEFF01"/>
<path d="M6.34434 33.6947L6.33255 33.9145L33.6557 34L33.6675 33.6703C33.6675 28.8469 29.8821 24.9394 25.2358 24.9394H14.7759C10.1297 24.9394 6.34434 28.8591 6.34434 33.6703V33.6947Z" fill="#AEFF01"/>
<path d="M35 32.4126C34.7945 32.7016 34.238 33.4236 33.6557 34L6.33255 33.9145C5.9016 33.4752 5.26462 32.6976 5 32.3637C5 33.2425 5.4 35 7 35H33C33.6667 35.1084 35 34.7426 35 32.4126Z" fill="#AEFF01"/>
</g>
</svg>
