<svg width="46" height="46" viewBox="0 0 46 46" fill="none" xmlns="http://www.w3.org/2000/svg">
<path d="M29.0367 36.5186C28.1549 36.5186 27.1925 36.3622 26.1751 36.0464C23.8192 35.3157 21.4234 33.8134 19.4304 31.8154L13.2311 25.6008C11.2381 23.6029 9.73541 21.1982 9.00038 18.8303C8.23477 16.3663 8.38769 14.213 9.42855 12.7679C10.2594 11.6141 11.127 10.5666 11.8701 9.81544C13.0079 8.66674 13.5349 8.51855 13.8673 8.51855H13.8683C14.1425 8.51855 14.3892 8.64119 14.5442 8.85683L18.3457 14.1036C18.9115 14.8854 18.1938 16.2191 17.2865 17.1287C16.9582 17.4577 16.7136 17.842 16.6137 18.1833C16.5392 18.4399 16.5729 18.5819 16.6014 18.6095L26.3749 28.4072C26.5452 28.4225 27.1151 28.2314 27.739 27.607C28.6769 26.6667 29.9502 25.9575 30.6811 26.492L36.2076 30.5318C36.4053 30.6759 36.5185 30.9038 36.5195 31.1573C36.5205 31.4843 36.3625 31.9718 35.1902 33.1103C34.4256 33.8522 33.3633 34.7332 32.2011 35.5906C31.3621 36.2058 30.2805 36.5186 29.0367 36.5186ZM13.7327 9.82361C13.2495 10.12 12.0608 11.2074 10.4195 13.4853C9.62021 14.5942 9.52846 16.4092 10.1677 18.4654C10.8456 20.6473 12.2402 22.8742 14.0956 24.7342L20.2949 30.9488C22.1503 32.8088 24.3666 34.2028 26.536 34.8752C28.579 35.5089 30.3794 35.4087 31.4753 34.6003C33.5468 33.0735 34.7967 31.8481 35.183 31.3004L30.0276 27.5324C29.8136 27.561 29.2304 27.843 28.6024 28.4736C28.1386 28.9386 27.6095 29.2983 27.1151 29.4853C26.2332 29.8185 25.749 29.515 25.539 29.3045L15.7349 19.4761C15.3536 19.0939 15.2456 18.4971 15.4382 17.8379C15.5962 17.2973 15.9449 16.7362 16.42 16.26C17.0887 15.5896 17.3252 14.9692 17.3242 14.7812L13.7327 9.82361ZM17.3548 14.8231H17.3558H17.3548ZM13.5533 9.5763C13.5533 9.5763 13.5543 9.57732 13.5533 9.5763V9.5763Z" fill="#AEFF01"/>
</svg>
