<svg width="103" height="103" viewBox="0 0 103 103" fill="none" xmlns="http://www.w3.org/2000/svg">
<g opacity="0.6" clip-path="url(#clip0_456_544)">
<path d="M51.4999 58.3535C50.149 58.3535 48.8285 57.9529 47.7053 57.2024C46.5821 56.4519 45.7066 55.3852 45.1897 54.1372C44.6727 52.8891 44.5375 51.5158 44.801 50.1909C45.0646 48.866 45.7151 47.649 46.6703 46.6938C47.6255 45.7386 48.8425 45.0881 50.1674 44.8245C51.4923 44.561 52.8656 44.6962 54.1136 45.2132C55.3617 45.7302 56.4284 46.6056 57.1789 47.7288C57.9294 48.852 58.33 50.1725 58.33 51.5234C58.3279 53.3342 57.6077 55.0703 56.3272 56.3507C55.0468 57.6312 53.3107 58.3514 51.4999 58.3535ZM51.4999 58.3535C52.8569 58.3535 54.1835 57.9511 55.3119 57.1971C56.4403 56.4432 57.3197 55.3716 57.839 54.1178C58.3584 52.8641 58.4942 51.4845 58.2295 50.1535C57.9647 48.8225 57.3112 47.5999 56.3517 46.6403C55.3921 45.6807 54.1695 45.0272 52.8385 44.7625C51.5075 44.4977 50.1279 44.6336 48.8741 45.1529C47.6204 45.6723 46.5487 46.5517 45.7948 47.6801C45.0409 48.8084 44.6384 50.135 44.6384 51.4921C44.6384 53.3118 45.3613 55.0571 46.6481 56.3438C47.9349 57.6306 49.6801 58.3535 51.4999 58.3535Z" fill="#01D1FF"/>
<path d="M51.4999 58.3535C50.149 58.3535 48.8285 57.9529 47.7053 57.2024C46.5821 56.4519 45.7066 55.3852 45.1897 54.1372C44.6727 52.8891 44.5375 51.5158 44.801 50.1909C45.0646 48.866 45.7151 47.649 46.6703 46.6938C47.6255 45.7386 48.8425 45.0881 50.1674 44.8245C51.4923 44.561 52.8656 44.6962 54.1136 45.2132C55.3617 45.7302 56.4284 46.6056 57.1789 47.7288C57.9294 48.852 58.33 50.1725 58.33 51.5234C58.3279 53.3342 57.6077 55.0703 56.3272 56.3507C55.0468 57.6312 53.3107 58.3514 51.4999 58.3535M51.4999 58.3535C52.8569 58.3535 54.1835 57.9511 55.3119 57.1971C56.4403 56.4432 57.3197 55.3716 57.839 54.1178C58.3584 52.8641 58.4942 51.4845 58.2295 50.1535C57.9647 48.8225 57.3112 47.5999 56.3517 46.6403C55.3921 45.6807 54.1695 45.0272 52.8385 44.7625C51.5075 44.4977 50.1279 44.6336 48.8741 45.1529C47.6204 45.6723 46.5487 46.5517 45.7948 47.6801C45.0409 48.8084 44.6384 50.135 44.6384 51.4921C44.6384 53.3118 45.3613 55.0571 46.6481 56.3438C47.9349 57.6306 49.6801 58.3535 51.4999 58.3535V58.3535Z" stroke="#01D1FF" stroke-width="0.13" stroke-miterlimit="10"/>
<path d="M51.4995 60.0375C49.8109 60.0375 48.1602 59.5368 46.7562 58.5987C45.3522 57.6605 44.2579 56.3271 43.6117 54.7671C42.9655 53.207 42.7964 51.4904 43.1259 49.8343C43.4553 48.1781 44.2684 46.6569 45.4624 45.4628C46.6565 44.2688 48.1777 43.4557 49.8339 43.1263C51.49 42.7968 53.2066 42.9659 54.7667 43.6121C56.3267 44.2583 57.6601 45.3526 58.5983 46.7566C59.5364 48.1606 60.0371 49.8113 60.0371 51.4999C60.033 53.7629 59.1321 55.9321 57.5319 57.5323C55.9317 59.1325 53.7625 60.0334 51.4995 60.0375ZM51.4995 60.0375C53.1941 60.0298 54.8485 59.5202 56.2538 58.5731C57.6591 57.6259 58.7523 56.2837 59.3954 54.7159C60.0386 53.148 60.2028 51.4247 59.8675 49.7636C59.5322 48.1024 58.7122 46.5779 57.5112 45.3823C56.3102 44.1867 54.7819 43.3737 53.1192 43.046C51.4565 42.7182 49.734 42.8903 48.1691 43.5406C46.6042 44.1909 45.267 45.2902 44.3263 46.6998C43.3856 48.1094 42.8835 49.766 42.8835 51.4607C42.8835 52.5903 43.1066 53.7088 43.5401 54.752C43.9736 55.7951 44.6088 56.7424 45.4094 57.5393C46.21 58.3363 47.1601 58.9672 48.2052 59.3959C49.2504 59.8246 50.3699 60.0427 51.4995 60.0375Z" fill="#01D1FF"/>
<path d="M51.4995 60.0375C49.8109 60.0375 48.1602 59.5368 46.7562 58.5987C45.3522 57.6605 44.2579 56.3271 43.6117 54.7671C42.9655 53.207 42.7964 51.4904 43.1259 49.8343C43.4553 48.1781 44.2684 46.6569 45.4624 45.4629C46.6565 44.2688 48.1777 43.4557 49.8339 43.1263C51.49 42.7968 53.2066 42.9659 54.7667 43.6121C56.3267 44.2583 57.6601 45.3526 58.5983 46.7566C59.5364 48.1606 60.0371 49.8113 60.0371 51.4999C60.033 53.7629 59.1321 55.9321 57.5319 57.5323C55.9317 59.1325 53.7625 60.0334 51.4995 60.0375ZM51.4995 60.0375C53.1941 60.0298 54.8485 59.5202 56.2538 58.5731C57.6591 57.6259 58.7523 56.2837 59.3954 54.7159C60.0386 53.148 60.2028 51.4247 59.8675 49.7636C59.5322 48.1024 58.7122 46.5779 57.5112 45.3823C56.3102 44.1867 54.7819 43.3737 53.1192 43.046C51.4565 42.7182 49.734 42.8903 48.1691 43.5406C46.6042 44.1909 45.267 45.2902 44.3263 46.6998C43.3856 48.1094 42.8835 49.766 42.8835 51.4607C42.8835 52.5903 43.1066 53.7088 43.5401 54.752C43.9736 55.7951 44.6088 56.7424 45.4094 57.5393C46.21 58.3363 47.1601 58.9672 48.2052 59.3959C49.2504 59.8246 50.3699 60.0427 51.4995 60.0375V60.0375Z" stroke="#01D1FF" stroke-width="0.17" stroke-miterlimit="10"/>
<path d="M51.4997 62.1762C49.3882 62.1762 47.3241 61.55 45.5685 60.3769C43.8128 59.2039 42.4444 57.5365 41.6364 55.5857C40.8284 53.6349 40.6169 51.4884 41.0289 49.4174C41.4408 47.3465 42.4576 45.4442 43.9507 43.9512C45.4437 42.4581 47.346 41.4413 49.4169 41.0294C51.4879 40.6174 53.6344 40.8289 55.5852 41.6369C57.536 42.4449 59.2034 43.8133 60.3765 45.569C61.5495 47.3246 62.1757 49.3887 62.1757 51.5002C62.1736 54.331 61.0482 57.0453 59.0465 59.047C57.0448 61.0486 54.3305 62.1741 51.4997 62.1762ZM51.4997 62.2153C53.619 62.2153 55.6906 61.5869 57.4527 60.4095C59.2148 59.2321 60.5882 57.5586 61.3992 55.6007C62.2102 53.6428 62.4224 51.4883 62.0089 49.4098C61.5955 47.3312 60.575 45.422 59.0764 43.9235C57.5779 42.4249 55.6687 41.4044 53.5901 40.991C51.5116 40.5775 49.3571 40.7897 47.3992 41.6007C45.4413 42.4117 43.7678 43.7851 42.5904 45.5472C41.413 47.3093 40.7846 49.381 40.7846 51.5002C40.7835 52.9076 41.06 54.3014 41.5981 55.6019C42.1362 56.9024 42.9255 58.084 43.9207 59.0792C44.9159 60.0744 46.0975 60.8637 47.398 61.4018C48.6985 61.9399 50.0923 62.2164 51.4997 62.2153Z" fill="#01D1FF"/>
<path d="M51.4997 62.1762C49.3882 62.1762 47.3241 61.55 45.5685 60.3769C43.8128 59.2039 42.4444 57.5365 41.6364 55.5857C40.8284 53.6349 40.6169 51.4884 41.0289 49.4174C41.4408 47.3465 42.4576 45.4442 43.9507 43.9512C45.4437 42.4581 47.346 41.4413 49.4169 41.0294C51.4879 40.6174 53.6344 40.8289 55.5852 41.6369C57.536 42.4449 59.2034 43.8133 60.3765 45.569C61.5495 47.3246 62.1757 49.3887 62.1757 51.5002C62.1736 54.331 61.0482 57.0453 59.0465 59.047C57.0448 61.0486 54.3305 62.1741 51.4997 62.1762M51.4997 62.2153C53.619 62.2153 55.6906 61.5869 57.4527 60.4095C59.2148 59.2321 60.5882 57.5586 61.3992 55.6007C62.2102 53.6428 62.4224 51.4883 62.0089 49.4098C61.5955 47.3312 60.575 45.422 59.0764 43.9235C57.5779 42.4249 55.6687 41.4044 53.5901 40.991C51.5116 40.5775 49.3571 40.7897 47.3992 41.6007C45.4413 42.4117 43.7678 43.7851 42.5904 45.5472C41.413 47.3093 40.7846 49.381 40.7846 51.5002C40.7835 52.9076 41.06 54.3014 41.5981 55.6019C42.1362 56.9024 42.9255 58.084 43.9207 59.0792C44.9159 60.0744 46.0975 60.8637 47.398 61.4018C48.6985 61.9399 50.0923 62.2164 51.4997 62.2153V62.2153Z" stroke="#01D1FF" stroke-width="0.21" stroke-miterlimit="10"/>
<path d="M51.5006 64.847C48.8671 64.847 46.2926 64.0661 44.1029 62.603C41.9131 61.1398 40.2065 59.0602 39.1986 56.6271C38.1908 54.194 37.9271 51.5167 38.4409 48.9337C38.9547 46.3507 40.2229 43.9781 42.0851 42.1159C43.9473 40.2537 46.3199 38.9855 48.9029 38.4717C51.4858 37.9579 54.1632 38.2216 56.5963 39.2294C59.0294 40.2373 61.109 41.944 62.5721 44.1337C64.0353 46.3234 64.8162 48.8979 64.8162 51.5314C64.8059 55.0598 63.3997 58.4407 60.9048 60.9356C58.4098 63.4305 55.029 64.8367 51.5006 64.847ZM51.5006 64.894C54.1494 64.8925 56.7382 64.1056 58.9398 62.6329C61.1413 61.1603 62.8569 59.0679 63.8694 56.6203C64.882 54.1728 65.1461 51.4799 64.6284 48.8823C64.1107 46.2846 62.8344 43.8988 60.961 42.0264C59.0875 40.154 56.7009 38.8792 54.1029 38.363C51.505 37.8468 48.8123 38.1125 46.3654 39.1265C43.9184 40.1405 41.827 41.8572 40.3556 44.0597C38.8842 46.2621 38.0989 48.8514 38.0989 51.5001C38.0978 53.26 38.4439 55.0028 39.1171 56.6288C39.7903 58.2548 40.7776 59.7321 42.0223 60.9761C43.2671 62.2202 44.745 63.2065 46.3714 63.8788C47.9978 64.5511 49.7408 64.8961 51.5006 64.894Z" fill="#01D1FF"/>
<path d="M51.5006 64.847C48.8671 64.847 46.2926 64.0661 44.1029 62.603C41.9131 61.1398 40.2065 59.0602 39.1986 56.6271C38.1908 54.194 37.9271 51.5167 38.4409 48.9337C38.9547 46.3507 40.2229 43.9781 42.0851 42.1159C43.9473 40.2537 46.3199 38.9855 48.9029 38.4717C51.4858 37.9579 54.1632 38.2216 56.5963 39.2294C59.0294 40.2373 61.109 41.944 62.5721 44.1337C64.0353 46.3234 64.8162 48.8979 64.8162 51.5314C64.8059 55.0598 63.3997 58.4407 60.9048 60.9356C58.4098 63.4305 55.029 64.8367 51.5006 64.847M51.5006 64.894C54.1494 64.8925 56.7382 64.1056 58.9398 62.6329C61.1413 61.1603 62.8569 59.0679 63.8694 56.6203C64.882 54.1728 65.1461 51.4799 64.6284 48.8823C64.1107 46.2846 62.8344 43.8988 60.961 42.0264C59.0875 40.154 56.7009 38.8792 54.1029 38.363C51.505 37.8468 48.8123 38.1125 46.3654 39.1265C43.9184 40.1405 41.827 41.8572 40.3556 44.0597C38.8842 46.2621 38.0989 48.8514 38.0989 51.5001C38.0978 53.26 38.4439 55.0028 39.1171 56.6288C39.7903 58.2548 40.7776 59.7321 42.0223 60.9761C43.2671 62.2202 44.745 63.2065 46.3714 63.8788C47.9978 64.5511 49.7408 64.8961 51.5006 64.894V64.894Z" stroke="#01D1FF" stroke-width="0.26" stroke-miterlimit="10"/>
<path d="M51.4998 68.1834C48.2001 68.1834 44.9745 67.2049 42.2308 65.3717C39.4872 63.5385 37.3488 60.9329 36.0861 57.8843C34.8234 54.8358 34.493 51.4813 35.1367 48.245C35.7804 45.0087 37.3694 42.0359 39.7027 39.7027C42.0359 37.3694 45.0086 35.7804 48.245 35.1367C51.4813 34.493 54.8358 34.8234 57.8843 36.0861C60.9329 37.3488 63.5385 39.4872 65.3717 42.2308C67.2049 44.9745 68.1834 48.2001 68.1834 51.4998C68.1772 55.9227 66.4175 60.1626 63.29 63.29C60.1626 66.4175 55.9227 68.1772 51.4998 68.1834M51.4998 68.2461C54.8119 68.2461 58.0496 67.2639 60.8035 65.4238C63.5574 63.5837 65.7039 60.9683 66.9713 57.9083C68.2388 54.8483 68.5705 51.4812 67.9243 48.2327C67.2781 44.9843 65.6832 42.0004 63.3412 39.6583C60.9992 37.3163 58.0153 35.7214 54.7668 35.0752C51.5184 34.4291 48.1512 34.7607 45.0912 36.0282C42.0313 37.2957 39.4158 39.4421 37.5757 42.196C35.7356 44.9499 34.7535 48.1877 34.7535 51.4998C34.7535 55.9412 36.5178 60.2007 39.6583 63.3412C42.7989 66.4818 47.0584 68.2461 51.4998 68.2461V68.2461Z" stroke="#01D1FF" stroke-width="0.33" stroke-miterlimit="10"/>
<path d="M51.5007 72.3508C47.3768 72.3508 43.3456 71.128 39.9167 68.8369C36.4878 66.5458 33.8153 63.2893 32.2372 59.4794C30.6591 55.6694 30.2461 51.477 31.0507 47.4324C31.8552 43.3878 33.841 39.6726 36.757 36.7565C39.6731 33.8405 43.3883 31.8547 47.4329 31.0502C51.4775 30.2456 55.6699 30.6585 59.4799 32.2367C63.2898 33.8148 66.5463 36.4873 68.8374 39.9162C71.1285 43.345 72.3513 47.3763 72.3513 51.5002C72.3451 57.0282 70.1463 62.328 66.2374 66.2369C62.3285 70.1458 57.0287 72.3446 51.5007 72.3508ZM51.5007 72.437C55.6416 72.437 59.6895 71.2091 63.1325 68.9085C66.5756 66.6079 69.2591 63.338 70.8438 59.5123C72.4284 55.6866 72.843 51.4769 72.0352 47.4156C71.2273 43.3543 69.2333 39.6237 66.3052 36.6956C63.3772 33.7675 59.6466 31.7735 55.5852 30.9657C51.5239 30.1578 47.3142 30.5724 43.4885 32.1571C39.6628 33.7417 36.3929 36.4253 34.0924 39.8683C31.7918 43.3113 30.5639 47.3593 30.5639 51.5002C30.5618 54.2509 31.1018 56.9752 32.1531 59.5172C33.2043 62.0591 34.7462 64.369 36.6906 66.3149C38.6349 68.2607 40.9437 69.8043 43.4849 70.8574C46.0261 71.9106 48.7499 72.4526 51.5007 72.4526L51.5007 72.437Z" fill="#01D1FF"/>
<path d="M51.5007 72.3508C47.3768 72.3508 43.3456 71.128 39.9167 68.8369C36.4878 66.5458 33.8153 63.2893 32.2372 59.4794C30.6591 55.6694 30.2461 51.477 31.0507 47.4324C31.8552 43.3878 33.841 39.6726 36.757 36.7565C39.6731 33.8405 43.3883 31.8547 47.4329 31.0502C51.4775 30.2456 55.6699 30.6585 59.4799 32.2367C63.2898 33.8148 66.5463 36.4873 68.8374 39.9162C71.1285 43.345 72.3513 47.3763 72.3513 51.5002C72.3451 57.0282 70.1463 62.328 66.2374 66.2369C62.3285 70.1458 57.0287 72.3446 51.5007 72.3508ZM51.5007 72.437C55.6416 72.437 59.6895 71.2091 63.1325 68.9085C66.5756 66.6079 69.2591 63.338 70.8438 59.5123C72.4284 55.6866 72.843 51.4769 72.0352 47.4156C71.2273 43.3543 69.2333 39.6237 66.3052 36.6956C63.3772 33.7675 59.6466 31.7735 55.5852 30.9657C51.5239 30.1578 47.3142 30.5724 43.4885 32.1571C39.6628 33.7417 36.3929 36.4253 34.0924 39.8683C31.7918 43.3113 30.5639 47.3593 30.5639 51.5002C30.5618 54.2509 31.1018 56.9752 32.1531 59.5172C33.2043 62.0591 34.7462 64.369 36.6906 66.3149C38.6349 68.2607 40.9437 69.8043 43.4849 70.8574C46.0261 71.9106 48.7499 72.4526 51.5007 72.4526L51.5007 72.437Z" stroke="#01D1FF" stroke-width="0.41" stroke-miterlimit="10"/>
<path d="M51.5009 77.5671C46.3452 77.5671 41.3054 76.0383 37.0187 73.174C32.7319 70.3097 29.3908 66.2386 27.4179 61.4754C25.4449 56.7122 24.9287 51.471 25.9345 46.4144C26.9403 41.3579 29.423 36.7131 33.0685 33.0676C36.7141 29.422 41.3588 26.9394 46.4154 25.9335C51.4719 24.9277 56.7132 25.444 61.4763 27.4169C66.2395 29.3899 70.3107 32.731 73.175 37.0177C76.0393 41.3044 77.5681 46.3443 77.5681 51.4999C77.5598 58.4108 74.8108 65.0363 69.924 69.9231C65.0373 74.8098 58.4118 77.5588 51.5009 77.5671M51.5009 77.6689C56.6766 77.6689 61.7361 76.1342 66.0396 73.2587C70.3431 70.3832 73.6972 66.2961 75.6779 61.5143C77.6586 56.7326 78.1768 51.4709 77.1671 46.3946C76.1573 41.3183 73.665 36.6554 70.0052 32.9956C66.3454 29.3358 61.6825 26.8434 56.6062 25.8337C51.5299 24.8239 46.2682 25.3422 41.4864 27.3228C36.7046 29.3035 32.6176 32.6577 29.7421 36.9612C26.8666 41.2646 25.3318 46.3241 25.3318 51.4999C25.3318 58.4404 28.0889 65.0966 32.9965 70.0042C37.9042 74.9119 44.5604 77.6689 51.5009 77.6689V77.6689Z" stroke="#01D1FF" stroke-width="0.51" stroke-miterlimit="10"/>
<path d="M51.4996 84.0841C45.0551 84.0842 38.7553 82.1731 33.3969 78.5928C28.0385 75.0124 23.8621 69.9234 21.3959 63.9695C18.9297 58.0155 18.2844 51.464 19.5417 45.1433C20.7989 38.8226 23.9023 33.0167 28.4592 28.4597C33.0162 23.9028 38.8221 20.7994 45.1428 19.5422C51.4635 18.2849 58.015 18.9302 63.969 21.3964C69.9229 23.8626 75.0119 28.039 78.5922 33.3974C82.1726 38.7558 84.0836 45.0556 84.0836 51.5001C84.0754 60.1394 80.6397 68.4225 74.5308 74.5313C68.422 80.6402 60.1389 84.0759 51.4996 84.0841ZM51.4996 84.2095C57.9689 84.2095 64.2929 82.2911 69.672 78.6969C75.051 75.1028 79.2434 69.9943 81.7191 64.0174C84.1948 58.0406 84.8426 51.4638 83.5805 45.1188C82.3184 38.7738 79.2031 32.9456 74.6286 28.3711C70.0541 23.7966 64.2259 20.6814 57.8809 19.4193C51.5359 18.1572 44.9591 18.8049 38.9823 21.2806C33.0054 23.7563 27.8969 27.9488 24.3028 33.3278C20.7086 38.7068 18.7903 45.0308 18.7903 51.5001C18.7923 60.1738 22.2394 68.4916 28.3734 74.6241C34.5073 80.7566 42.8259 84.2016 51.4996 84.2016L51.4996 84.2095Z" fill="#01D1FF"/>
<path d="M51.4996 84.0841C45.0551 84.0842 38.7553 82.1731 33.3969 78.5928C28.0385 75.0124 23.8621 69.9234 21.3959 63.9695C18.9297 58.0155 18.2844 51.464 19.5417 45.1433C20.7989 38.8226 23.9023 33.0167 28.4592 28.4597C33.0162 23.9028 38.8221 20.7994 45.1428 19.5422C51.4635 18.2849 58.015 18.9302 63.969 21.3964C69.9229 23.8626 75.0119 28.039 78.5922 33.3974C82.1726 38.7558 84.0836 45.0556 84.0836 51.5001C84.0754 60.1394 80.6397 68.4225 74.5308 74.5313C68.422 80.6402 60.1389 84.0759 51.4996 84.0841M51.4996 84.2095C57.9689 84.2095 64.2929 82.2911 69.672 78.6969C75.051 75.1028 79.2434 69.9943 81.7191 64.0174C84.1948 58.0406 84.8426 51.4638 83.5805 45.1188C82.3184 38.7738 79.2031 32.9456 74.6286 28.3711C70.0541 23.7966 64.2259 20.6814 57.8809 19.4193C51.5359 18.1572 44.9591 18.8049 38.9823 21.2806C33.0054 23.7563 27.8969 27.9488 24.3028 33.3278C20.7086 38.7068 18.7903 45.0308 18.7903 51.5001C18.7923 60.1738 22.2394 68.4916 28.3734 74.6241C34.5073 80.7566 42.8259 84.2016 51.4996 84.2016L51.4996 84.2095Z" stroke="#01D1FF" stroke-width="0.64" stroke-miterlimit="10"/>
<path d="M51.5 92.2301C43.4444 92.2301 35.5696 89.8413 28.8716 85.3658C22.1736 80.8904 16.9531 74.5292 13.8704 67.0867C10.7876 59.6443 9.981 51.4549 11.5526 43.554C13.1242 35.6531 17.0033 28.3958 22.6995 22.6996C28.3957 17.0034 35.6531 13.1242 43.554 11.5526C51.4548 9.98103 59.6443 10.7876 67.0867 13.8704C74.5292 16.9531 80.8903 22.1736 85.3658 28.8716C89.8413 35.5697 92.23 43.4444 92.23 51.5C92.2176 62.2985 87.9224 72.6511 80.2868 80.2868C72.6511 87.9224 62.2985 92.2176 51.5 92.2301M51.5 92.3867C59.5866 92.3867 67.4917 89.9888 74.2154 85.4961C80.9392 81.0034 86.1798 74.6178 89.2744 67.1467C92.369 59.6756 93.1787 51.4547 91.6011 43.5234C90.0234 35.5922 86.1294 28.3069 80.4113 22.5888C74.6932 16.8707 67.4078 12.9766 59.4766 11.399C51.5454 9.82135 43.3244 10.631 35.8533 13.7257C28.3823 16.8203 21.9967 22.0608 17.504 28.7846C13.0113 35.5084 10.6133 43.4134 10.6133 51.5C10.6133 62.3439 14.921 72.7436 22.5887 80.4113C30.2565 88.079 40.6562 92.3867 51.5 92.3867V92.3867Z" stroke="#01D1FF" stroke-width="0.8" stroke-miterlimit="10"/>
<path d="M51.499 102.413C41.4295 102.413 31.5861 99.4266 23.2135 93.8323C14.841 88.2379 8.31541 80.2865 4.46196 70.9834C0.608502 61.6804 -0.399731 51.4436 1.56475 41.5675C3.52921 31.6914 8.37816 22.6197 15.4984 15.4994C22.6187 8.37917 31.6904 3.53023 41.5665 1.56576C51.4425 -0.398723 61.6794 0.609516 70.9824 4.46296C80.2855 8.31642 88.2369 14.842 93.8313 23.2145C99.4256 31.5871 102.412 41.4305 102.412 51.5C102.395 64.9978 97.0257 77.938 87.4813 87.4823C77.937 97.0267 64.9968 102.396 51.499 102.413ZM51.499 102.608C61.6073 102.608 71.4886 99.6109 79.8933 93.9951C88.298 88.3792 94.8487 80.3972 98.717 71.0584C102.585 61.7195 103.597 51.4433 101.625 41.5293C99.6533 31.6152 94.7857 22.5086 87.6381 15.361C80.4905 8.21332 71.3838 3.34571 61.4698 1.37368C51.5557 -0.598338 41.2795 0.413778 31.9407 4.28205C22.6019 8.15033 14.6198 14.701 9.00397 23.1057C3.38811 31.5105 0.39065 41.3918 0.390651 51.5C0.390652 65.0548 5.77527 78.0544 15.3599 87.6391C24.9446 97.2238 37.9442 102.608 51.499 102.608Z" fill="#01D1FF"/>
<path d="M51.499 102.413C41.4295 102.413 31.5861 99.4266 23.2135 93.8323C14.841 88.2379 8.31541 80.2865 4.46196 70.9834C0.608505 61.6804 -0.399729 51.4436 1.56474 41.5675C3.52921 31.6914 8.37816 22.6197 15.4984 15.4994C22.6187 8.37917 31.6904 3.53023 41.5665 1.56575C51.4425 -0.39872 61.6794 0.609513 70.9824 4.46296C80.2855 8.31641 88.2369 14.842 93.8313 23.2145C99.4256 31.5871 102.412 41.4305 102.412 51.5C102.395 64.9978 97.0257 77.938 87.4813 87.4823C77.937 97.0267 64.9968 102.396 51.499 102.413M51.499 102.608C61.6073 102.608 71.4886 99.6109 79.8933 93.9951C88.298 88.3792 94.8487 80.3972 98.717 71.0584C102.585 61.7195 103.597 51.4433 101.625 41.5293C99.6533 31.6152 94.7857 22.5086 87.6381 15.361C80.4905 8.21332 71.3838 3.34571 61.4698 1.37369C51.5557 -0.59834 41.2795 0.41378 31.9407 4.28205C22.6019 8.15033 14.6198 14.701 9.00397 23.1057C3.38811 31.5105 0.39065 41.3918 0.390651 51.5C0.390652 65.0548 5.77527 78.0544 15.3599 87.6391C24.9446 97.2238 37.9442 102.608 51.499 102.608V102.608Z" stroke="#01D1FF" stroke-miterlimit="10"/>
<path d="M51.505 29L58.148 42.5L73 44.66L62.2575 55.17L64.791 70L51.505 63L38.219 70L40.7525 55.17L30 44.66L44.862 42.5L51.505 29Z" fill="#09090B"/>
<path d="M51.5 102.217L51.5 51.3043" stroke="#01D1FF" stroke-miterlimit="10"/>
<path d="M3.07825 67.04L51.5 51.3041" stroke="#01D1FF" stroke-miterlimit="10"/>
<path d="M21.5713 10.112L51.5 51.3042" stroke="#01D1FF" stroke-miterlimit="10"/>
<path d="M81.4297 10.112L51.5009 51.3042" stroke="#01D1FF" stroke-miterlimit="10"/>
<path d="M99.9219 67.04L51.5001 51.3042" stroke="#01D1FF" stroke-miterlimit="10"/>
<path d="M51.5 102.217L51.5 51.3043" stroke="#01D1FF" stroke-miterlimit="10"/>
</g>
<defs>
<clipPath id="clip0_456_544">
<rect width="103" height="103" fill="white" transform="translate(103 103) rotate(180)"/>
</clipPath>
</defs>
</svg>
