<svg width="38" height="40" viewBox="0 0 38 40" fill="none" xmlns="http://www.w3.org/2000/svg">
<path d="M35 32.4126C34.3986 27.3816 30.2476 23.4618 25.2241 23.4618H14.7641C9.76415 23.4618 5.61321 27.345 5 32.3637C5.26462 32.6976 5.9016 33.4752 6.33255 33.9145L6.34434 33.6947V33.6703C6.34434 28.8591 10.1297 24.9394 14.7759 24.9394H25.2358C29.8821 24.9394 33.6675 28.8469 33.6675 33.6703L33.6557 34C34.238 33.4236 34.7945 32.7016 35 32.4126Z" fill="#AEFF01"/>
<path fill-rule="evenodd" clip-rule="evenodd" d="M20 21.1662C24.0448 21.1662 27.3231 17.7593 27.3231 13.5831C27.3231 11.8003 26.7099 10.0663 25.6132 8.71086C24.2217 6.9891 22.1698 6 20 6C15.9552 6 12.6769 9.40689 12.6769 13.5831C12.6769 17.7593 15.9552 21.1662 20 21.1662ZM24.5283 9.6389C23.3962 8.24684 21.7453 7.45312 20 7.45312C16.7453 7.45312 14.092 10.2006 14.092 13.5709C14.092 16.9411 16.7453 19.6886 20 19.6886C23.2547 19.6886 25.908 16.9411 25.908 13.5709C25.908 12.13 25.4245 10.7379 24.5283 9.6389Z" fill="#AEFF01"/>
</svg>
