<svg width="20" height="20" viewBox="0 0 20 20" fill="none" xmlns="http://www.w3.org/2000/svg">
<path d="M9.99972 2.26904C8.42902 2.26904 6.91693 2.73742 5.62716 3.62346C4.36762 4.48858 3.40018 5.6923 2.82948 7.10393C2.45739 8.02439 2.26855 8.99881 2.26855 10.0002C2.26855 14.263 5.73693 17.7314 9.99972 17.7314C14.2625 17.7314 17.7309 14.263 17.7309 10.0002C17.7309 5.73742 14.2625 2.26904 9.99972 2.26904ZM9.99972 16.1732C6.04437 16.1732 3.82669 13.9556 3.82669 10.0002C3.82669 9.0709 4.00158 8.16672 4.34716 7.31323C5.73879 4.7774 7.06018 3.82718 9.99972 3.82718C13.9551 3.82718 16.1727 6.04486 16.1727 10.0002C16.1727 13.9556 13.9551 16.1732 9.99972 16.1732ZM14.5 6.50024C14.9425 6.71509 14.6037 7.38583 14.5 7.50024C14.4902 7.51094 14.5102 7.48955 14.5 7.50024C12.493 9.60071 8.4453 13.4123 8.40018 13.4542C8.34669 13.5039 8.27832 13.5286 8.21041 13.5286C8.14018 13.5286 8.06995 13.5021 8.016 13.4495C8.00251 13.4365 6.66297 12.1342 5.3453 10.8216C5.236 10.7128 4.90418 10.0965 5 10.0002C5.5 9.4981 5.89116 9.89187 6 10.0002C7.02279 11.0193 7.79414 11.5947 8.21042 12.0002C9.096 11.1742 11.7811 8.59183 13.5374 6.75416C13.5439 6.74718 13.8005 6.55193 14 6.50024C14.3692 6.4046 14.5 6.50024 14.5 6.50024Z" fill="#AEFF01"/>
</svg>
