 <svg
  width="41"
  height="41"
  viewBox="0 0 45 45"
  fill="none"
  xmlns="http://www.w3.org/2000/svg"
  id="FB_icon"
>
<g id="thefix" onclick="window.top.location.href='https://vk.com/nerpyshka';">
 <a xmlns="http://www.w3.org/2000/svg"  href="https://vk.com/nerpyshka">
    <style type="text/css">
      #FB_icon {
      cursor: pointer;
      }
      #FB_icon circle {
        animation: fb_bg_out 0.1s ease-in 1 forwards;
      }
      #FB_icon:hover circle {
        animation: fb_bg_fill 0.2s ease-in 1 forwards;
      }
      
      @keyframes fb_bg_fill {
        0% {
          transform: translateX(20);
          fill: #afff0100;
        }
        100% {
          transform: translateX(0);
          cx: 22.5;
          cy: 22.5;
          r: 22.5;
          fill: #aeff01;
        }
      }
      
      @keyframes fb_bg_out {
        0% {
          transform: translateX(0);
          cx: 22.5;
          cy: 22.5;
          r: 22.5;
          fill: #aeff01;
        }
        100% {
          transform: translateX(20);
          fill: #afff0100;
        }
      }
    </style>
  
  <path
    d="M44 22.6365C44 33.0334 36.7191 41.7105 27.016 43.7969V30.1795H31.2585H32.1176L32.2471 29.3302L33.2446 22.7872L33.42 21.6365H32.256H27.016V18.3915C27.016 17.6395 27.2005 17.0205 27.5591 16.6027C27.8935 16.2132 28.5027 15.8545 29.6805 15.8545H32.52H33.52V14.8545V9.2835V8.44058L32.6892 8.29792L32.52 9.2835C32.6892 8.29792 32.6891 8.29791 32.6891 8.29789L32.6888 8.29785L32.6881 8.29774L32.6861 8.29739L32.6793 8.29623L32.6546 8.2921C32.6457 8.29062 32.6352 8.28887 32.623 8.28688C32.6061 8.28411 32.5861 8.28085 32.5632 8.27716C32.4842 8.26446 32.3698 8.24654 32.2254 8.22516C31.9369 8.18241 31.5274 8.12565 31.0395 8.06894C30.068 7.95602 28.7666 7.841 27.483 7.841C24.7089 7.841 22.306 8.69086 20.5962 10.4131C18.8861 12.1355 17.984 14.6147 17.984 17.649V21.635H13.272H12.272V22.635V29.181V30.181H13.272H17.984V43.7969C8.2809 41.7105 1 33.0334 1 22.6365C1 10.6806 10.6305 1 22.5 1C34.3695 1 44 10.6806 44 22.6365Z"
    stroke="#AEFF01"
    stroke-width="2"
  />
  <mask
    id="mask0_545_256"
    style= 'masktype:alpha'
    maskUnits="userSpaceOnUse"
    x="0"
    y="0"
    width="45"
    height="45"
  >
    <circle cx="22.5" cy="0" r="3" fill="#afff0100" />
  </mask>
  <g mask="url(#mask0_545_256)">
    <path
      d="M44 22.6365C44 33.0334 36.7191 41.7105 27.016 43.7969V30.1795H31.2585H32.1176L32.2471 29.3302L33.2446 22.7872L33.42 21.6365H32.256H27.016V18.3915C27.016 17.6395 27.2005 17.0205 27.5591 16.6027C27.8935 16.2132 28.5027 15.8545 29.6805 15.8545H32.52H33.52V14.8545V9.2835V8.44058L32.6892 8.29792L32.52 9.2835C32.6892 8.29792 32.6891 8.29791 32.6891 8.29789L32.6888 8.29785L32.6881 8.29774L32.6861 8.29739L32.6793 8.29623L32.6546 8.2921C32.6457 8.29062 32.6352 8.28887 32.623 8.28688C32.6061 8.28411 32.5861 8.28085 32.5632 8.27716C32.4842 8.26446 32.3698 8.24654 32.2254 8.22516C31.9369 8.18241 31.5274 8.12565 31.0395 8.06894C30.068 7.95602 28.7666 7.841 27.483 7.841C24.7089 7.841 22.306 8.69086 20.5962 10.4131C18.8861 12.1355 17.984 14.6147 17.984 17.649V21.635H13.272H12.272V22.635V29.181V30.181H13.272H17.984V43.7969C8.2809 41.7105 1 33.0334 1 22.6365C1 10.6806 10.6305 1 22.5 1C34.3695 1 44 10.6806 44 22.6365Z"
      fill="#AEFF01"
      stroke="#AEFF01"
      stroke-width="2"
    />
  </g>
  </a>
  </g>
</svg>
