<svg
  width="45"
  height="45"
  viewBox="0 0 41 41"
  fill="none"
  xmlns="http://www.w3.org/2000/svg"
  id="IG_icon"
>
<g id="thefix" onclick="window.top.location.href='https://vk.com/nerpyshka';">
 <a xmlns="http://www.w3.org/2000/svg"  href="https://vk.com/nerpyshka">
<style type='text/css'>
    #IG_icon {
      cursor: pointer;
    }
    #IG_icon rect {
      animation: ig_bg_out 0.2s ease-in 1 forwards;
    }
    #IG_icon:hover rect {
      animation: ig_bg_fill 0.2s ease-in 1 forwards;
    }
    #dot {
      animation: ig_mask_out 0.2s ease-in 1 forwards;
    }
    #IG_icon:hover #dot {
      animation: ig_mask_fill 0.2s ease-in 1 forwards;
    }

    @keyframes ig_bg_fill {
      0% {
        transform: translateX(16);
        width: 3;
        height: 3;
        rx: 40;
        fill: #afff0100;
      }
      100% {
        x: 3;
        y: 3;
        width: 100%;
        height: 100%;
        rx: 11;
        fill: #aeff01;
      }
    }

    @keyframes ig_bg_out {
      0% {
        transform: translateX(0);
        x: 3;
        y: 3;
        width: 100%;
        height: 100%;
        rx: 11;
        fill: #aeff01;
      }
      100% {
        transform: translateX(16);
        width: 3;
        height: 3;
        rx: 40;
        fill: #afff0100;
      }
    }
    @keyframes ig_mask_fill {
      0% {
        fill: #aeff01;
        stroke-width: 3;
      }
      100% {
        fill: #afff0100;
        stroke-width: 1;
      }
    }
    @keyframes ig_mask_out {
      0% {
        fill: #afff0100;
        stroke-width: 1;
      }
      100% {
        fill: #aeff01;
        stroke-width: 3;
      }
}
</style>
  <mask
    id="mask0_545_279"
    style='mask-type:alpha'
    maskUnits="userSpaceOnUse"
    x="1"
    y="2"
    width="37"
    height="37"
  >
    <path
      fill-rule="evenodd"
      clip-rule="evenodd"
      d="M28.3584 3.64441H11.2751C6.55763 3.64441 2.7334 7.46864 2.7334 12.1861V29.2694C2.7334 33.9868 6.55763 37.8111 11.2751 37.8111H28.3584C33.0758 37.8111 36.9001 33.9868 36.9001 29.2694V12.1861C36.9001 7.46864 33.0758 3.64441 28.3584 3.64441ZM28.1607 19.364C28.3997 20.9753 28.1244 22.6209 27.3742 24.0668C26.624 25.5127 25.4369 26.6852 23.9819 27.4176C22.5269 28.1499 20.878 28.4048 19.2697 28.146C17.6615 27.8873 16.1758 27.1279 15.0239 25.9761C13.8721 24.8243 13.1128 23.3386 12.854 21.7303C12.5952 20.1221 12.8501 18.4732 13.5825 17.0181C14.3148 15.5631 15.4873 14.3761 16.9332 13.6258C18.3791 12.8756 20.0247 12.6004 21.636 12.8393C23.2797 13.083 24.8013 13.8489 25.9762 15.0238C27.1511 16.1987 27.917 17.7204 28.1607 19.364ZM29.976 9.11548C31.0805 9.11548 31.976 10.0109 31.976 11.1155C31.976 12.22 31.0805 13.1155 29.976 13.1155H29.8849C28.7803 13.1155 27.8849 12.22 27.8849 11.1155C27.8849 10.0109 28.7803 9.11548 29.8849 9.11548H29.976Z"
      fill="#AEFF01"
    />
    <path
      d="M27.3742 24.0668L28.2618 24.5274V24.5274L27.3742 24.0668ZM28.1607 19.364L29.1499 19.2173V19.2173L28.1607 19.364ZM19.2697 28.146L19.4286 27.1587L19.2697 28.146ZM15.0239 25.9761L14.3168 26.6832L15.0239 25.9761ZM12.854 21.7303L13.8413 21.5715L12.854 21.7303ZM13.5825 17.0181L14.4757 17.4677V17.4677L13.5825 17.0181ZM16.9332 13.6258L17.3938 14.5134L17.3938 14.5134L16.9332 13.6258ZM21.636 12.8393L21.4894 13.8285H21.4894L21.636 12.8393ZM25.9762 15.0238L26.6833 14.3167L25.9762 15.0238ZM11.2751 4.64441H28.3584V2.64441H11.2751V4.64441ZM3.7334 12.1861C3.7334 8.02093 7.10992 4.64441 11.2751 4.64441V2.64441C6.00535 2.64441 1.7334 6.91636 1.7334 12.1861H3.7334ZM3.7334 29.2694V12.1861H1.7334V29.2694H3.7334ZM11.2751 36.8111C7.10992 36.8111 3.7334 33.4346 3.7334 29.2694H1.7334C1.7334 34.5391 6.00535 38.8111 11.2751 38.8111V36.8111ZM28.3584 36.8111H11.2751V38.8111H28.3584V36.8111ZM35.9001 29.2694C35.9001 33.4346 32.5235 36.8111 28.3584 36.8111V38.8111C33.6281 38.8111 37.9001 34.5391 37.9001 29.2694H35.9001ZM35.9001 12.1861V29.2694H37.9001V12.1861H35.9001ZM28.3584 4.64441C32.5235 4.64441 35.9001 8.02093 35.9001 12.1861H37.9001C37.9001 6.91636 33.6281 2.64441 28.3584 2.64441V4.64441ZM28.2618 24.5274C29.1089 22.8948 29.4197 21.0367 29.1499 19.2173L27.1716 19.5107C27.3796 20.9139 27.1399 22.3471 26.4866 23.6063L28.2618 24.5274ZM24.4315 28.3108C26.0744 27.4839 27.4147 26.16 28.2618 24.5274L26.4866 23.6063C25.8332 24.8654 24.7994 25.8865 23.5323 26.5243L24.4315 28.3108ZM19.1108 29.1333C20.9268 29.4255 22.7886 29.1377 24.4315 28.3108L23.5323 26.5243C22.2652 27.1621 20.8292 27.3841 19.4286 27.1587L19.1108 29.1333ZM14.3168 26.6832C15.6174 27.9838 17.2949 28.8411 19.1108 29.1333L19.4286 27.1587C18.028 26.9334 16.7341 26.2721 15.731 25.269L14.3168 26.6832ZM11.8667 21.8892C12.1589 23.7051 13.0163 25.3827 14.3168 26.6832L15.731 25.269C14.7279 24.2659 14.0667 22.972 13.8413 21.5715L11.8667 21.8892ZM12.6892 16.5686C11.8623 18.2115 11.5745 20.0733 11.8667 21.8892L13.8413 21.5715C13.6159 20.1709 13.8379 18.7349 14.4757 17.4677L12.6892 16.5686ZM16.4726 12.7382C14.8401 13.5853 13.5161 14.9256 12.6892 16.5686L14.4757 17.4677C15.1135 16.2006 16.1346 15.1668 17.3938 14.5134L16.4726 12.7382ZM21.7827 11.8501C19.9633 11.5803 18.1052 11.8911 16.4726 12.7382L17.3938 14.5134C18.653 13.8601 20.0861 13.6204 21.4894 13.8285L21.7827 11.8501ZM26.6833 14.3167C25.3567 12.9901 23.6386 12.1253 21.7827 11.8501L21.4894 13.8285C22.9207 14.0407 24.2459 14.7077 25.2691 15.7309L26.6833 14.3167ZM29.1499 19.2173C28.8747 17.3615 28.0099 15.6433 26.6833 14.3167L25.2691 15.7309C26.2923 16.7541 26.9593 18.0793 27.1716 19.5107L29.1499 19.2173ZM32.976 11.1155C32.976 9.45862 31.6328 8.11548 29.976 8.11548V10.1155C30.5283 10.1155 30.976 10.5632 30.976 11.1155H32.976ZM29.976 14.1155C31.6328 14.1155 32.976 12.7723 32.976 11.1155H30.976C30.976 11.6678 30.5283 12.1155 29.976 12.1155V14.1155ZM29.8849 14.1155H29.976V12.1155H29.8849V14.1155ZM26.8849 11.1155C26.8849 12.7723 28.228 14.1155 29.8849 14.1155V12.1155C29.3326 12.1155 28.8849 11.6678 28.8849 11.1155H26.8849ZM29.8849 8.11548C28.228 8.11548 26.8849 9.45862 26.8849 11.1155H28.8849C28.8849 10.5632 29.3326 10.1155 29.8849 10.1155V8.11548ZM29.976 8.11548H29.8849V10.1155H29.976V8.11548Z"
      fill="#AEFF01"
    />
  </mask>
  <g mask="url(#mask0_545_279)">
    <rect x="18" y="0" width="3" height="3" rx="40" fill="#AEFF01" />
  </g>
  <path
    d="M29.042 3.41663H11.9587C7.24123 3.41663 3.41699 7.24086 3.41699 11.9583V29.0416C3.41699 33.7591 7.24123 37.5833 11.9587 37.5833H29.042C33.7594 37.5833 37.5837 33.7591 37.5837 29.0416V11.9583C37.5837 7.24086 33.7594 3.41663 29.042 3.41663Z"
    stroke="#AEFF01"
    stroke-width="2"
    stroke-linecap="round"
    stroke-linejoin="round"
  />
  <path
    d="M28.161 19.3641C28.3999 20.9754 28.1247 22.621 27.3744 24.0669C26.6242 25.5128 25.4372 26.6853 23.9821 27.4177C22.5271 28.15 20.8782 28.4049 19.2699 28.1461C17.6617 27.8873 16.176 27.128 15.0242 25.9762C13.8723 24.8244 13.113 23.3387 12.8542 21.7304C12.5954 20.1222 12.8503 18.4733 13.5827 17.0182C14.3151 15.5632 15.4876 14.3762 16.9334 13.6259C18.3793 12.8757 20.025 12.6005 21.6363 12.8394C23.2799 13.0831 24.8015 13.849 25.9764 15.0239C27.1514 16.1988 27.9172 17.7205 28.161 19.3641Z"
    stroke="#AEFF01"
    stroke-width="2"
    stroke-linecap="round"
    stroke-linejoin="round"
  />
  <path
    id="dot"
    d="M30.8125 10.1875H30.83"
    stroke="#AEFF01"
    stroke-width="3"
    stroke-linecap="round"
    stroke-linejoin="round"
  />
  </a></g>
</svg>