<svg width="1431" height="1966" viewBox="0 0 1431 1966" fill="none" xmlns="http://www.w3.org/2000/svg">
<g opacity="0.15">
<path d="M-663.588 569.974C-616.246 667.431 -569.178 758.581 -519.38 848.488C-506.291 871.483 -495.054 892.103 -481.854 915.092C-347.515 1149.92 -211.113 1345.29 -95.0612 1443.91C-82.4874 1454.37 -71.7753 1462.32 -60.3777 1470.02C19.5025 1523.96 75.1097 1502.15 77.6573 1379.04L76.258 1370.04C76.2069 1360.44 77.3058 1353.53 77.2683 1343.91C69.5472 1257.53 59.5583 1175.37 59.6758 1101.5C59.1904 1098.51 61.7075 1100.59 61.2411 1097.59C61.3559 1075.08 63.0819 1058.25 67.3756 1043.56C68.0401 1043.27 66.4185 1037.56 67.102 1037.26C94.5761 938.246 192.185 993.827 305.458 1135.41C307.297 1137.81 308.664 1137.19 310.497 1139.57C393.801 1243.31 477.909 1375.56 562.822 1526.69C571.076 1542.24 578.193 1555.08 587.149 1570.31C678.264 1737.92 765.354 1916.97 846.15 2102.06" stroke="url(#paint0_linear_909_1250)" stroke-miterlimit="10"/>
<path d="M-663.828 628.04C-617.838 721.594 -571.984 808.896 -523.237 894.97C-510.393 917.02 -499.415 936.717 -486.591 958.718C-354.714 1183.28 -219.614 1369.42 -102.423 1461.7C-89.7355 1471.41 -78.832 1478.91 -67.2679 1486C13.8795 1535.91 72.3066 1512.69 78.9682 1392.38L77.7952 1383.65C78.0409 1374.27 79.4189 1367.48 79.689 1358.1C74.493 1274.02 66.8406 1194.15 69.3492 1122.06C68.9627 1119.15 71.4948 1121.1 71.1084 1118.18C71.9645 1096.19 74.3151 1079.71 79.1924 1065.17C79.914 1064.84 78.4248 1059.35 79.1274 1059.03C110.889 961.417 210.388 1012.31 323.325 1146.65C325.155 1148.92 326.598 1148.27 328.408 1150.54C411.492 1248.94 494.487 1375.15 577.669 1519.8C585.73 1534.68 592.703 1546.97 601.486 1561.53C690.603 1722.02 775.21 1893.79 852.917 2071.76" stroke="url(#paint1_linear_909_1250)" stroke-miterlimit="10"/>
<path d="M-665.957 684.713C-621.295 774.47 -576.548 858.125 -528.76 940.471C-516.168 961.507 -505.397 980.403 -492.805 1001.44C-363.263 1216.14 -229.137 1393.17 -110.495 1479.26C-97.5809 1488.28 -86.6058 1495.21 -74.7952 1501.76C7.78049 1547.7 69.2416 1523.01 80.0859 1405.38L79.1528 1396.89C79.763 1387.73 81.4286 1381.03 82.0388 1371.87C79.402 1289.96 74.0578 1212.26 79.0104 1141.81C78.7197 1139.01 81.2889 1140.78 80.9792 1137.99C82.5904 1116.5 85.5687 1100.32 91.1079 1085.95C91.8674 1085.61 90.5264 1080.35 91.267 1080.02C127.406 983.644 229.029 1029.92 341.878 1157.17C343.688 1159.28 345.188 1158.61 347.029 1160.8C430.042 1253.99 512.056 1374.36 593.662 1512.67C601.566 1526.93 608.386 1538.7 617.025 1552.6C704.267 1706.22 786.423 1871.04 861.323 2042.07" stroke="url(#paint2_linear_909_1250)" stroke-miterlimit="10"/>
<path d="M-670.146 739.431C-626.738 825.461 -583 905.645 -536.019 984.355C-523.643 1004.46 -513.083 1022.55 -500.688 1042.65C-373.24 1247.79 -239.843 1415.96 -119.5 1495.96C-106.448 1504.36 -95.1044 1510.66 -83.1718 1516.71C0.950218 1558.74 65.5266 1532.55 80.6405 1417.33L79.9474 1409.09C80.8439 1400.12 82.7887 1393.54 83.6853 1384.57C83.5276 1304.76 80.5964 1229.05 88.0597 1160.08C87.7879 1157.27 90.4331 1159.01 90.1804 1156.19C92.5118 1135.17 96.1697 1119.25 102.295 1105.09C103.092 1104.73 101.847 1099.59 102.644 1099.23C143.38 1003.86 247.245 1045.59 360.224 1165.93C362.071 1168.03 363.666 1167.31 365.443 1169.3C448.558 1257.44 529.771 1372.12 609.959 1504.36C617.693 1518 624.383 1529.26 632.914 1542.54C718.386 1689.53 798.329 1847.58 870.498 2011.96" stroke="url(#paint3_linear_909_1250)" stroke-miterlimit="10"/>
<path d="M-676.17 793.654C-633.932 876.153 -591.156 952.918 -545.033 1028.19C-532.838 1047.4 -522.466 1064.67 -510.27 1083.88C-384.68 1279.76 -251.579 1439.34 -129.402 1513.31C-116.132 1521.05 -104.675 1526.88 -92.3868 1532.32C-6.34844 1570.42 61.4518 1542.65 81.0434 1429.6L80.4468 1421.64C81.673 1412.85 83.8864 1406.38 85.1022 1397.57C87.6559 1319.6 87.0111 1245.85 96.9863 1178.25C96.8346 1175.56 99.4926 1177.12 99.3409 1174.44C102.482 1153.82 106.757 1138.19 113.664 1124.05C114.5 1123.68 113.371 1118.71 114.207 1118.33C159.521 1023.87 266.055 1060.98 379.392 1174.59C381.209 1176.52 382.88 1175.76 384.703 1177.7C468.098 1260.88 548.626 1370.04 627.562 1496.38C635.135 1509.44 641.721 1520.19 650.13 1532.87C734.113 1673.41 811.852 1824.97 881.383 1982.97" stroke="url(#paint4_linear_909_1250)" stroke-miterlimit="10"/>
<path d="M-684.213 846.823C-643.054 925.896 -601.16 999.381 -555.758 1071.27C-543.714 1089.6 -533.508 1106.11 -521.488 1124.43C-397.538 1311.33 -264.708 1462.6 -140.153 1530.54C-128.188 1536.91 -115.567 1542.67 -102.34 1547.81C-14.2811 1582.06 57.0331 1552.61 80.9254 1441.62L80.7291 1433.8C82.2987 1425.18 84.8135 1418.78 86.3589 1410.16C91.5546 1333.97 93.2354 1262.06 105.846 1195.65C105.793 1193.04 108.485 1194.46 108.433 1191.85C112.368 1171.61 117.307 1156.2 124.952 1142.2C125.844 1141.8 124.827 1136.99 125.701 1136.59C175.837 1042.83 285.187 1075.4 399.117 1182.4C400.935 1184.22 402.701 1183.43 404.52 1185.24C488.364 1263.6 568.41 1367.39 646.217 1488.08C653.641 1500.57 660.133 1510.83 668.448 1522.92C751.032 1657.23 826.768 1802.52 893.789 1954.38" stroke="url(#paint5_linear_909_1250)" stroke-miterlimit="10"/>
<path d="M-694.293 898.974C-654.174 974.767 -613.081 1045.05 -568.286 1113.67C-556.307 1131.1 -546.357 1146.91 -534.478 1164.37C-411.917 1342.57 -278.996 1485.69 -151.989 1547.75C-139.714 1553.57 -126.801 1558.77 -113.301 1563.32C-23.0224 1593.75 51.9766 1562.55 80.4314 1453.38L80.4784 1445.76C82.3808 1437.29 85.197 1430.95 87.0995 1422.48C94.9659 1347.93 99.1214 1277.58 114.321 1212.4C114.343 1209.86 117.093 1211.15 117.21 1208.57C121.954 1188.68 127.603 1173.45 136.007 1159.54C136.919 1159.13 136.084 1154.42 136.958 1154.03C192.044 1060.77 304.5 1088.8 419.212 1189.37C421.051 1191.08 422.893 1190.25 424.732 1191.95C509.196 1265.56 588.902 1364.16 665.664 1479.23C673.018 1491.14 679.343 1500.9 687.598 1512.48C768.939 1640.75 842.719 1780.03 907.358 1925.95" stroke="url(#paint6_linear_909_1250)" stroke-miterlimit="10"/>
<path d="M-706.453 950.231C-667.284 1022.85 -626.94 1090.06 -582.685 1155.51C-571.01 1172.23 -561.007 1187.21 -549.225 1203.86C-427.845 1373.63 -294.557 1508.75 -164.751 1564.98C-152.152 1570.27 -138.919 1574.9 -125.109 1578.86C-32.4052 1605.43 46.4497 1572.39 79.4884 1464.84L79.787 1457.38C82.0413 1449.04 85.1726 1442.75 87.408 1434.43C98.0359 1361.36 104.642 1292.55 122.544 1228.4C122.635 1225.91 125.468 1227.08 125.465 1224.64C131.044 1205.07 137.387 1189.98 146.565 1176.13C147.553 1175.68 146.715 1171.18 147.741 1170.72C207.942 1077.73 323.762 1101.28 439.588 1195.51C441.428 1197.11 443.384 1196.23 445.229 1197.85C530.504 1266.79 609.978 1360.29 685.927 1470.01C693.076 1481.44 699.453 1490.74 707.623 1501.7C787.848 1624.13 859.99 1757.51 922.219 1897.79" stroke="url(#paint7_linear_909_1250)" stroke-miterlimit="10"/>
<path d="M-720.76 1000.71C-682.475 1070.25 -642.781 1134.46 -598.999 1196.84C-587.33 1212.7 -577.528 1227.05 -565.841 1242.9C-445.414 1404.45 -311.472 1531.79 -178.556 1582.21C-165.588 1586.96 -152.005 1591.02 -137.87 1594.39C-42.5622 1617.1 40.4078 1582.19 78.2216 1476.07L78.7719 1468.78C81.3781 1460.57 84.8244 1454.34 87.4306 1446.13C100.84 1374.44 109.945 1307.02 130.612 1243.78C130.797 1241.35 133.688 1242.4 133.873 1239.97C140.315 1220.67 147.388 1205.75 157.376 1191.89C158.401 1191.42 157.741 1187.02 158.766 1186.56C224.308 1093.77 343.732 1112.73 460.859 1200.73C462.725 1202.24 464.776 1201.31 466.641 1202.82C552.89 1267.2 632.326 1355.74 707.58 1460.24C714.677 1471.12 720.934 1480.04 729.07 1490.44C808.403 1607.17 878.863 1734.93 938.903 1869.72" stroke="url(#paint8_linear_909_1250)" stroke-miterlimit="10"/>
<path d="M-737.252 1050.47C-699.726 1117.08 -660.688 1178.37 -617.28 1237.76C-605.678 1252.83 -595.943 1266.49 -584.39 1281.55C-464.656 1435.12 -329.786 1554.83 -193.508 1599.51C-180.125 1603.7 -166.159 1607.19 -151.675 1609.98C-53.4525 1628.92 33.7699 1591.93 76.4961 1487.02L77.298 1479.9C80.2888 1471.8 84.064 1465.59 87.0305 1457.49C103.28 1387.03 114.932 1320.92 138.472 1258.47C138.746 1256.09 141.7 1257.01 141.974 1254.63C149.287 1235.57 157.13 1220.76 167.928 1206.88C169.01 1206.4 168.475 1202.13 169.557 1201.64C240.603 1108.8 363.943 1123.21 482.664 1205.09C484.536 1206.5 486.701 1205.52 488.592 1206.93C575.994 1266.81 655.56 1350.52 730.257 1449.95C737.274 1460.32 743.476 1468.8 751.594 1478.68C830.079 1589.94 898.985 1712.26 957.037 1841.76" stroke="url(#paint9_linear_909_1250)" stroke-miterlimit="10"/>
<path d="M-756 1099.61C-719.284 1163.31 -680.704 1221.84 -637.586 1278.33C-626.035 1292.64 -616.419 1305.66 -604.862 1319.98C-485.598 1465.78 -349.543 1577.99 -209.612 1616.96C-195.764 1620.6 -181.36 1623.53 -166.47 1625.73C-65.1262 1640.85 26.6028 1601.75 74.384 1497.86L75.4514 1490.88C78.8163 1482.86 82.9583 1476.66 86.3231 1468.65C105.495 1399.31 119.748 1334.35 146.21 1272.59C146.572 1270.26 149.628 1271.05 149.99 1268.72C158.183 1249.86 166.81 1235.14 178.474 1221.22C179.613 1220.71 179.177 1216.51 180.317 1216C257.081 1122.88 384.702 1132.73 505.181 1208.61C507.097 1209.91 509.376 1208.89 511.313 1210.24C600.085 1265.7 679.92 1344.68 754.208 1439.19C761.149 1449.07 767.314 1457.13 775.375 1466.51C853.187 1572.44 920.836 1689.44 976.72 1813.87" stroke="url(#paint10_linear_909_1250)" stroke-miterlimit="10"/>
<path d="M-777.055 1148.24C-741.029 1209.16 -702.905 1264.98 -659.978 1318.63C-648.467 1332.22 -638.902 1344.58 -627.391 1358.17C-508.367 1496.42 -370.784 1601.28 -226.759 1634.47C-212.457 1637.58 -197.624 1639.96 -182.335 1641.58C-77.6537 1652.86 18.8341 1611.54 71.8129 1508.48L73.1594 1501.62C76.8983 1493.68 81.383 1487.49 85.1409 1479.55C107.299 1411.21 124.202 1347.32 153.693 1286.13C154.138 1283.83 157.281 1284.51 157.727 1282.22C166.849 1263.47 176.29 1248.85 188.853 1234.86C190.05 1234.32 189.749 1230.28 190.946 1229.75C273.68 1136.24 405.767 1141.45 528.381 1211.35C530.328 1212.57 532.72 1211.49 534.662 1212.7C625.007 1263.78 705.307 1338.14 779.291 1427.8C786.168 1437.21 792.294 1444.87 800.367 1453.75C877.679 1554.48 944.055 1666.38 998.013 1785.93" stroke="url(#paint11_linear_909_1250)" stroke-miterlimit="10"/>
<path d="M-800.475 1196.46C-766.344 1253.05 -727.636 1307.2 -684.497 1358.72C-672.977 1371.59 -663.454 1383.32 -651.953 1396.19C-532.936 1527.07 -393.533 1624.7 -245.142 1652.16C-230.318 1654.71 -215.001 1656.52 -199.268 1657.58C-90.9852 1664.99 10.5218 1621.33 68.8651 1518.9L70.5097 1512.16C74.6555 1504.27 79.5207 1498.07 83.7214 1490.1C108.961 1422.62 128.598 1359.66 161.208 1298.89C161.741 1296.64 165.005 1297.18 165.52 1294.94C175.68 1276.34 185.873 1261.73 199.363 1247.64C200.635 1247.06 200.455 1243.15 201.727 1242.57C290.643 1148.38 427.574 1148.98 552.567 1213.01C554.539 1214.13 557.083 1212.98 559.037 1214.11C651.135 1260.88 732.039 1330.71 805.962 1415.72C812.798 1424.67 818.87 1431.89 826.986 1440.33C903.969 1536.06 969.171 1642.94 1021.3 1757.84" stroke="url(#paint12_linear_909_1250)" stroke-miterlimit="10"/>
<path d="M-826.402 1244.27C-792.79 1298.43 -754.388 1350 -711.372 1398.76C-699.838 1410.91 -690.34 1422.06 -678.806 1434.22C-559.54 1557.89 -418.059 1648.36 -264.93 1670.12C-249.544 1672.1 -233.706 1673.34 -217.495 1673.84C-105.337 1677.34 1.44127 1631.23 65.3539 1529.23L67.2534 1522.6C71.7798 1514.7 77.0897 1508.54 81.6233 1500.71C110.009 1433.97 132.46 1371.83 168.236 1311.41C168.872 1309.19 172.224 1309.62 172.841 1307.4C183.916 1288.93 195.063 1274.28 209.523 1260.07C210.852 1259.47 210.795 1255.63 212.124 1255.03C307.508 1160.08 449.581 1155.92 577.244 1214.12C579.266 1215.14 581.905 1213.96 583.927 1214.98C677.979 1257.47 759.677 1322.86 833.599 1403.32C840.406 1411.83 846.519 1418.72 854.631 1426.62C931.372 1517.39 995.59 1619.52 1045.94 1729.89" stroke="url(#paint13_linear_909_1250)" stroke-miterlimit="10"/>
<path d="M-854.863 1291.88C-821.676 1343.66 -783.485 1392.69 -740.495 1438.73C-728.932 1450.21 -719.441 1460.76 -707.877 1472.24C-588.115 1588.86 -444.234 1672.4 -285.996 1688.31C-270.008 1689.72 -253.611 1690.38 -236.881 1690.29C-120.565 1689.85 -8.24903 1641.18 61.4241 1539.42L63.606 1532.87C68.5981 1525.06 74.2571 1518.8 79.1785 1511.04C110.816 1444.91 136.151 1383.48 175.304 1323.23C176.047 1321.05 179.5 1321.34 180.224 1319.17C192.319 1300.75 204.357 1286.06 219.833 1271.69C221.238 1271.06 221.296 1267.33 222.701 1266.69C324.804 1170.72 472.409 1161.76 603.01 1214.23C605.082 1215.16 607.873 1213.9 609.921 1214.83C706.167 1253.08 788.831 1314.11 862.93 1390.11C869.707 1398.18 875.822 1404.7 883.985 1412.14C960.689 1498.1 1024 1595.64 1072.64 1701.64" stroke="url(#paint14_linear_909_1250)" stroke-miterlimit="10"/>
<path d="M-885.949 1339.33C-853.137 1388.83 -815.079 1435.4 -772.02 1478.75C-760.402 1489.56 -750.888 1499.53 -739.252 1510.33C-618.8 1620.04 -472.124 1696.66 -308.442 1706.77C-291.817 1707.61 -274.819 1707.7 -257.526 1707.04C-136.803 1702.61 -18.6272 1651.23 56.9849 1549.42L59.4734 1542.96C64.905 1535.17 70.9774 1528.88 76.409 1521.09C111.4 1455.44 139.702 1394.6 182.277 1334.46C183.098 1332.3 186.682 1332.48 187.503 1330.32C200.669 1311.92 213.635 1297.18 230.18 1282.6C231.642 1281.95 231.847 1278.29 233.309 1277.64C342.423 1180.43 496 1166.58 629.766 1213.32C631.863 1214.15 634.806 1212.83 636.909 1213.67C735.539 1247.7 819.35 1304.42 893.794 1376.09C900.19 1383.44 907.244 1390.38 914.926 1396.87C991.712 1478.15 1054.26 1571.19 1101.28 1672.99" stroke="url(#paint15_linear_909_1250)" stroke-miterlimit="10"/>
<path d="M-919.773 1386.73C-887.273 1434.01 -849.312 1478.2 -806.177 1518.95C-794.458 1529.1 -784.91 1538.52 -773.114 1548.63C-651.639 1651.63 -501.978 1721.36 -332.364 1725.59C-315.046 1725.82 -297.403 1725.32 -279.509 1724.09C-154.08 1715.62 -29.7221 1661.39 52.1105 1559.47L54.9004 1553.07C60.7854 1545.28 67.3037 1538.92 73.1886 1531.13C111.658 1465.84 143.02 1405.48 189.214 1345.28C190.137 1343.15 193.847 1343.2 194.77 1341.07C209.04 1322.65 223.002 1307.86 240.632 1293.02C242.17 1292.32 242.498 1288.75 244.036 1288.06C360.463 1189.42 520.242 1170.65 657.621 1211.64C659.773 1212.39 662.868 1211 665.04 1211.73C766.296 1241.58 851.449 1294.08 926.351 1361.47C932.78 1368.44 939.881 1374.97 947.619 1381.04C1024.65 1457.7 1086.55 1546.42 1132.03 1644.19" stroke="url(#paint16_linear_909_1250)" stroke-miterlimit="10"/>
<path d="M-956.42 1434.15C-924.108 1479.29 -886.104 1521.13 -842.748 1559.3C-830.916 1568.81 -821.315 1577.66 -809.483 1587.17C-686.783 1683.55 -533.695 1746.47 -357.79 1744.76C-339.749 1744.42 -321.423 1743.35 -302.882 1741.55C-172.419 1728.97 -41.5503 1671.75 46.7005 1569.43L49.8108 1563.1C56.1817 1555.28 63.146 1548.85 69.5032 1541.05C111.578 1475.99 146.1 1415.97 196.011 1355.63C197.037 1353.52 200.891 1353.43 201.936 1351.32C215.871 1334.18 232.415 1317.87 251.08 1302.85C252.713 1302.11 253.164 1298.61 254.778 1297.89C378.847 1197.59 545.301 1173.77 686.566 1209.08C688.787 1209.72 692.034 1208.26 694.26 1208.91C798.383 1234.56 885.039 1282.89 960.601 1346.11C967.06 1352.71 974.217 1358.84 982.034 1364.47C1060.13 1437.77 1121.55 1521.95 1164.84 1615.03" stroke="url(#paint17_linear_909_1250)" stroke-miterlimit="10"/>
<path d="M-996.016 1481.71C-963.824 1524.78 -925.712 1564.33 -882.079 1599.96C-870.11 1608.84 -860.422 1617.15 -848.458 1626.02C-724.24 1715.88 -567.422 1772.01 -384.776 1764.36C-364.851 1763.3 -347.102 1761.66 -327.682 1759.27C-191.836 1742.5 -54.1762 1682.15 40.7703 1579.23L44.2146 1572.94C51.0715 1565.09 58.4629 1558.6 65.3768 1550.73C111.168 1485.78 148.944 1426.02 202.716 1365.38C203.858 1363.29 207.862 1363.07 209.004 1360.97C224.233 1343.58 241.924 1327.1 261.606 1311.95C263.315 1311.18 263.908 1307.75 265.617 1306.98C397.649 1204.81 571.203 1175.84 716.66 1205.44C718.955 1205.99 722.373 1204.45 724.649 1205.01C831.895 1226.47 920.254 1270.68 996.617 1329.79C1003.14 1336.03 1010.37 1341.77 1018.27 1346.98C1096.67 1415.51 1157.77 1495.7 1199.84 1585.3" stroke="url(#paint18_linear_909_1250)" stroke-miterlimit="10"/>
<path d="M-1038.64 1529.49C-1006.52 1570.56 -968.246 1607.9 -924.285 1641.03C-912.155 1649.29 -902.374 1657.07 -890.265 1665.27C-764.261 1748.73 -603.322 1798.18 -413.504 1784.37C-392.735 1782.65 -374.411 1780.49 -354.093 1777.45C-212.533 1756.41 -67.679 1692.76 34.2303 1589.03L38.0034 1582.76C45.3843 1574.87 53.3113 1568.26 60.6922 1560.37C110.339 1495.38 151.514 1435.73 209.303 1374.69C210.582 1372.65 214.715 1372.26 215.993 1370.22C232.553 1352.56 251.437 1335.87 272.194 1320.56C273.998 1319.75 274.71 1316.38 276.513 1315.57C416.899 1211.28 597.979 1177.04 747.996 1200.94C750.419 1201.31 753.932 1199.73 756.303 1200.25C866.917 1217.51 957.192 1257.62 1034.51 1312.71C1041.09 1318.6 1048.42 1323.96 1056.42 1328.75C1135.22 1392.58 1196.08 1468.92 1236.99 1555.21" stroke="url(#paint19_linear_909_1250)" stroke-miterlimit="10"/>
<path d="M-1084.47 1577.62C-1052.32 1616.75 -1013.79 1651.91 -969.422 1682.58C-957.1 1690.22 -947.203 1697.48 -934.882 1705.12C-806.823 1782.26 -641.393 1825 -443.923 1805C-422.31 1802.6 -403.121 1799.83 -382.032 1796.2C-234.414 1770.79 -81.9861 1703.68 27.1773 1598.91L31.2983 1592.66C39.2169 1584.71 47.6606 1577.98 55.5792 1570.02C109.232 1504.87 153.917 1445.22 215.892 1383.65C217.266 1381.57 221.588 1381.09 222.962 1379C240.906 1361.04 261.035 1344.12 282.917 1328.6C284.815 1327.74 285.664 1324.43 287.563 1323.58C436.68 1216.94 625.748 1177.28 780.676 1195.46C783.1 1195.84 786.898 1194.13 789.321 1194.5C903.568 1207.55 995.958 1243.61 1074.41 1294.73C1081.08 1300.27 1088.51 1305.25 1096.63 1309.63C1176 1368.79 1236.84 1441.35 1276.75 1524.46" stroke="url(#paint20_linear_909_1250)" stroke-miterlimit="10"/>
</g>
<defs>
<linearGradient id="paint0_linear_909_1250" x1="-268.164" y1="1497.67" x2="456.337" y2="1187.97" gradientUnits="userSpaceOnUse">
<stop stop-color="#AEFF01"/>
<stop offset="1" stop-color="#01D1FF"/>
</linearGradient>
<linearGradient id="paint1_linear_909_1250" x1="-283.634" y1="1520.05" x2="478.882" y2="1194.1" gradientUnits="userSpaceOnUse">
<stop stop-color="#AEFF01"/>
<stop offset="1" stop-color="#01D1FF"/>
</linearGradient>
<linearGradient id="paint2_linear_909_1250" x1="-300.438" y1="1542.45" x2="502.104" y2="1199.39" gradientUnits="userSpaceOnUse">
<stop stop-color="#AEFF01"/>
<stop offset="1" stop-color="#01D1FF"/>
</linearGradient>
<linearGradient id="paint3_linear_909_1250" x1="-318.707" y1="1564.18" x2="525.985" y2="1203.1" gradientUnits="userSpaceOnUse">
<stop stop-color="#AEFF01"/>
<stop offset="1" stop-color="#01D1FF"/>
</linearGradient>
<linearGradient id="paint4_linear_909_1250" x1="-338.303" y1="1586.7" x2="550.741" y2="1206.67" gradientUnits="userSpaceOnUse">
<stop stop-color="#AEFF01"/>
<stop offset="1" stop-color="#01D1FF"/>
</linearGradient>
<linearGradient id="paint5_linear_909_1250" x1="-359.384" y1="1609.37" x2="576.365" y2="1209.37" gradientUnits="userSpaceOnUse">
<stop stop-color="#AEFF01"/>
<stop offset="1" stop-color="#01D1FF"/>
</linearGradient>
<linearGradient id="paint6_linear_909_1250" x1="-381.988" y1="1632.22" x2="602.899" y2="1211.22" gradientUnits="userSpaceOnUse">
<stop stop-color="#AEFF01"/>
<stop offset="1" stop-color="#01D1FF"/>
</linearGradient>
<linearGradient id="paint7_linear_909_1250" x1="-406.195" y1="1655.3" x2="630.433" y2="1212.18" gradientUnits="userSpaceOnUse">
<stop stop-color="#AEFF01"/>
<stop offset="1" stop-color="#01D1FF"/>
</linearGradient>
<linearGradient id="paint8_linear_909_1250" x1="-432.09" y1="1678.67" x2="658.996" y2="1212.27" gradientUnits="userSpaceOnUse">
<stop stop-color="#AEFF01"/>
<stop offset="1" stop-color="#01D1FF"/>
</linearGradient>
<linearGradient id="paint9_linear_909_1250" x1="-459.725" y1="1702.36" x2="688.69" y2="1211.46" gradientUnits="userSpaceOnUse">
<stop stop-color="#AEFF01"/>
<stop offset="1" stop-color="#01D1FF"/>
</linearGradient>
<linearGradient id="paint10_linear_909_1250" x1="-489.18" y1="1726.45" x2="719.571" y2="1209.76" gradientUnits="userSpaceOnUse">
<stop stop-color="#AEFF01"/>
<stop offset="1" stop-color="#01D1FF"/>
</linearGradient>
<linearGradient id="paint11_linear_909_1250" x1="-520.538" y1="1750.97" x2="751.726" y2="1207.13" gradientUnits="userSpaceOnUse">
<stop stop-color="#AEFF01"/>
<stop offset="1" stop-color="#01D1FF"/>
</linearGradient>
<linearGradient id="paint12_linear_909_1250" x1="-553.877" y1="1775.99" x2="785.249" y2="1203.56" gradientUnits="userSpaceOnUse">
<stop stop-color="#AEFF01"/>
<stop offset="1" stop-color="#01D1FF"/>
</linearGradient>
<linearGradient id="paint13_linear_909_1250" x1="-589.309" y1="1801.57" x2="820.202" y2="1199.06" gradientUnits="userSpaceOnUse">
<stop stop-color="#AEFF01"/>
<stop offset="1" stop-color="#01D1FF"/>
</linearGradient>
<linearGradient id="paint14_linear_909_1250" x1="-626.928" y1="1827.75" x2="856.662" y2="1193.57" gradientUnits="userSpaceOnUse">
<stop stop-color="#AEFF01"/>
<stop offset="1" stop-color="#01D1FF"/>
</linearGradient>
<linearGradient id="paint15_linear_909_1250" x1="-666.82" y1="1854.6" x2="894.754" y2="1187.09" gradientUnits="userSpaceOnUse">
<stop stop-color="#AEFF01"/>
<stop offset="1" stop-color="#01D1FF"/>
</linearGradient>
<linearGradient id="paint16_linear_909_1250" x1="-709.09" y1="1882.19" x2="934.564" y2="1179.59" gradientUnits="userSpaceOnUse">
<stop stop-color="#AEFF01"/>
<stop offset="1" stop-color="#01D1FF"/>
</linearGradient>
<linearGradient id="paint17_linear_909_1250" x1="-753.876" y1="1910.57" x2="976.185" y2="1171.03" gradientUnits="userSpaceOnUse">
<stop stop-color="#AEFF01"/>
<stop offset="1" stop-color="#01D1FF"/>
</linearGradient>
<linearGradient id="paint18_linear_909_1250" x1="-801.301" y1="1939.82" x2="1019.72" y2="1161.4" gradientUnits="userSpaceOnUse">
<stop stop-color="#AEFF01"/>
<stop offset="1" stop-color="#01D1FF"/>
</linearGradient>
<linearGradient id="paint19_linear_909_1250" x1="-851.468" y1="1970" x2="1065.3" y2="1150.65" gradientUnits="userSpaceOnUse">
<stop stop-color="#AEFF01"/>
<stop offset="1" stop-color="#01D1FF"/>
</linearGradient>
<linearGradient id="paint20_linear_909_1250" x1="-904.522" y1="2001.18" x2="1113.01" y2="1138.76" gradientUnits="userSpaceOnUse">
<stop stop-color="#AEFF01"/>
<stop offset="1" stop-color="#01D1FF"/>
</linearGradient>
</defs>
</svg>
