<svg width="1230" height="1732" viewBox="0 0 1230 1732" fill="none" xmlns="http://www.w3.org/2000/svg">
<path opacity="0.1" d="M-556.548 0.714722C-523.485 103.894 -489.799 200.791 -453.237 296.844C-443.535 321.461 -435.332 343.465 -425.521 368.091C-325.791 619.574 -218.433 832.298 -117.517 946.359C-106.55 958.489 -97.0724 967.878 -86.8805 977.118C-15.4434 1041.82 42.6921 1028.11 62.6486 906.597L62.5371 897.496C63.846 887.986 65.9122 881.301 67.2377 871.772C71.828 785.165 73.5746 702.422 84.1526 629.311C84.0954 626.283 86.2933 628.694 86.2561 625.66C89.5569 603.398 93.6489 586.983 99.9795 573.05C100.68 572.848 99.8817 566.975 100.602 566.768C141.821 472.645 230.575 541.489 322.655 697.689C324.136 700.32 325.577 699.904 327.054 702.523C394.828 817.006 459.359 959.836 522.013 1121.47C527.981 1138.03 533.209 1151.75 539.917 1168.09C606.379 1346.92 667.233 1536.5 721.002 1731.17M-565.01 58.1614C-532.732 157.285 -499.704 250.202 -463.638 342.311C-454.046 365.958 -445.968 387.011 -436.389 410.607C-337.644 651.586 -230.265 854.976 -127.324 962.921C-116.14 974.335 -106.409 983.304 -95.9645 991.956C-22.7027 1052.85 38.4225 1038.15 62.0562 919.988L62.1311 911.181C63.7031 901.928 66.0282 895.406 67.6237 886.16C74.3871 802.193 78.1227 722.047 90.8156 651.036C90.846 648.094 93.0762 650.384 93.1067 647.442C97.0683 625.796 101.729 609.815 108.617 596.11C109.377 595.891 108.681 590.239 109.421 590.026C154.686 497.893 245.975 562.364 338.75 711.343C340.24 713.846 341.76 713.408 343.23 715.917C411.542 825.088 475.827 961.776 537.686 1116.75C543.558 1132.63 548.72 1145.78 555.352 1161.44C620.842 1332.93 680.271 1514.95 731.991 1702.13M-575.142 113.962C-543.641 209.14 -511.192 298.289 -475.548 386.572C-466.062 409.179 -458.075 429.411 -448.589 452.018C-350.759 682.905 -243.055 877.137 -137.8 979.161C-126.294 989.926 -116.41 998.336 -105.647 1006.49C-30.4091 1063.66 33.9296 1047.92 61.3231 933.016L61.6011 924.484C63.503 915.498 66.1001 909.105 68.0021 900.119C76.9911 818.666 82.7044 740.993 97.5845 671.952C97.693 669.14 99.9852 671.26 100.074 668.454C104.713 647.405 109.952 631.812 117.47 618.371C118.271 618.14 117.688 612.748 118.468 612.523C167.891 522.235 261.937 582.436 355.628 724.381C357.12 726.732 358.7 726.276 360.213 728.703C429.19 832.719 493.332 963.485 554.528 1111.96C560.334 1127.19 565.418 1139.81 572.001 1154.8C636.608 1319.23 694.595 1494.01 744.519 1673.93M-587.038 167.535C-556.251 258.846 -524.308 344.415 -488.948 428.985C-479.544 450.643 -471.652 470.04 -462.228 491.692C-365.117 712.819 -256.88 898.182 -149.08 994.425C-137.349 1004.58 -127.012 1012.43 -116.056 1020.1C-38.7345 1073.63 28.901 1056.84 60.1792 944.927L60.6602 936.67C62.8183 927.916 65.6743 921.685 67.8324 912.931C78.9792 833.9 86.7992 758.54 103.955 691.316C104.084 688.499 106.456 690.595 106.605 687.772C111.891 667.287 117.765 652.054 125.834 638.899C126.674 638.657 126.169 633.395 127.01 633.152C180.841 544.513 277.75 600.525 372.547 735.659C374.079 737.998 375.759 737.513 377.237 739.728C447.032 838.754 511.186 963.775 571.838 1106.04C577.561 1120.64 582.591 1132.73 589.154 1147.09C652.949 1304.7 709.703 1472.48 757.866 1645.42M-600.681 220.359C-570.551 308.008 -539.078 390.057 -504.081 471.103C-494.728 491.845 -486.907 510.414 -477.555 531.155C-380.97 742.842 -271.81 919.668 -161.339 1010.19C-149.299 1019.73 -138.783 1027.13 -127.39 1034.25C-47.6142 1084.15 23.4347 1066.27 58.8395 957.13L59.3767 949.162C61.8344 940.641 64.9423 934.546 67.3931 926C80.9633 849.176 90.7692 776.078 110.217 710.571C110.447 707.892 112.858 709.81 113.088 707.13C119.118 687.168 125.563 672.298 134.403 659.282C135.283 659.028 134.87 653.948 135.75 653.695C193.984 566.608 294.19 618.43 390.294 746.946C391.821 749.105 393.582 748.598 395.112 750.77C465.887 844.926 530.145 964.384 590.392 1100.64C596.04 1114.63 601.038 1126.21 607.566 1139.95C670.8 1290.97 726.291 1452.01 772.745 1618.27M-616.173 271.852C-586.627 355.958 -555.562 434.635 -520.799 512.233C-511.471 532.078 -503.707 549.871 -494.403 569.708C-398.17 772.28 -288.101 940.837 -174.422 1025.72C-163.48 1033.73 -151.804 1041.22 -139.437 1048.18C-57.1159 1094.55 17.65 1075.5 57.0199 969.011L57.9332 961.241C60.7071 952.935 64.1035 946.951 66.8539 938.638C82.7867 863.955 94.6344 793.007 116.523 729.049C116.841 726.455 119.304 728.247 119.622 725.653C126.384 706.174 133.455 691.625 143.005 678.849C143.946 678.578 143.621 673.667 144.541 673.402C207.451 587.678 311.086 635.412 408.714 757.469C410.257 759.526 412.118 758.99 413.66 761.047C485.563 850.485 550.104 964.566 610.035 1095.06C615.614 1108.48 620.588 1119.55 627.107 1132.7C689.839 1277.34 744.236 1431.9 789.075 1591.72M-633.536 322.051C-604.555 402.761 -573.83 478.158 -539.204 552.431C-529.815 571.382 -522.204 588.441 -512.918 607.408C-416.828 801.166 -305.514 961.663 -188.577 1041.09C-177.25 1048.59 -165.203 1055.56 -152.483 1061.98C-67.4246 1104.89 11.2384 1084.62 54.8658 980.586L55.9918 973.047C59.0749 964.93 62.7598 959.057 65.8429 950.94C84.1872 878.259 98.2648 809.198 122.542 746.831C122.924 744.316 125.463 745.989 125.945 743.445C133.457 724.431 141.205 710.159 151.496 697.573C152.456 697.296 152.296 692.518 153.216 692.253C220.954 607.737 328.308 651.41 427.621 767.212C429.2 769.162 431.14 768.603 432.719 770.552C505.908 855.38 570.847 964.272 630.54 1089.05C636.134 1101.88 641.012 1112.44 647.543 1125.07C709.9 1263.57 763.211 1411.9 806.533 1565.5M-652.833 371.069C-624.343 448.501 -593.924 520.748 -559.383 591.806C-550.194 610.009 -542.413 626.254 -533.108 644.409C-436.994 829.653 -324.185 982.295 -203.65 1056.34C-191.928 1063.36 -179.484 1069.82 -166.373 1075.69C-78.3668 1115.12 4.37328 1093.58 52.3099 991.791L53.6616 984.451C57.074 976.517 61.0639 970.737 64.4563 962.809C85.3245 891.985 101.609 824.805 128.415 763.835C128.858 761.386 131.496 762.947 131.839 760.527C140.134 741.941 148.549 727.907 159.597 715.492C160.637 715.192 160.446 710.618 161.526 710.307C234.291 626.774 345.607 666.496 446.922 776.175C448.516 778.023 450.577 777.429 452.175 779.29C526.827 859.609 592.259 963.423 651.904 1082.79C657.363 1095.12 662.357 1105.23 668.893 1117.24C730.972 1249.79 783.497 1392.05 825.232 1539.73M-674.144 419.013C-646.093 493.277 -615.892 562.459 -581.386 630.413C-572.081 647.763 -564.409 663.358 -555.084 680.702C-458.75 857.68 -344.191 1002.7 -219.755 1071.43C-207.59 1077.97 -194.72 1083.92 -181.205 1089.26C-90.0738 1125.24 -2.99588 1102.43 49.4658 1002.73L51.0433 995.59C54.785 987.838 59.0799 982.152 62.8215 974.401C86.2494 905.328 104.809 839.882 134.224 780.204C134.751 777.828 137.466 779.27 137.993 776.894C147.103 758.698 156.217 744.936 168.068 732.622C169.148 732.311 169.118 727.857 170.198 727.546C248.22 644.972 363.755 680.656 467.24 784.358C468.874 786.111 471.034 785.488 472.668 787.241C548.929 863.19 615.026 962.086 674.724 1076.19C680.208 1087.96 685.139 1097.68 691.72 1109.13C753.721 1235.92 805.378 1372.37 845.724 1514.31M-697.518 465.94C-669.802 537.187 -639.838 603.392 -605.278 668.329C-595.927 684.886 -588.225 699.792 -578.92 716.335C-482.143 885.317 -365.585 1022.92 -237.006 1086.44C-224.352 1092.49 -211.022 1097.93 -197.079 1102.73C-102.528 1135.39 -10.9466 1111.13 46.2056 1013.33L48.0088 1006.39C52.1162 998.797 56.7327 993.185 60.8167 985.585C86.88 918.143 107.778 854.345 139.925 795.854C140.533 793.538 143.326 794.873 143.934 792.557C153.873 774.72 163.734 761.173 176.389 748.962C177.529 748.634 177.604 744.33 178.744 744.002C262.222 662.163 382.278 693.888 488.208 791.755C489.861 793.42 492.141 792.762 493.814 794.42C571.856 866.075 638.766 960.205 698.628 1069.21C704.105 1080.48 709.045 1089.74 715.682 1100.67C777.619 1221.93 828.507 1352.78 867.635 1489.2M-723.036 511.928C-695.711 580.188 -665.809 643.589 -631.125 705.612C-621.717 721.416 -614.041 735.662 -604.63 751.479C-507.216 912.702 -388.423 1043.05 -255.421 1101.44C-242.228 1107.01 -228.384 1111.94 -213.956 1116.23C-115.774 1145.55 -19.4322 1119.83 42.5795 1023.76L44.625 1017C49.0913 1009.54 54.0696 1003.99 58.5359 996.529C87.334 930.607 110.642 868.325 145.584 810.932C146.273 808.676 149.185 809.893 149.874 807.637C160.655 790.128 171.28 776.778 184.798 764.651C185.998 764.305 186.161 760.088 187.361 759.742C276.54 678.428 401.479 706.258 509.998 798.429C511.71 799.993 514.111 799.301 515.837 800.916C595.86 868.385 663.705 957.881 723.861 1061.95C729.333 1072.72 734.293 1081.58 740.945 1092C802.972 1207.88 853.37 1333.28 891.069 1464.37M-750.764 557.08C-723.728 622.489 -693.894 683.144 -658.999 742.34C-649.527 757.417 -641.81 771.012 -632.338 786.088C-534.092 939.801 -412.748 1063.1 -274.875 1116.35C-261.157 1121.45 -246.81 1125.9 -231.905 1129.68C-129.875 1155.66 -28.5087 1128.43 38.5314 1033.91L40.8358 1027.31C45.661 1019.98 50.9773 1014.49 55.8225 1007.15C87.4347 942.644 113.216 881.79 151.075 825.391C151.841 823.182 154.856 824.301 155.622 822.092C167.309 804.822 178.724 791.689 193.142 779.623C194.402 779.259 194.677 775.218 195.937 774.855C291.08 694.004 421.099 717.867 532.577 804.431C534.332 805.913 536.852 805.187 538.604 806.656C620.803 870.022 689.764 954.998 750.305 1054.23C755.779 1064.52 760.759 1072.97 767.494 1082.9C829.761 1193.57 879.621 1313.74 916.104 1439.73M-780.776 601.5C-755.004 662.351 -724.355 721.445 -688.948 778.554C-679.365 792.917 -671.6 805.887 -662.038 820.256C-562.754 966.664 -438.584 1083.06 -295.577 1131.26C-281.263 1135.88 -266.357 1139.84 -250.932 1143.12C-144.79 1165.79 -38.123 1136.94 34.1378 1043.81L36.7211 1037.36C41.9417 1030.14 47.6361 1024.69 52.923 1017.4C87.4651 954.173 115.819 894.634 156.708 839.086C157.555 836.937 160.709 837.932 161.536 835.789C174.228 818.813 186.387 805.799 201.737 793.756C203.077 793.37 203.453 789.466 204.794 789.08C306.153 708.425 441.62 728.41 556.284 809.496C558.079 810.883 560.759 810.11 562.534 811.503C647.081 870.842 717.279 951.43 778.417 1046.06C783.917 1055.88 788.907 1063.88 795.745 1073.4C858.395 1179.05 907.805 1294.09 943.134 1415.22M-813.215 645.159C-787.611 703.528 -756.9 760.021 -721.222 814.381C-711.526 828.045 -703.702 840.428 -694.006 854.091C-593.455 993.405 -466.213 1103 -317.709 1146.23C-302.758 1150.37 -287.257 1153.84 -271.278 1156.63C-160.747 1175.97 -48.5149 1145.45 29.1991 1053.53L32.0178 1047.24C37.6166 1040.07 43.7466 1034.71 49.3427 1027.61C86.8939 965.556 117.919 907.221 161.891 852.479C162.835 850.372 166.093 851.268 167.016 849.167C180.596 832.449 193.706 819.523 210.032 807.504C211.433 807.1 211.92 803.29 213.32 802.886C321.19 722.398 462.421 738.399 580.554 814.093C582.411 815.392 585.192 814.591 587.049 815.89C674.135 871.272 745.749 947.574 807.532 1037.69C813.065 1047.08 818.142 1054.76 825.052 1063.74C888.166 1164.45 937.272 1274.66 971.482 1391.04M-848.13 688.255C-822.61 744.211 -791.748 798.162 -755.711 849.819C-745.89 862.822 -737.989 874.612 -728.168 887.614C-626.128 1020.02 -495.527 1123.09 -341.138 1161.25C-325.51 1164.91 -309.372 1167.89 -292.798 1170.17C-177.593 1186.21 -59.5165 1153.94 23.8666 1063.06L26.9537 1056.89C33.0018 1049.86 39.4892 1044.48 45.4607 1037.48C86.1439 976.505 119.924 919.28 167.214 865.18C168.259 863.128 171.636 863.906 172.661 861.859C187.242 845.339 201.238 832.504 218.594 820.467C220.074 820.04 220.66 816.354 222.14 815.927C336.806 735.384 484.192 747.415 606.046 817.851C607.966 819.063 610.907 818.216 612.803 819.42C702.662 870.917 775.85 943.039 838.439 1028.77C844.005 1037.71 849.135 1045.03 856.162 1053.56C919.919 1149.52 968.782 1255.04 1001.92 1366.85M-885.623 730.827C-860.151 784.47 -829.072 835.961 -792.585 884.971C-782.616 897.319 -774.61 908.536 -764.621 920.878C-660.92 1046.54 -526.573 1143.16 -365.973 1176.35C-349.633 1179.53 -332.82 1182.03 -315.607 1183.82C-195.474 1196.54 -71.2127 1162.41 18.0546 1072.34L21.4336 1066.29C27.9137 1059.35 34.8157 1053.98 41.2958 1047.04C85.2302 987.013 121.864 930.786 172.526 877.285C173.645 875.267 177.168 875.947 178.286 873.929C193.926 857.576 208.848 844.823 227.29 832.736C228.831 832.292 229.551 828.706 231.091 828.262C352.872 747.489 506.862 755.531 632.661 820.743C634.619 821.86 637.72 820.966 639.683 822.097C732.499 869.752 807.433 937.77 870.977 1019.26C876.268 1027.44 882.268 1035.31 888.953 1042.83C953.454 1134.16 1002.19 1235.12 1034.33 1342.55M-925.818 772.956C-900.342 824.369 -869.021 873.486 -832.093 919.937C-821.929 931.645 -813.81 942.316 -803.566 954C-697.901 1073.16 -559.623 1163.38 -392.318 1191.59C-375.208 1194.28 -357.672 1196.28 -339.783 1197.59C-214.42 1206.97 -83.6348 1170.9 11.8071 1081.59L15.4747 1075.66C22.4034 1068.78 29.7567 1063.41 36.6853 1056.53C84.0138 997.344 123.608 942.03 177.861 888.981C179.077 887.004 182.743 887.574 183.958 885.597C200.692 869.388 216.608 856.723 236.163 844.524C237.783 844.057 238.614 840.565 240.235 840.097C369.457 758.944 530.284 762.985 660.473 823.026C662.498 824.069 665.759 823.128 667.804 824.165C763.813 868.05 840.673 932.08 905.276 1009.4C910.654 1017.21 916.758 1024.68 923.559 1031.78C988.956 1118.58 1037.67 1215.17 1068.85 1318.39M-968.812 814.71C-943.218 863.971 -911.523 910.771 -874.008 954.694C-863.643 965.787 -855.392 975.906 -845.026 987C-737.212 1099.78 -594.577 1183.74 -420.203 1206.97C-402.296 1209.18 -384.002 1210.72 -365.394 1211.56C-234.465 1217.59 -96.8111 1179.48 5.04053 1090.69L9.0166 1084.86C16.4303 1078.02 24.2349 1072.64 31.6321 1065.83C82.4973 1007.37 125.171 952.854 183.125 900.184C184.438 898.248 188.266 898.702 189.599 896.76C205.821 881.771 224.509 867.96 245.114 855.734C246.834 855.238 247.776 851.839 249.477 851.348C386.5 769.628 554.649 769.626 689.489 824.587C691.597 825.536 695.018 824.55 697.129 825.512C796.571 865.641 875.509 925.763 941.356 999.042C946.815 1006.49 953.033 1013.57 959.973 1020.25C1026.9 1103.87 1075.78 1195.91 1105.46 1294.17M-1014.74 856.185C-988.975 903.374 -956.849 947.926 -918.701 989.375C-908.111 999.862 -899.697 1009.46 -889.11 1019.93C-778.871 1126.48 -631.581 1204.25 -449.693 1222.55C-429.819 1224.32 -412.017 1225.21 -392.454 1225.59C-255.602 1228.23 -110.783 1187.98 -2.21838 1099.55L2.08276 1093.81C9.98159 1087.01 18.2174 1081.63 26.1763 1074.82C80.7044 1017.01 126.563 963.198 188.381 910.79C189.808 908.878 193.802 909.227 195.229 907.315C212.767 892.259 232.614 878.445 254.243 866.239C256.044 865.72 257.117 862.407 258.918 861.888C404.088 779.446 579.996 775.345 719.795 825.247C721.989 826.116 725.59 825.077 727.764 825.952C830.891 862.378 912.097 918.662 979.32 987.986C984.891 995.085 991.239 1001.79 998.324 1008.07C1066.23 1087.01 1115.35 1175.05 1144.31 1269.7M-1063.71 897.449C-1037.73 942.656 -1005.13 985.033 -966.3 1024.06C-955.461 1033.95 -946.882 1043.04 -936.056 1052.87C-823.14 1153.33 -670.827 1225.08 -480.967 1238.29C-460.163 1239.52 -441.719 1239.99 -421.174 1239.85C-278.061 1239.07 -125.653 1196.58 -10.0807 1108.32L-5.45801 1102.65C2.96593 1095.89 11.7496 1090.46 20.1736 1083.7C78.524 1026.4 127.731 973.176 193.582 920.94C195.136 919.102 199.283 919.297 200.838 917.458C219.732 902.318 240.789 888.475 263.505 876.261C265.405 875.713 266.587 872.481 268.487 871.933C422.227 788.577 606.332 780.319 751.452 825.226C753.798 825.94 757.499 824.873 759.773 825.719C866.828 858.468 950.512 910.966 1019.25 976.448C1024.93 983.208 1031.42 989.55 1038.67 995.427C1107.63 1069.78 1157.07 1153.96 1185.35 1245.18M-1115.89 938.599C-1089.6 981.891 -1056.44 1022.15 -1016.86 1058.79C-1005.75 1068.1 -996.98 1076.69 -985.865 1086C-870.021 1180.49 -712.312 1246.24 -514 1254.4C-492.264 1255.09 -472.875 1255.06 -451.485 1254.45C-301.758 1250.21 -141.361 1205.36 -18.4608 1117.11L-13.4965 1111.5C-4.53086 1104.75 4.78061 1099.28 13.7462 1092.53C76.0851 1035.63 128.767 982.914 198.837 930.74C200.491 928.873 204.839 929.01 206.493 927.143C226.801 911.902 249.123 898 272.982 885.733C274.983 885.156 276.292 881.999 278.293 881.422C441.009 796.98 633.787 784.497 784.579 824.433C786.926 825.147 790.927 823.993 793.274 824.707C904.521 853.801 990.873 902.583 1061.29 964.298C1067.12 970.73 1073.76 976.714 1081.18 982.198C1151.37 1051.99 1201.32 1132.44 1229.06 1220.37" stroke="url(#paint0_linear_961_1223)" stroke-miterlimit="10"/>
<defs>
<linearGradient id="paint0_linear_961_1223" x1="-997.74" y1="1383.38" x2="1121.59" y2="815.366" gradientUnits="userSpaceOnUse">
<stop stop-color="#AEFF01"/>
<stop offset="1" stop-color="#01D1FF"/>
</linearGradient>
</defs>
</svg>
