<svg width="1920" height="1770" viewBox="0 0 1920 1770" fill="none" xmlns="http://www.w3.org/2000/svg">
<g opacity="0.15">
<path d="M3239.75 1270.11L3233.61 1270.32C3217.3 1270.21 3203.02 1270.26 3186.73 1270.16C3167.42 1269.82 3150.14 1269.64 3127.83 1268.85C3112.63 1268.23 3100.48 1267.83 3085.3 1267.2C3069.11 1266.57 3053.95 1265.74 3036.78 1264.87C3034.77 1264.72 3033.75 1264.64 3031.74 1264.49C2917.87 1258.5 2791.38 1247.95 2632.18 1231.24C2622.18 1230.1 2613.18 1229.11 2604.18 1228.2C2600.19 1227.73 2596.19 1227.27 2592.2 1226.81C2590.19 1226.58 2589.17 1226.57 2587.21 1226.33C2491.31 1215.77 2395.44 1204.09 2288.65 1189.96C2284.66 1189.43 2280.65 1188.85 2276.67 1188.3C2169.92 1174.02 2066.08 1159.02 1959.1 1142.34C1952.11 1141.29 1944.1 1140.01 1937.11 1138.95C1933.12 1138.35 1930.11 1137.83 1926.1 1137.16C1852.08 1125.52 1780.93 1113.61 1710.65 1101.35C1684.53 1096.72 1659.39 1092.17 1633.22 1087.47C1632.2 1087.26 1630.2 1086.87 1629.18 1086.65C1598.99 1081.21 1570.76 1075.92 1542.46 1070.35C1540.44 1069.98 1539.44 1069.83 1537.43 1069.45C1533.38 1068.64 1529.33 1067.83 1525.28 1067.01C1523.26 1066.63 1522.26 1066.49 1520.24 1066.11C1420.03 1046.37 1341.54 1029.23 1278.61 1013.15C1234.32 1002.42 1187.05 991.603 1127.77 979.425C1102.19 974.187 1077.66 969.242 1049.13 963.839C1043 962.657 1037.89 961.624 1031.76 960.442C1029.73 960.07 1028.72 959.921 1026.69 959.549C898.003 934.946 761.042 912.058 616.51 889.686L605.42 888.04C451.819 864.47 301.269 843.722 157.702 825.757C153.705 825.228 150.747 824.919 146.78 824.46C87.0098 816.955 32.4854 810.602 -23.8734 804.17C-25.8498 803.937 -26.7876 803.928 -28.7685 803.71C-38.6679 802.561 -47.5518 801.563 -56.4056 800.635C-60.3623 800.182 -64.321 799.729 -68.2816 799.275C-283.646 775.85 -441.649 763.243 -562.046 759.063C-566.675 758.934 -571.353 758.737 -576.979 758.454C-584.405 758.216 -590.865 758.06 -598.285 757.823C-614.781 757.6 -632.387 757.011 -645.817 757.308" stroke="url(#paint0_linear_837_1391)" stroke-miterlimit="10"/>
<path d="M3158.49 1251.18L3152.53 1251.56C3136.68 1251.8 3122.82 1252.16 3107 1252.42C3088.24 1252.47 3071.46 1252.65 3049.8 1252.27C3035.05 1251.92 3023.25 1251.74 3008.5 1251.37C2992.79 1251.04 2978.08 1250.42 2961.41 1249.85L2956.51 1249.54C2846 1245.39 2723.25 1236.39 2568.77 1221.27C2559.06 1220.23 2550.32 1219.32 2541.6 1218.5C2537.72 1218.06 2533.84 1217.64 2529.96 1217.24C2528.02 1217.03 2527.05 1217.05 2525.12 1216.84C2432.08 1207.17 2339.08 1196.26 2235.44 1182.83C2231.56 1182.33 2227.69 1181.77 2223.81 1181.24C2120.22 1167.65 2019.45 1153.18 1915.6 1136.89C1908.8 1135.87 1901.04 1134.62 1894.24 1133.6C1890.36 1133.01 1887.44 1132.5 1883.55 1131.83C1811.69 1120.45 1742.58 1108.7 1674.3 1096.54C1648.91 1091.94 1624.47 1087.4 1599.05 1082.71C1598.06 1082.51 1596.13 1082.1 1595.12 1081.89C1565.77 1076.46 1538.33 1071.17 1510.8 1065.54C1508.84 1065.18 1507.85 1065.03 1505.91 1064.66L1494.09 1062.17C1492.13 1061.79 1491.15 1061.64 1489.2 1061.28C1391.71 1041.36 1315.25 1023.88 1253.84 1007.21C1210.63 996.145 1164.54 985.05 1106.79 972.696C1081.88 967.387 1057.97 962.403 1030.2 956.953C1024.23 955.764 1019.25 954.719 1013.28 953.525C1011.3 953.153 1010.33 953.012 1008.35 952.638C883.021 927.886 749.788 905.27 609.284 883.409L598.507 881.812C449.189 858.813 303.01 838.958 163.717 822.06C159.835 821.562 156.968 821.283 153.127 820.857C95.1545 813.782 42.3215 807.928 -12.3079 801.993C-14.2215 801.778 -15.1216 801.789 -17.0395 801.567C-26.6413 800.504 -35.2391 799.589 -43.8099 798.754L-55.3063 797.475C-263.826 776.185 -416.335 765.783 -531.976 764.059C-536.423 764.03 -540.909 763.92 -546.324 763.745C-553.453 763.66 -559.649 763.646 -566.767 763.564C-582.567 763.728 -599.467 763.534 -612.277 764.179" stroke="url(#paint1_linear_837_1391)" stroke-miterlimit="10"/>
<path d="M3079.44 1231.79L3073.65 1232.35C3058.26 1232.97 3044.81 1233.7 3029.44 1234.33C3011.22 1234.81 2994.94 1235.39 2973.91 1235.44C2959.59 1235.37 2948.12 1235.44 2933.82 1235.37C2918.57 1235.34 2904.29 1234.98 2888.11 1234.71C2886.21 1234.62 2885.26 1234.57 2883.36 1234.47C2776.13 1232.3 2657.06 1225.02 2507.15 1211.54C2497.73 1210.59 2489.26 1209.77 2480.79 1209.05C2477.03 1208.67 2473.26 1208.28 2469.5 1207.9C2467.61 1207.71 2466.68 1207.75 2464.8 1207.56C2374.56 1198.83 2284.34 1188.7 2183.77 1176C2180.02 1175.53 2176.24 1174.98 2172.49 1174.48C2071.99 1161.59 1974.2 1147.65 1873.36 1131.74C1866.77 1130.75 1859.23 1129.52 1852.61 1128.51C1848.85 1127.94 1846.01 1127.43 1842.23 1126.77C1772.45 1115.63 1705.32 1104.02 1638.97 1091.92C1614.28 1087.32 1590.54 1082.79 1565.83 1078.1C1564.86 1077.9 1562.97 1077.5 1562 1077.29C1533.47 1071.85 1506.78 1066.54 1479.98 1060.85C1478.09 1060.45 1477.13 1060.34 1475.23 1059.96L1463.72 1057.45C1461.83 1057.05 1460.87 1056.94 1458.97 1056.56C1364.09 1036.4 1289.6 1018.47 1229.6 1001.11C1187.42 989.633 1142.44 978.194 1086.15 965.606C1061.87 960.195 1038.57 955.105 1011.52 949.635C1005.72 948.412 1000.84 947.385 995.036 946.161C993.111 945.789 992.16 945.651 990.229 945.279C868.126 920.267 738.484 897.865 601.866 876.486L591.391 874.941C446.211 852.477 304.237 833.492 169.147 817.731C165.383 817.252 162.611 817.011 158.884 816.62C102.657 810.028 51.4819 804.66 -1.4552 799.265C-3.31342 799.073 -4.17724 799.109 -6.03394 798.912C-15.3278 797.942 -23.666 797.116 -31.9304 796.38L-43.0692 795.216C-244.864 776.179 -391.932 768.149 -502.818 769.103C-507.077 769.177 -511.381 769.167 -516.579 769.101C-523.41 769.188 -529.334 769.329 -536.151 769.413C-551.253 769.999 -567.435 770.179 -579.623 771.276" stroke="url(#paint2_linear_837_1391)" stroke-miterlimit="10"/>
<path d="M3002.56 1211.83L2996.94 1212.57C2982 1213.62 2968.93 1214.73 2954.02 1215.78C2936.34 1216.73 2920.54 1217.74 2900.11 1218.27C2886.21 1218.51 2875.09 1218.85 2861.21 1219.08C2846.4 1219.39 2832.54 1219.33 2816.85 1219.38C2815.01 1219.31 2814.09 1219.28 2812.24 1219.21C2708.23 1219.21 2592.71 1213.74 2447.31 1202.02C2438.17 1201.16 2429.95 1200.44 2421.75 1199.82C2418.09 1199.48 2414.44 1199.14 2410.79 1198.79C2408.98 1198.62 2408.06 1198.69 2406.24 1198.52C2318.69 1190.77 2231.21 1181.48 2133.65 1169.52C2130 1169.07 2126.35 1168.52 2122.7 1168.07C2025.21 1155.9 1930.31 1142.49 1832.42 1126.93C1826.02 1125.96 1818.69 1124.76 1812.3 1123.8C1808.64 1123.25 1805.88 1122.73 1802.21 1122.08C1734.46 1111.17 1669.25 1099.65 1604.77 1087.57C1580.78 1082.98 1557.68 1078.41 1533.66 1073.72C1532.71 1073.48 1530.86 1073.13 1529.93 1072.87C1502.19 1067.41 1476.22 1062.04 1450.15 1056.26C1448.3 1055.87 1447.38 1055.74 1445.52 1055.36C1441.79 1054.51 1438.06 1053.66 1434.33 1052.8C1432.47 1052.41 1431.56 1052.29 1429.7 1051.91C1337.32 1031.41 1264.67 1012.93 1206.03 994.745C1164.83 982.788 1120.89 970.926 1065.97 958.038C1042.29 952.473 1019.57 947.299 993.198 941.751C987.531 940.557 982.795 939.444 977.13 938.221C975.26 937.827 974.328 937.71 972.431 937.327C853.393 911.956 727.206 889.698 594.341 868.773L584.164 867.268C442.978 845.32 305.109 827.229 174.1 812.626C170.45 812.182 167.762 811.97 164.154 811.621C109.632 805.503 60.0522 800.667 8.81161 795.841C7.00446 795.666 6.18282 795.727 4.38151 795.553C-4.61185 794.681 -12.6843 793.945 -20.7038 793.307C-24.3171 792.953 -27.9151 792.603 -31.4972 792.256C-226.685 775.601 -368.353 770.139 -474.457 774.006C-478.522 774.201 -482.645 774.299 -487.625 774.358C-494.149 774.63 -499.811 774.941 -506.328 775.208C-520.724 776.257 -536.18 776.871 -547.742 778.426" stroke="url(#paint3_linear_837_1391)" stroke-miterlimit="10"/>
<path d="M2927.74 1191.17L2922.29 1192.13C2907.78 1193.65 2895.11 1195.18 2880.65 1196.68C2863.49 1198.14 2848.16 1199.63 2828.35 1200.69C2814.86 1201.28 2804.09 1201.87 2790.62 1202.46C2776.27 1203.14 2762.82 1203.36 2747.6 1203.78C2745.8 1203.76 2744.91 1203.74 2743.12 1203.7C2642.27 1206.05 2530.25 1202.53 2389.23 1192.7C2380.37 1191.97 2372.41 1191.32 2364.44 1190.81L2353.82 1189.91C2352.05 1189.75 2351.18 1189.86 2349.41 1189.71C2264.55 1183.02 2179.7 1174.58 2085.06 1163.39C2081.52 1162.97 2077.97 1162.43 2074.44 1162.02C1979.88 1150.58 1887.8 1137.71 1792.75 1122.47C1786.54 1121.54 1779.43 1120.35 1773.19 1119.41C1769.63 1118.87 1766.97 1118.36 1763.4 1117.71C1697.62 1107 1634.25 1095.56 1571.57 1083.45C1548.25 1078.84 1525.78 1074.24 1502.42 1069.51C1501.51 1069.26 1499.7 1068.88 1498.79 1068.63C1471.81 1063.14 1446.54 1057.69 1421.15 1051.78C1419.34 1051.4 1418.45 1051.26 1416.65 1050.88L1405.74 1048.26C1403.94 1047.88 1403.05 1047.74 1401.24 1047.36C1311.25 1026.4 1240.36 1007.26 1182.97 988.117C1142.66 975.584 1099.72 963.227 1046.15 949.969C1023.03 944.271 1000.86 938.934 975.15 933.285C969.628 932.04 965.004 930.922 959.459 929.668C957.631 929.282 956.73 929.161 954.9 928.781C838.792 902.917 715.928 880.748 586.68 860.225L576.78 858.773C439.453 837.295 305.573 820.114 178.552 806.735C175.007 806.314 172.408 806.138 168.902 805.844C116.027 800.228 68.0373 795.944 18.446 791.723C16.7016 791.567 15.909 791.657 14.1763 791.504C5.47023 790.732 -2.3401 790.098 -10.0928 789.567C-13.5798 789.263 -17.0615 788.954 -20.5376 788.641C-209.218 774.531 -345.516 771.843 -446.795 778.911C-450.673 779.238 -454.612 779.448 -459.375 779.64C-465.59 780.114 -470.987 780.623 -477.198 781.081C-490.872 782.642 -505.602 783.735 -516.521 785.797" stroke="url(#paint4_linear_837_1391)" stroke-miterlimit="10"/>
<path d="M2854.89 1169.63L2849.61 1170.81C2835.55 1172.82 2823.25 1174.84 2809.22 1176.85C2792.57 1178.86 2777.72 1180.88 2758.52 1182.51C2745.44 1183.46 2734.98 1184.41 2721.92 1185.37C2708.01 1186.44 2694.96 1187 2680.2 1187.83C2678.47 1187.83 2677.59 1187.85 2675.87 1187.84C2578.13 1192.75 2469.53 1191.35 2332.82 1183.53C2324.23 1182.87 2316.5 1182.38 2308.79 1181.98C2305.35 1181.73 2301.92 1181.47 2298.48 1181.21C2296.77 1181.08 2295.93 1181.21 2294.19 1181.08C2211.95 1175.52 2129.68 1167.99 2037.9 1157.6C2034.47 1157.21 2031.02 1156.72 2027.59 1156.3C1935.91 1145.64 1846.57 1133.29 1754.28 1118.35C1748.25 1117.44 1741.34 1116.28 1735.31 1115.37C1731.87 1114.85 1729.27 1114.33 1725.8 1113.68C1661.93 1103.17 1600.36 1091.76 1539.41 1079.59C1516.73 1074.93 1494.87 1070.27 1472.14 1065.49C1471.25 1065.23 1469.49 1064.84 1468.61 1064.59C1442.35 1059.05 1417.75 1053.47 1392.99 1047.41C1391.24 1047.04 1390.37 1046.89 1388.62 1046.48L1377.98 1043.78C1376.23 1043.41 1375.36 1043.26 1373.61 1042.86C1285.91 1021.33 1216.67 1001.4 1160.43 981.133C1120.95 967.937 1078.94 954.991 1026.61 941.276C1004.04 935.371 982.38 929.879 957.299 924.111C951.91 922.832 947.389 921.678 941.994 920.398C940.206 920.021 939.341 919.884 937.555 919.502C824.216 893.009 704.525 870.846 578.796 850.727L569.17 849.31C435.562 828.273 305.551 812.033 182.425 799.922C178.989 799.535 176.477 799.4 173.091 799.138C121.866 794.058 75.4018 790.359 27.4375 786.779C25.7543 786.647 24.9673 786.761 23.3134 786.635C14.8858 785.974 7.338 785.441 -0.151011 785.029L-10.2559 784.237C-192.517 772.848 -323.449 773.178 -419.85 783.763C-423.532 784.228 -427.285 784.57 -431.822 784.906C-437.735 785.604 -442.845 786.305 -448.751 786.999C-461.721 789.115 -475.691 790.74 -485.945 793.365" stroke="url(#paint5_linear_837_1391)" stroke-miterlimit="10"/>
<path d="M2783.92 1147.12L2778.8 1148.58C2765.17 1151.16 2753.24 1153.68 2739.66 1156.26C2723.54 1158.9 2709.11 1161.49 2690.53 1163.76C2677.85 1165.12 2667.72 1166.42 2655.06 1167.78C2641.58 1169.31 2628.94 1170.24 2614.64 1171.49L2610.43 1171.6C2515.76 1179.33 2410.54 1180.23 2278.02 1174.58C2269.69 1174.06 2262.2 1173.65 2254.74 1173.4C2251.41 1173.19 2248.08 1172.98 2244.75 1172.76C2243.09 1172.66 2242.27 1172.81 2240.61 1172.72C2160.93 1168.36 2081.19 1161.81 1992.2 1152.24C1988.87 1151.88 1985.52 1151.41 1982.2 1151.02C1893.29 1141.16 1806.62 1129.34 1717.05 1114.69C1711.2 1113.8 1704.49 1112.65 1698.64 1111.77C1695.3 1111.26 1692.74 1110.74 1689.4 1110.09C1627.37 1099.74 1567.53 1088.33 1508.26 1076.05C1486.19 1071.33 1464.92 1066.59 1442.8 1061.73C1441.93 1061.46 1440.22 1061.07 1439.35 1060.8C1413.79 1055.15 1389.83 1049.46 1365.7 1043.2C1363.99 1042.81 1363.16 1042.67 1361.44 1042.3L1351.09 1039.5C1349.37 1039.11 1348.54 1038.97 1346.82 1038.6C1261.29 1016.38 1193.61 995.519 1138.41 973.963C1099.69 959.984 1058.55 946.355 1007.39 932.093C985.311 925.967 964.145 920.252 939.658 914.329C934.393 913.007 929.97 911.811 924.703 910.495C922.95 910.125 922.12 909.95 920.374 909.582C809.647 882.313 693.008 860.078 570.619 840.275L561.266 838.875C431.238 818.244 304.99 802.952 185.677 792.199C182.337 791.844 179.919 791.752 176.644 791.536C127.009 787.009 82.0671 783.945 35.6811 781.046C34.0533 780.938 33.3331 781.123 31.707 780.986C23.5622 780.442 16.2678 780.019 9.03949 779.737C5.79948 779.522 2.54255 779.303 -0.731503 779.078C-176.65 770.622 -302.209 774.247 -393.639 788.706C-397.126 789.332 -400.684 789.818 -405 790.315C-410.598 791.256 -415.425 792.184 -421.018 793.127C-433.216 795.868 -446.46 798.058 -456.031 801.314" stroke="url(#paint6_linear_837_1391)" stroke-miterlimit="10"/>
<path d="M2714.72 1123.43L2709.77 1125.19C2696.57 1128.38 2685.03 1131.49 2671.84 1134.68C2656.23 1138 2642.29 1141.24 2624.25 1144.19C2611.98 1146.01 2602.16 1147.69 2589.9 1149.53C2576.84 1151.55 2564.6 1152.87 2550.73 1154.6C2549.09 1154.68 2548.28 1154.73 2546.64 1154.82C2455.01 1165.65 2353.11 1169.06 2224.73 1165.75C2216.66 1165.36 2209.4 1165.07 2202.17 1164.96C2198.94 1164.8 2195.72 1164.63 2192.49 1164.48C2190.88 1164.4 2190.1 1164.6 2188.49 1164.52C2111.35 1161.47 2034.11 1155.93 1947.84 1147.24C1944.62 1146.91 1941.37 1146.44 1938.15 1146.1C1851.96 1137.08 1767.89 1125.79 1680.91 1111.38C1675.23 1110.53 1668.71 1109.38 1663.03 1108.52C1659.79 1108.03 1657.33 1107.5 1654.06 1106.85C1593.81 1096.65 1535.65 1085.2 1478 1072.74C1456.52 1067.94 1435.81 1063.1 1414.27 1058.16C1413.42 1057.87 1411.75 1057.47 1410.91 1057.18C1386.02 1051.42 1362.67 1045.57 1339.15 1039.07C1337.48 1038.67 1336.66 1038.55 1335 1038.14C1331.62 1037.17 1328.24 1036.19 1324.87 1035.22C1323.2 1034.81 1322.39 1034.7 1320.72 1034.28C1237.25 1011.22 1171.01 989.268 1116.76 966.224C1078.74 951.345 1038.36 936.917 988.322 921.986C966.706 915.581 946.002 909.631 922.068 903.504C916.92 902.139 912.593 900.889 907.444 899.523C905.745 899.119 904.921 898.991 903.218 898.598C794.955 870.378 681.214 847.982 562.057 828.477L552.956 827.13C426.383 806.868 303.786 792.563 188.205 783.243C184.972 782.922 182.634 782.875 179.47 782.706C131.4 778.777 87.9516 776.389 43.1403 774.228C41.5679 774.142 40.8912 774.326 39.3158 774.251C31.4449 773.833 24.3954 773.531 17.4306 773.389C14.2858 773.218 11.1405 773.049 7.99467 772.881C-161.64 767.586 -281.796 774.822 -368.155 793.564C-371.435 794.36 -374.807 795.022 -378.889 795.677C-384.18 796.889 -388.712 798.067 -393.972 799.28C-405.405 802.71 -417.884 805.547 -426.74 809.497" stroke="url(#paint7_linear_837_1391)" stroke-miterlimit="10"/>
<path d="M2647.2 1098.38L2642.42 1100.46C2629.64 1104.35 2618.49 1108.09 2605.77 1111.98C2590.67 1116.06 2577.18 1120 2559.73 1123.73C2547.84 1126.04 2538.35 1128.15 2526.5 1130.45C2513.87 1133.01 2502.02 1134.77 2488.61 1137.03L2484.67 1137.34C2396.02 1151.63 2297.39 1157.79 2173.08 1157.04C2165.26 1156.77 2158.24 1156.63 2151.24 1156.66C2148.12 1156.56 2145 1156.45 2141.87 1156.34C2140.31 1156.29 2139.56 1156.54 2137.99 1156.48C2063.29 1154.84 1988.46 1150.42 1904.85 1142.64C1901.73 1142.35 1898.58 1141.89 1895.46 1141.58C1811.94 1133.44 1730.39 1122.71 1645.94 1108.51C1640.43 1107.68 1634.11 1106.55 1628.59 1105.71C1625.44 1105.23 1623.04 1104.7 1619.86 1104.04C1561.36 1093.96 1504.8 1082.42 1448.68 1069.73C1427.79 1064.83 1407.6 1059.85 1386.62 1054.77C1385.79 1054.47 1384.17 1054.05 1383.33 1053.75C1359.09 1047.83 1336.32 1041.78 1313.36 1034.99C1311.73 1034.58 1310.94 1034.48 1309.3 1034.03C1306.01 1033.01 1302.71 1031.99 1299.4 1030.97C1297.78 1030.56 1296.98 1030.46 1295.34 1030.02C1213.8 1005.96 1148.91 982.732 1095.47 957.984C1054.38 940.39 1012.29 924.728 969.367 911.057C948.195 904.306 927.895 898.081 904.489 891.728C899.45 890.305 895.214 888.994 890.188 887.569C888.528 887.156 887.722 887.049 886.065 886.625C780.096 857.265 669.13 834.596 553.071 815.366L544.214 814.071C420.948 794.128 301.911 780.854 189.99 773.067C186.855 772.772 184.601 772.777 181.545 772.665C135.006 769.362 93.029 767.73 49.7819 766.345C48.2634 766.288 47.6276 766.526 46.1032 766.468C38.5047 766.181 31.7099 766.007 24.9982 766.022C21.9611 765.908 18.9244 765.792 15.8883 765.674C-147.5 763.83 -262.199 775.013 -343.355 798.496C-346.423 799.485 -349.591 800.298 -353.45 801.172C-358.392 802.687 -362.637 804.143 -367.566 805.632C-378.204 809.824 -389.885 813.367 -398.011 818.088" stroke="url(#paint8_linear_837_1391)" stroke-miterlimit="10"/>
<path d="M2581.25 1071.79L2576.63 1074.24C2564.28 1078.89 2553.51 1083.34 2541.21 1087.99C2526.61 1092.92 2513.61 1097.61 2496.72 1102.21C2485.22 1105.08 2476.06 1107.67 2464.59 1110.54C2452.39 1113.69 2440.93 1115.94 2427.97 1118.79C2426.44 1118.97 2425.68 1119.06 2424.13 1119.25C2338.54 1137.24 2243.16 1146.43 2122.85 1148.45C2115.27 1148.33 2108.48 1148.33 2101.71 1148.53L2092.64 1148.39C2091.13 1148.37 2090.41 1148.66 2088.9 1148.64C2016.63 1148.52 1944.19 1145.28 1863.19 1138.49C1860.17 1138.24 1857.11 1137.78 1854.08 1137.52C1773.19 1130.3 1694.11 1120.13 1612.09 1106.12C1606.75 1105.31 1600.6 1104.18 1595.25 1103.38C1592.19 1102.91 1589.86 1102.36 1586.77 1101.7C1529.95 1091.71 1474.94 1080.03 1420.3 1067.05C1399.94 1062.01 1380.27 1056.89 1359.82 1051.63C1359 1051.32 1357.43 1050.88 1356.61 1050.56C1332.96 1044.43 1310.76 1038.17 1288.31 1031.07C1286.72 1030.63 1285.96 1030.52 1284.37 1030.09C1281.14 1029.03 1277.91 1027.96 1274.69 1026.9C1273.1 1026.46 1272.36 1026.35 1270.75 1025.92C1191.03 1000.68 1127.35 975.984 1074.61 949.29C1034.37 930.495 992.972 913.784 950.592 899.234C929.81 892.13 909.886 885.538 886.995 878.916C882.055 877.423 877.901 876.044 872.961 874.55C871.331 874.121 870.552 874.008 868.904 873.575C765.058 842.866 656.71 819.863 543.632 800.815L535.009 799.569C421.417 780.908 306.569 768.217 191.02 761.558C187.996 761.31 185.809 761.363 182.861 761.308C137.811 758.674 97.3238 757.819 55.6107 757.319C54.146 757.29 53.5518 757.576 52.0871 757.548C44.7579 757.404 38.2062 757.378 31.755 757.545C28.8237 757.496 25.8941 757.438 22.9668 757.374C-134.192 759.257 -243.362 774.814 -319.151 803.558C-322.228 804.824 -325.378 805.925 -328.585 806.855C-333.188 808.704 -337.123 810.465 -341.713 812.312C-351.525 817.353 -362.399 821.678 -369.752 827.26" stroke="url(#paint9_linear_837_1391)" stroke-miterlimit="10"/>
<path d="M2516.77 1043.32L2512.33 1046.17C2500.41 1051.66 2490.02 1056.91 2478.16 1062.42C2464.07 1068.27 2451.51 1073.88 2435.22 1079.39C2424.12 1082.88 2415.27 1085.99 2404.2 1089.47C2392.43 1093.28 2381.35 1096.09 2368.85 1099.57C2367.36 1099.82 2366.62 1099.93 2365.14 1100.18C2282.54 1122.38 2190.4 1134.9 2074.04 1139.92C2066.72 1139.97 2060.14 1140.12 2053.61 1140.5L2044.82 1140.58C2043.36 1140.58 2042.67 1140.94 2041.2 1140.96C1971.34 1142.51 1901.26 1140.55 1822.81 1134.8C1819.88 1134.58 1816.92 1134.13 1813.99 1133.92C1735.16 1127.67 1656.85 1117.76 1579.35 1104.22C1574.17 1103.43 1568.19 1102.3 1563 1101.52C1560.03 1101.07 1557.77 1100.5 1554.75 1099.82C1499.56 1089.91 1446.04 1078.05 1392.82 1064.69C1372.97 1059.48 1353.78 1054.17 1333.84 1048.73C1333.05 1048.39 1331.5 1047.93 1330.7 1047.59C1307.65 1041.26 1285.95 1034.69 1263.98 1027.23C1262.43 1026.78 1261.66 1026.67 1260.14 1026.22C1256.98 1025.09 1253.82 1023.96 1250.66 1022.82C1249.11 1022.37 1248.34 1022.25 1246.82 1021.8C1168.79 995.199 1106.2 968.808 1054.03 939.895C1017.62 921.447 979.13 903.815 931.84 886.243C911.416 878.7 891.859 871.728 869.389 864.771C864.552 863.179 860.456 861.744 855.613 860.151C854.024 859.707 853.293 859.599 851.669 859.148C749.77 826.859 643.898 803.388 533.668 784.489L525.273 783.291C408.212 763.862 296.014 752.784 191.236 748.402C188.289 748.187 186.207 748.309 183.359 748.314C139.816 746.421 100.761 746.412 60.5841 746.853C59.1718 746.858 58.6315 747.196 57.2075 747.199C50.1431 747.214 43.8401 747.338 37.6461 747.691L29.1767 747.707C-121.752 753.671 -225.295 774.047 -295.516 808.633C-298.335 810.144 -301.259 811.477 -304.266 812.622C-308.514 814.838 -312.132 816.947 -316.368 819.165C-325.319 825.149 -335.342 830.345 -341.88 836.883" stroke="url(#paint10_linear_837_1391)" stroke-miterlimit="10"/>
<path d="M2453.62 1012.85L2449.35 1016.14C2437.87 1022.58 2427.88 1028.7 2416.46 1035.13C2402.89 1042.03 2390.81 1048.6 2375.1 1055.17C2364.4 1059.33 2355.87 1063.03 2345.21 1067.17C2333.86 1071.75 2323.18 1075.11 2311.12 1079.32L2307.54 1080.09C2227.98 1106.93 2139.06 1123.11 2026.61 1131.46C2019.54 1131.68 2013.19 1132 2006.87 1132.58C2004.05 1132.67 2001.22 1132.76 1998.39 1132.84C1996.98 1132.89 1996.33 1133.3 1994.92 1133.35C1927.44 1136.71 1859.67 1136.14 1783.74 1131.5C1780.9 1131.33 1778.03 1130.87 1775.19 1130.71C1698.71 1125.5 1622.75 1116.18 1547.72 1102.77C1542.69 1102.01 1536.88 1100.88 1531.84 1100.12C1528.96 1099.68 1526.75 1099.1 1523.82 1098.4C1470.21 1088.53 1418.12 1076.41 1366.24 1062.61C1346.88 1057.2 1328.15 1051.65 1308.69 1046C1307.91 1045.63 1306.4 1045.15 1305.62 1044.78C1283.11 1038.17 1261.89 1031.27 1240.38 1023.35C1238.87 1022.87 1238.14 1022.77 1236.63 1022.29C1233.53 1021.08 1230.44 1019.88 1227.34 1018.68C1225.83 1018.2 1225.11 1018.1 1223.59 1017.62C1147.11 989.428 1085.49 961.096 1033.74 929.657C997.679 909.665 959.643 890.646 913.093 871.892C892.984 863.843 873.74 856.417 851.681 849.078C846.919 847.416 842.895 845.858 838.127 844.195C836.57 843.724 835.815 843.616 834.27 843.147C734.131 809.022 630.583 784.943 523.071 766.148L514.898 764.997C400.765 745.761 291.819 735.862 190.539 733.39C188.01 733.3 185.473 733.338 182.94 733.503C140.865 732.394 103.255 733.325 64.6029 734.791C63.243 734.83 62.7415 735.228 61.3787 735.255C54.5804 735.446 48.5261 735.742 42.5921 736.293L34.4427 736.514C-110.231 746.954 -208.019 772.662 -272.447 813.743C-274.993 815.517 -277.681 817.11 -280.486 818.505C-284.357 821.121 -287.647 823.625 -291.508 826.248C-299.56 833.285 -308.694 839.458 -314.387 847.061" stroke="url(#paint11_linear_837_1391)" stroke-miterlimit="10"/>
<path d="M2391.69 979.976L2387.61 983.777C2376.57 991.265 2366.99 998.361 2356.01 1005.84C2342.97 1013.89 2331.38 1021.56 2316.26 1029.28C2305.96 1034.2 2297.77 1038.54 2287.53 1043.47C2276.62 1048.87 2266.32 1052.9 2254.73 1057.89L2251.28 1058.84C2174.78 1090.83 2089.08 1111.07 1980.56 1123.03C1973.72 1123.44 1967.59 1123.95 1961.51 1124.73C1958.78 1124.89 1956.06 1125.06 1953.33 1125.22C1951.97 1125.3 1951.35 1125.78 1949.98 1125.87C1884.87 1131.23 1819.41 1132.18 1745.95 1128.74C1743.21 1128.6 1740.41 1128.18 1737.67 1128.05C1663.47 1123.96 1589.8 1115.25 1517.18 1101.95C1512.31 1101.21 1506.66 1100.07 1501.77 1099.33C1499.14 1098.88 1496.53 1098.3 1493.97 1097.59C1441.88 1087.75 1391.16 1075.29 1340.57 1060.94C1321.66 1055.3 1303.37 1049.48 1284.36 1043.56C1283.58 1043.16 1282.13 1042.67 1281.33 1042.27C1259.34 1035.35 1238.58 1028.06 1217.48 1019.63C1216 1019.13 1215.3 1019.02 1213.82 1018.52L1204.69 1014.66C1203.21 1014.16 1202.51 1014.05 1201.02 1013.56C1125.96 983.526 1065.15 952.975 1013.67 918.67C977.866 896.925 940.178 876.292 894.267 856.208C874.413 847.584 855.457 839.64 833.763 831.858C829.076 830.086 825.107 828.42 820.418 826.653C818.886 826.159 818.167 826.053 816.635 825.558C718.046 789.329 616.682 764.481 511.758 745.722L503.79 744.614C392.435 725.513 286.689 716.865 188.86 716.471C186.1 716.34 184.175 716.627 181.547 716.753C140.922 716.499 104.755 718.46 67.639 721.045C66.3298 721.124 65.8716 721.588 64.564 721.661C58.0346 722.04 52.2257 722.52 46.5531 723.286C43.9418 723.433 41.3339 723.583 38.7293 723.736C-99.6485 739.101 -191.521 770.712 -249.883 819.037C-252.141 821.095 -254.583 822.974 -257.183 824.653C-260.667 827.74 -263.596 830.657 -267.073 833.739C-274.178 841.965 -282.38 849.204 -287.164 857.999" stroke="url(#paint12_linear_837_1391)" stroke-miterlimit="10"/>
<path d="M2330.84 944.405L2326.95 948.772C2316.38 957.412 2307.2 965.624 2296.7 974.272C2284.18 983.609 2273.1 992.485 2258.59 1001.51C2248.7 1007.27 2240.84 1012.34 2230.99 1018.1C2220.55 1024.42 2210.64 1029.18 2199.5 1035.06C2198.17 1035.51 2197.5 1035.74 2196.17 1036.2C2122.79 1073.93 2040.35 1098.65 1935.71 1114.65C1929.11 1115.26 1923.2 1115.99 1917.35 1117.04C1914.71 1117.28 1912.07 1117.53 1909.44 1117.78C1908.13 1117.9 1907.54 1118.46 1906.22 1118.58C1843.46 1126.14 1780.29 1128.74 1709.27 1126.59C1706.62 1126.51 1703.91 1126.1 1701.26 1126.01C1630.35 1123.19 1560.58 1115.43 1487.62 1101.81C1482.87 1101.09 1477.4 1099.94 1472.65 1099.23C1470.08 1098.78 1467.55 1098.18 1465.07 1097.45C1414.45 1087.56 1365.02 1074.73 1315.65 1059.74C1297.18 1053.83 1279.29 1047.69 1260.69 1041.45C1259.93 1041.03 1258.48 1040.5 1257.72 1040.07C1236.21 1032.78 1215.86 1025.05 1195.13 1016.01C1193.68 1015.48 1193 1015.38 1191.55 1014.85L1182.57 1010.71C1181.12 1010.18 1180.44 1010.07 1178.98 1009.54C1105.19 977.398 1045.07 944.333 993.658 906.77C957.998 883.036 920.555 860.63 875.173 838.971C855.554 829.686 836.805 821.158 815.441 812.844C810.817 810.954 806.896 809.161 802.273 807.271C800.762 806.746 800.066 806.645 798.555 806.121C701.325 767.41 601.97 741.686 499.504 722.903L491.767 721.809C383.045 702.782 280.407 695.471 186.009 697.338C183.34 697.256 181.508 697.59 178.978 697.829C139.803 698.515 105.068 701.591 69.4967 705.416C68.2267 705.532 67.8337 706.072 66.5828 706.186C60.3163 706.775 54.7542 707.456 49.3485 708.461C46.8446 708.696 44.3426 708.931 41.8427 709.167C-90.1619 729.954 -175.925 768.127 -227.902 824.519C-229.853 826.882 -232.033 829.082 -234.413 831.091C-237.49 834.692 -240.051 838.082 -243.115 841.68C-249.21 851.199 -256.442 859.656 -260.288 869.781" stroke="url(#paint13_linear_837_1391)" stroke-miterlimit="10"/>
<path d="M2270.93 905.772L2267.24 910.76C2257.14 920.728 2248.4 930.142 2238.39 940.099C2226.44 950.874 2215.87 961.09 2201.98 971.574C2192.5 978.271 2184.99 984.152 2175.56 990.841C2165.56 998.181 2156.08 1003.76 2145.42 1010.62L2142.22 1011.98C2072.04 1056.06 1992.88 1085.79 1892.14 1106.22C1886.2 1106.98 1880.3 1108.03 1874.46 1109.36L1866.85 1110.38C1865.57 1110.54 1865.03 1111.18 1863.76 1111.35C1803.41 1121.34 1742.47 1125.75 1673.86 1125C1671.3 1124.97 1668.66 1124.57 1666.11 1124.51C1597.61 1123 1530.04 1115.91 1459.17 1102.29C1454.57 1101.59 1449.24 1100.42 1444.65 1099.72C1442.13 1099.27 1439.66 1098.66 1437.25 1097.89C1388.07 1087.94 1339.89 1074.65 1291.65 1058.91C1273.6 1052.67 1256.06 1046.17 1237.87 1039.56C1237.11 1039.1 1235.69 1038.53 1234.94 1038.07C1213.88 1030.35 1193.9 1022.1 1173.47 1012.39C1172.05 1011.83 1171.38 1011.73 1169.96 1011.17C1167.02 1009.68 1164.07 1008.19 1161.11 1006.7C1159.69 1006.14 1159.03 1006.04 1157.6 1005.48C1084.9 970.919 1025.27 934.964 973.794 893.733C938.156 867.739 900.842 843.284 855.87 819.858C836.416 809.808 817.861 800.588 796.767 791.707C792.196 789.674 788.309 787.739 783.738 785.706C782.255 785.147 781.57 785.054 780.087 784.496C683.983 742.962 586.477 716.164 486.333 697.287L478.774 696.219C372.555 677.205 272.95 671.322 181.966 675.665C179.381 675.635 177.64 676.063 175.215 676.393C137.464 678.089 104.192 682.41 70.1763 687.594C68.9732 687.757 68.6203 688.375 67.4347 688.543C61.9007 689.25 56.4072 690.256 50.9834 691.555L43.8044 692.529C-81.7229 719.315 -161.145 764.785 -206.371 830.191C-208.016 832.883 -209.921 835.439 -212.061 837.828C-214.705 842.001 -216.87 845.92 -219.501 850.09C-224.519 861.044 -230.721 870.878 -233.501 882.498" stroke="url(#paint14_linear_837_1391)" stroke-miterlimit="10"/>
<path d="M2211.81 863.643L2208.32 869.337C2198.73 880.767 2190.44 891.541 2180.93 902.962C2169.58 915.342 2159.54 927.051 2146.29 939.162C2137.25 946.912 2130.1 953.687 2121.11 961.429C2111.58 969.905 2102.52 976.384 2092.34 984.351L2089.27 985.958C2022.39 1037.14 1946.58 1072.39 1849.78 1097.74C1844.04 1098.73 1838.37 1100.04 1832.79 1101.67C1830.34 1102.11 1827.9 1102.55 1825.46 1102.98C1824.25 1103.2 1823.74 1103.94 1822.52 1104.16C1764.51 1116.81 1705.87 1123.23 1639.64 1124C1637.16 1124.02 1634.62 1123.64 1632.15 1123.66C1566.03 1123.58 1500.62 1117.19 1431.76 1103.52C1427.3 1102.83 1422.11 1101.65 1417.65 1100.97C1415.11 1100.58 1413.1 1099.88 1410.45 1099.08C1362.64 1089 1315.64 1075.17 1268.44 1058.55C1250.75 1051.96 1233.58 1045.01 1215.73 1037.99C1214.98 1037.48 1213.57 1036.88 1212.85 1036.38C1192.15 1028.21 1171.98 1019.02 1152.41 1008.86C1151.01 1008.26 1150.36 1008.17 1148.97 1007.57C1146.05 1005.96 1143.14 1004.35 1140.22 1002.73C1138.82 1002.13 1138.18 1002.03 1136.78 1001.43C1065.01 964.121 1005.7 924.895 953.935 879.507C918.186 850.956 880.88 824.181 836.19 798.737C816.864 787.833 798.423 777.836 777.562 768.279C773.035 766.089 769.17 763.987 764.643 761.797C763.176 761.202 762.51 761.107 761.043 760.512C665.826 715.756 570.001 687.688 472.042 668.631L464.664 667.602C360.806 648.531 264.167 644.206 176.581 651.233C174.092 651.28 172.428 651.787 170.117 652.215C133.797 655.031 101.994 660.732 69.5518 667.408C68.4081 667.624 68.1098 668.334 66.9619 668.543C61.6714 669.476 56.4468 670.743 51.3257 672.334C49.0404 672.759 46.7571 673.185 44.4758 673.612C-74.4298 707.028 -147.24 760.618 -185.301 836.097C-186.625 839.156 -188.235 842.11 -190.113 844.926C-192.292 849.734 -194.041 854.245 -196.203 859.057C-200.092 871.673 -205.187 882.988 -206.852 896.278" stroke="url(#paint15_linear_837_1391)" stroke-miterlimit="10"/>
<path d="M2153.29 817.571L2150.03 824.046C2140.96 837.108 2133.15 849.406 2124.17 862.459C2113.44 876.639 2103.96 890.056 2091.39 903.947C2082.8 912.861 2076.03 920.642 2067.49 929.55C2058.45 939.302 2049.83 946.801 2040.16 955.984L2037.22 957.859C1973.76 1016.98 1901.38 1058.42 1808.53 1089.19C1802.99 1090.45 1797.55 1092.06 1792.24 1094.01L1785.2 1095.68C1784.03 1095.95 1783.57 1096.79 1782.39 1097.07C1726.82 1112.69 1670.4 1121.29 1606.6 1123.74C1604.22 1123.81 1601.73 1123.45 1599.36 1123.54C1535.61 1125.02 1472.32 1119.37 1405.42 1105.59C1401.09 1104.93 1396.04 1103.71 1391.72 1103.05C1389.25 1102.68 1387.29 1101.93 1384.7 1101.09C1338.2 1090.89 1292.32 1076.37 1246.11 1058.72C1228.76 1051.67 1211.89 1044.26 1194.37 1036.76C1193.62 1036.21 1192.24 1035.55 1191.51 1035.01C1171.03 1026.19 1151.15 1016.28 1131.97 1005.35C1130.59 1004.7 1129.97 1004.61 1128.59 1003.96C1125.71 1002.21 1122.82 1000.45 1119.93 998.702C1118.56 998.051 1117.93 997.959 1116.56 997.314C1045.53 956.858 986.36 913.925 934.073 863.835C898.078 832.394 860.631 802.993 816.087 775.264C796.828 763.373 778.459 752.499 757.764 742.176C753.265 739.797 749.42 737.517 744.892 735.132C743.437 734.494 742.794 734.404 741.34 733.765C646.754 685.328 552.419 655.766 456.505 636.454L449.31 635.457C347.654 616.256 253.936 613.565 169.76 623.604C167.36 623.67 165.79 624.323 163.578 624.863C128.694 628.908 98.3883 636.109 67.5486 644.461C66.4586 644.729 66.2239 645.543 65.134 645.811C60.0754 646.998 55.119 648.561 50.3144 650.483L43.7993 652.089C-68.3232 692.861 -134.185 755.512 -164.597 842.247C-165.599 845.715 -166.895 849.114 -168.472 852.412C-170.165 857.935 -171.475 863.104 -173.133 868.634C-175.795 883.076 -179.713 896.081 -180.177 911.243" stroke="url(#paint16_linear_837_1391)" stroke-miterlimit="10"/>
<path d="M2095.2 767.018L2092.18 774.39C2083.67 789.28 2076.37 803.287 2067.96 818.165C2057.85 834.336 2049 849.629 2037.13 865.556C2029.01 875.775 2022.63 884.687 2014.58 894.898C2006.06 906.068 1997.88 914.702 1988.73 925.248L1985.94 927.427C1926.05 995.399 1857.2 1043.72 1768.42 1080.54C1763.07 1082.09 1757.86 1084.03 1752.84 1086.35C1750.59 1087.02 1748.34 1087.68 1746.09 1088.35C1744.96 1088.69 1744.54 1089.65 1743.42 1089.99C1690.3 1108.89 1636.19 1119.92 1574.69 1124.2C1572.41 1124.35 1570 1123.99 1567.71 1124.14C1506.33 1127.33 1445.12 1122.47 1380.09 1108.52C1375.9 1107.87 1370.99 1106.6 1366.79 1105.98C1364.42 1105.63 1362.47 1104.83 1359.93 1103.96C1314.69 1093.56 1269.86 1078.27 1224.54 1059.46C1207.48 1051.91 1190.91 1043.95 1173.68 1035.9C1172.93 1035.29 1171.57 1034.59 1170.84 1033.99C1150.52 1024.41 1130.88 1013.7 1112.05 1001.9C1110.69 1001.2 1110.08 1001.11 1108.75 1000.42L1100.15 994.685C1098.79 993.986 1098.18 993.898 1096.83 993.2C1026.35 949.171 967.108 902.047 914.048 846.646C877.638 811.943 839.9 779.569 795.367 749.245C776.122 736.248 757.745 724.366 737.167 713.163C732.688 710.583 728.834 708.089 724.354 705.509C722.915 704.816 722.284 704.729 720.845 704.037C626.605 651.416 533.578 620.123 439.566 600.451L432.535 599.489C332.95 580.072 242.085 579.183 161.338 592.508C159.011 592.664 157.541 593.424 155.445 594.08C122.006 599.482 93.2228 608.354 64.0188 618.55C62.9792 618.902 62.8167 619.812 61.7847 620.138C56.9621 621.615 52.2886 623.502 47.8265 625.775L41.6516 627.756C-63.466 676.702 -122.011 749.458 -144.23 848.817C-144.893 852.75 -145.853 856.643 -147.105 860.468C-148.263 866.796 -149.082 872.709 -150.221 879.036C-151.566 895.528 -154.225 910.417 -153.362 927.684" stroke="url(#paint17_linear_837_1391)" stroke-miterlimit="10"/>
<path d="M2037.34 711.411L2034.59 719.748C2026.67 736.68 2019.92 752.6 2012.12 769.521C2002.72 787.947 1994.48 805.361 1983.34 823.512C1975.73 835.194 1969.78 845.363 1962.22 857.032C1954.25 869.789 1946.57 879.696 1937.97 891.769L1935.31 894.28C1879.19 972.152 1813.99 1028.14 1729.36 1071.64C1724.2 1073.54 1719.23 1075.85 1714.5 1078.55C1712.36 1079.38 1710.22 1080.2 1708.06 1081.01C1707 1081.42 1706.62 1082.5 1705.54 1082.91C1654.92 1105.46 1603.13 1119.18 1544 1125.45C1541.8 1125.69 1539.47 1125.33 1537.27 1125.56C1478.25 1130.63 1419.09 1126.61 1355.87 1112.42C1351.81 1111.8 1347.03 1110.5 1342.97 1109.88C1340.65 1109.53 1338.76 1108.68 1336.3 1107.75C1292.26 1097.08 1248.42 1080.89 1203.89 1060.74C1187.14 1052.63 1170.77 1044.03 1153.79 1035.34C1153.04 1034.68 1151.72 1033.92 1150.97 1033.25C1130.74 1022.81 1111.29 1011.17 1092.76 998.401C1091.42 997.643 1090.83 997.554 1089.5 996.803C1086.64 994.711 1083.79 992.619 1080.93 990.53C1079.58 989.771 1079 989.687 1077.67 988.932C1007.53 940.844 947.946 888.976 893.867 827.594C856.871 789.205 818.682 753.475 773.981 720.205C754.638 705.945 736.232 692.936 715.704 680.737C711.224 677.917 707.363 675.186 702.881 672.371C701.451 671.624 700.833 671.533 699.402 670.791C605.213 613.405 513.282 580.107 421.026 559.976L414.152 559.047C316.485 539.325 228.406 540.391 151.128 557.359C148.891 557.591 147.521 558.48 145.532 559.285C113.555 566.179 86.3299 576.906 58.8211 589.153C57.8425 589.552 57.7444 590.607 56.7658 591.007C52.161 592.819 47.7682 595.077 43.6633 597.74L37.843 600.133C-60.0183 658.165 -110.811 742.205 -124.194 855.65C-124.507 860.111 -125.109 864.558 -125.997 868.969C-126.59 876.194 -126.88 882.933 -127.454 890.157C-127.366 908.948 -128.665 925.936 -126.414 945.555" stroke="url(#paint18_linear_837_1391)" stroke-miterlimit="10"/>
<path d="M1979.48 650.085L1977.01 659.529C1969.75 678.756 1963.58 696.804 1956.43 716.014C1947.76 736.957 1940.22 756.732 1929.91 777.413C1922.82 790.727 1917.31 802.297 1910.3 815.605C1902.91 830.143 1895.7 841.459 1887.72 855.242L1885.21 858.145C1833.08 947.068 1771.71 1011.62 1691.33 1062.62C1686.36 1064.91 1681.64 1067.63 1677.22 1070.75C1675.18 1071.73 1673.13 1072.7 1671.09 1073.67C1670.06 1074.16 1669.74 1075.39 1668.72 1075.88C1620.67 1102.49 1571.23 1119.19 1514.48 1127.67C1512.36 1127.98 1510.1 1127.64 1507.99 1127.95C1451.34 1135.08 1394.2 1131.98 1332.73 1117.47C1328.79 1116.87 1324.12 1115.52 1320.18 1114.92C1317.93 1114.57 1316.08 1113.66 1313.66 1112.66C1270.81 1101.68 1227.83 1084.45 1184.03 1062.76C1167.5 1054 1151.33 1044.68 1134.56 1035.27C1133.8 1034.54 1132.49 1033.69 1131.74 1032.96C1111.54 1021.52 1092.24 1008.82 1073.96 994.975C1072.63 994.157 1072.05 994.07 1070.73 993.247L1062.15 986.358C1060.81 985.539 1060.24 985.453 1058.92 984.631C988.878 931.953 928.739 874.722 873.309 806.587C835.531 764.04 796.699 724.52 751.662 687.924C732.162 672.242 713.635 657.943 693.09 644.619C688.598 641.533 684.708 638.528 680.198 635.438C678.773 634.629 678.173 634.542 676.742 633.731C582.268 570.949 491.225 535.344 400.56 514.638L393.84 513.736C297.925 493.612 212.607 496.815 138.85 517.792C136.7 518.11 135.431 519.147 133.558 520.108C103.059 528.658 77.4446 541.452 51.7077 555.982C50.7884 556.458 50.7664 557.66 49.8646 558.139C45.4825 560.337 41.3878 563.001 37.6679 566.075L32.2077 568.928C-58.0883 637.083 -100.62 733.749 -104.473 862.988C-104.408 868.05 -104.621 873.119 -105.111 878.177C-105.094 886.4 -104.818 894.077 -104.762 902.274C-103.131 923.638 -102.954 942.997 -99.1603 965.229" stroke="url(#paint19_linear_837_1391)" stroke-miterlimit="10"/>
<path d="M1921.36 582.305L1919.21 592.987C1912.64 614.772 1907.12 635.225 1900.68 656.996C1892.82 680.753 1886.03 703.178 1876.56 726.676C1870.05 741.821 1865.01 754.968 1858.58 770.096C1851.82 786.631 1845.15 799.524 1837.8 815.225L1835.45 818.534C1787.58 919.858 1730.22 993.968 1654.24 1053.31C1649.46 1056.05 1645 1059.24 1640.91 1062.81L1635.09 1066.25C1634.12 1066.82 1633.85 1068.21 1632.89 1068.78C1587.49 1099.92 1540.45 1119.92 1486.1 1130.85C1484.07 1131.25 1481.88 1130.91 1479.86 1131.31C1425.6 1140.72 1370.48 1138.56 1310.68 1123.71C1306.86 1123.12 1302.31 1121.71 1298.49 1121.14C1296.3 1120.8 1294.48 1119.82 1292.1 1118.74C1250.37 1107.39 1208.21 1088.96 1165.01 1065.51C1148.68 1056.01 1132.66 1045.87 1116.05 1035.65C1115.29 1034.83 1113.98 1033.93 1113.21 1033.12C1092.99 1020.51 1073.77 1006.63 1055.68 991.573C1054.36 990.676 1053.8 990.604 1052.5 989.7L1043.89 982.12C1042.56 981.222 1042.01 981.151 1040.7 980.247C970.506 922.365 909.511 859.085 852.404 783.344C813.628 736.108 773.956 692.309 728.414 651.958C708.686 634.643 689.955 618.911 669.306 604.302C664.788 600.913 660.847 597.605 656.323 594.215C654.891 593.341 654.304 593.252 652.887 592.347C557.76 523.449 467.375 485.197 378.146 463.782L371.582 462.919C277.256 442.271 194.658 447.816 124.492 473.261C122.423 473.666 121.268 474.87 119.517 475.993C90.5304 486.384 66.5826 501.44 42.6367 518.538C41.7853 519.102 41.8379 520.458 40.9789 521.049C36.8175 523.696 33.0299 526.816 29.7101 530.33L24.6268 533.691C-57.7042 613.146 -91.4436 723.918 -84.9484 870.868C-84.4439 876.894 -84.3011 882.204 -84.3388 888.156C-83.6488 897.51 -82.7593 906.22 -82.0401 915.581C-78.7253 939.828 -76.9546 961.84 -71.4756 987.018" stroke="url(#paint20_linear_837_1391)" stroke-miterlimit="10"/>
</g>
<defs>
<linearGradient id="paint0_linear_837_1391" x1="1337.65" y1="868.789" x2="1275.69" y2="1162.69" gradientUnits="userSpaceOnUse">
<stop stop-color="#AEFF01"/>
<stop offset="1" stop-color="#01D1FF"/>
</linearGradient>
<linearGradient id="paint1_linear_837_1391" x1="1313.99" y1="862.026" x2="1251.69" y2="1157.49" gradientUnits="userSpaceOnUse">
<stop stop-color="#AEFF01"/>
<stop offset="1" stop-color="#01D1FF"/>
</linearGradient>
<linearGradient id="paint2_linear_837_1391" x1="1291.2" y1="854.505" x2="1228.33" y2="1152.7" gradientUnits="userSpaceOnUse">
<stop stop-color="#AEFF01"/>
<stop offset="1" stop-color="#01D1FF"/>
</linearGradient>
<linearGradient id="paint3_linear_837_1391" x1="1269.28" y1="846.13" x2="1205.56" y2="1148.34" gradientUnits="userSpaceOnUse">
<stop stop-color="#AEFF01"/>
<stop offset="1" stop-color="#01D1FF"/>
</linearGradient>
<linearGradient id="paint4_linear_837_1391" x1="1248.22" y1="836.795" x2="1183.36" y2="1144.45" gradientUnits="userSpaceOnUse">
<stop stop-color="#AEFF01"/>
<stop offset="1" stop-color="#01D1FF"/>
</linearGradient>
<linearGradient id="paint5_linear_837_1391" x1="1228.03" y1="826.383" x2="1161.69" y2="1141.04" gradientUnits="userSpaceOnUse">
<stop stop-color="#AEFF01"/>
<stop offset="1" stop-color="#01D1FF"/>
</linearGradient>
<linearGradient id="paint6_linear_837_1391" x1="1208.69" y1="814.756" x2="1140.51" y2="1138.15" gradientUnits="userSpaceOnUse">
<stop stop-color="#AEFF01"/>
<stop offset="1" stop-color="#01D1FF"/>
</linearGradient>
<linearGradient id="paint7_linear_837_1391" x1="1190.22" y1="801.772" x2="1119.79" y2="1135.8" gradientUnits="userSpaceOnUse">
<stop stop-color="#AEFF01"/>
<stop offset="1" stop-color="#01D1FF"/>
</linearGradient>
<linearGradient id="paint8_linear_837_1391" x1="1172.6" y1="787.265" x2="1099.48" y2="1134.06" gradientUnits="userSpaceOnUse">
<stop stop-color="#AEFF01"/>
<stop offset="1" stop-color="#01D1FF"/>
</linearGradient>
<linearGradient id="paint9_linear_837_1391" x1="1155.86" y1="771.037" x2="1079.56" y2="1132.94" gradientUnits="userSpaceOnUse">
<stop stop-color="#AEFF01"/>
<stop offset="1" stop-color="#01D1FF"/>
</linearGradient>
<linearGradient id="paint10_linear_837_1391" x1="1139.99" y1="752.878" x2="1059.95" y2="1132.52" gradientUnits="userSpaceOnUse">
<stop stop-color="#AEFF01"/>
<stop offset="1" stop-color="#01D1FF"/>
</linearGradient>
<linearGradient id="paint11_linear_837_1391" x1="1125.02" y1="732.556" x2="1040.63" y2="1132.85" gradientUnits="userSpaceOnUse">
<stop stop-color="#AEFF01"/>
<stop offset="1" stop-color="#01D1FF"/>
</linearGradient>
<linearGradient id="paint12_linear_837_1391" x1="1110.96" y1="709.806" x2="1021.52" y2="1134.01" gradientUnits="userSpaceOnUse">
<stop stop-color="#AEFF01"/>
<stop offset="1" stop-color="#01D1FF"/>
</linearGradient>
<linearGradient id="paint13_linear_837_1391" x1="1097.82" y1="684.324" x2="1002.58" y2="1136.06" gradientUnits="userSpaceOnUse">
<stop stop-color="#AEFF01"/>
<stop offset="1" stop-color="#01D1FF"/>
</linearGradient>
<linearGradient id="paint14_linear_837_1391" x1="1085.61" y1="655.764" x2="983.698" y2="1139.14" gradientUnits="userSpaceOnUse">
<stop stop-color="#AEFF01"/>
<stop offset="1" stop-color="#01D1FF"/>
</linearGradient>
<linearGradient id="paint15_linear_837_1391" x1="1073.97" y1="623.675" x2="964.427" y2="1143.25" gradientUnits="userSpaceOnUse">
<stop stop-color="#AEFF01"/>
<stop offset="1" stop-color="#01D1FF"/>
</linearGradient>
<linearGradient id="paint16_linear_837_1391" x1="1061.88" y1="587.415" x2="943.638" y2="1148.26" gradientUnits="userSpaceOnUse">
<stop stop-color="#AEFF01"/>
<stop offset="1" stop-color="#01D1FF"/>
</linearGradient>
<linearGradient id="paint17_linear_837_1391" x1="1048.65" y1="546.342" x2="920.508" y2="1154.14" gradientUnits="userSpaceOnUse">
<stop stop-color="#AEFF01"/>
<stop offset="1" stop-color="#01D1FF"/>
</linearGradient>
<linearGradient id="paint18_linear_837_1391" x1="1033.48" y1="499.746" x2="894.095" y2="1160.84" gradientUnits="userSpaceOnUse">
<stop stop-color="#AEFF01"/>
<stop offset="1" stop-color="#01D1FF"/>
</linearGradient>
<linearGradient id="paint19_linear_837_1391" x1="1016.39" y1="447.028" x2="864.272" y2="1168.52" gradientUnits="userSpaceOnUse">
<stop stop-color="#AEFF01"/>
<stop offset="1" stop-color="#01D1FF"/>
</linearGradient>
<linearGradient id="paint20_linear_837_1391" x1="997.198" y1="387.442" x2="830.664" y2="1177.33" gradientUnits="userSpaceOnUse">
<stop stop-color="#AEFF01"/>
<stop offset="1" stop-color="#01D1FF"/>
</linearGradient>
</defs>
</svg>
