<svg width="726" height="974" viewBox="0 0 726 974" fill="none" xmlns="http://www.w3.org/2000/svg">
<g opacity="0.07" clip-path="url(#clip0_1064_1335)">
<path d="M168.476 331.353L506.382 512.78M506.382 512.78L371.745 858.358M506.382 512.78L717.946 208.46M506.382 512.78L762.147 766.845M371.745 858.358L61.1641 672.062L168.467 331.353L386.854 39.7997L717.946 208.46M371.745 858.358L762.147 766.845M717.946 208.46L846.725 150.164M717.946 208.46L951.982 467.894L762.147 766.845" stroke="#01D1FF" stroke-width="0.461405" stroke-linecap="round"/>
<path d="M548.13 2.02521L204.631 83.1341M204.635 83.1341L2.0332 343.881L61.1732 672.062L131.58 802.352L409.363 971.991L760.225 887.064L924.958 622.19L951.996 467.894L846.739 150.164L548.135 2.02521" stroke="#01D1FF" stroke-width="2.72485" stroke-linecap="round"/>
<path d="M168.476 331.353L2.0332 343.88" stroke="#01D1FF" stroke-width="0.461405" stroke-linecap="round"/>
<path d="M38.1641 319.183L165.669 310.616L352.176 68.4347" stroke="#01D1FF" stroke-width="2.72485" stroke-linecap="round"/>
<path d="M352.176 68.4347L206.584 101.675L160.924 160.64M139.232 188.654L105.248 232.538M87.6725 255.231L38.1641 319.183" stroke="#01D1FF" stroke-width="1.13541" stroke-linecap="round"/>
<path d="M343.951 79.0775L211.675 109.288L165.637 168.753M144.323 196.267L116.043 232.8M92.9739 262.581L49.7598 318.395" stroke="#01D1FF" stroke-width="2.72485" stroke-linecap="round"/>
<path d="M211.676 109.288L206.584 101.675M148.787 186.459L139.232 188.654L144.324 196.267" stroke="#01D1FF" stroke-width="1.13541" stroke-linecap="round"/>
<path d="M153.879 194.095L144.324 196.267" stroke="#01D1FF" stroke-width="2.72485" stroke-linecap="round"/>
<path d="M153.879 194.095L148.789 186.459C148.789 186.459 160.716 170.805 160.716 161.379L165.805 168.992" stroke="#01D1FF" stroke-width="1.13541" stroke-linecap="round"/>
<path d="M153.878 194.095C153.878 194.095 165.807 178.417 165.807 168.992M119.557 238.05L114.465 230.438L104.91 232.609" stroke="#01D1FF" stroke-width="2.72485" stroke-linecap="round"/>
<path d="M114.467 230.438C114.467 230.438 101.247 246.712 88.0918 255.279L93.1813 262.891" stroke="#01D1FF" stroke-width="1.13541" stroke-linecap="round"/>
<path d="M119.557 238.05C119.557 238.05 106.337 254.324 93.1797 262.891" stroke="#01D1FF" stroke-width="2.72485" stroke-linecap="round"/>
<path d="M219.668 320.543L268.937 254.754M293.225 222.348L325.139 179.706M348.878 148.016L398.29 82.0603" stroke="#01D1FF" stroke-width="1.13541" stroke-linecap="round"/>
<path d="M219.668 320.543L494.702 468.204L542.059 400.077M667.73 219.318L618.748 289.76M597.113 320.877L566.275 365.261" stroke="#01D1FF" stroke-width="2.72485" stroke-linecap="round"/>
<path d="M398.289 82.0603L667.729 219.294" stroke="#01D1FF" stroke-width="1.13541" stroke-linecap="round"/>
<path d="M223.738 322.738L268.984 262.342M297.336 224.472L325.139 187.342M350.909 152.932L398.29 89.6725L663.809 224.926M597.112 320.877L588.028 316.152" stroke="#01D1FF" stroke-width="2.72485" stroke-linecap="round"/>
<path d="M338.549 186.674L325.162 179.706" stroke="#01D1FF" stroke-width="1.13541" stroke-linecap="round"/>
<path d="M588.029 316.152C594.292 304.65 604.284 293.22 618.747 289.76M566.275 365.261L555.876 359.868C546.337 372.969 541.628 383.134 542.058 400.101" stroke="#01D1FF" stroke-width="2.72485" stroke-linecap="round"/>
<path d="M398.289 89.6725V82.0603M325.162 179.706V187.342" stroke="#01D1FF" stroke-width="1.13541" stroke-linecap="round"/>
<path d="M338.549 194.286L325.162 187.342" stroke="#01D1FF" stroke-width="2.72485" stroke-linecap="round"/>
<path d="M338.549 194.286V186.674C347.227 172.643 356.43 162.764 348.948 147.993" stroke="#01D1FF" stroke-width="1.13541" stroke-linecap="round"/>
<path d="M338.55 194.286C345.1 183.715 351.913 175.506 351.698 165.794M351.722 166.295V158.158C351.722 158.158 351.459 152.383 348.901 148.016M303.098 227.479L293.225 222.348" stroke="#01D1FF" stroke-width="2.72485" stroke-linecap="round"/>
<path d="M303.098 227.479C303.098 227.479 294.516 247.452 268.961 254.778V262.342" stroke="#01D1FF" stroke-width="1.13541" stroke-linecap="round"/>
<path d="M268.961 262.342C294.516 255.016 303.098 235.019 303.098 235.019V227.479" stroke="#01D1FF" stroke-width="2.72485" stroke-linecap="round"/>
<path d="M218.922 110.051L247.207 204.738" stroke="#01D1FF" stroke-width="1.13541" stroke-linecap="round"/>
<path d="M195.525 131.527L225.57 232.156M243.812 101.89L254.402 137.374C260.953 141.359 267.574 148.327 270.563 160.592L261.885 162.382L266.881 179.181" stroke="#01D1FF" stroke-width="2.72485" stroke-linecap="round"/>
<path d="M558.122 199.822L287.75 258.142M535.986 189.776L299.751 240.723" stroke="#01D1FF" stroke-width="1.13541" stroke-linecap="round"/>
<path d="M303.098 233.325L527.738 184.884L526.4 154.937M523.627 94.1348L521.427 45.5267" stroke="#01D1FF" stroke-width="2.72485" stroke-linecap="round"/>
<path d="M527.738 184.884L536.942 189.561L535.579 159.614M558.122 199.822L649.011 246.211M532.806 98.788L529.531 26.4367" stroke="#01D1FF" stroke-width="1.13541" stroke-linecap="round"/>
<path d="M437.471 50.5378L704.879 185.863" stroke="#01D1FF" stroke-width="2.72485" stroke-linecap="round"/>
<path d="M558.123 199.822L556.784 170.423M550.736 36.9123L554.035 109.502" stroke="#01D1FF" stroke-width="1.13541" stroke-linecap="round"/>
<path d="M468.477 380.987L452.675 421.959L302.189 272.269L528.982 224.138L510.981 270.813M551.19 286.801C556.091 308.564 548.895 325.244 548.895 325.244L537.875 320.972L523.029 359.153L533.141 362.851C533.141 362.851 524.296 384.065 510.574 391.152M572.944 230.772L551.166 286.777M510.598 391.152L489.561 445.249L504.765 453.72M568.282 489.18L700.146 556.21M722.856 261.865L550.951 514.689M510.957 270.813C492.621 277.352 484.446 300.212 484.446 300.212L497.665 305.342L482.605 344.358L470.437 339.919C470.437 339.919 461.305 365.667 468.501 381.011" stroke="#01D1FF" stroke-width="2.72485" stroke-linecap="round"/>
<path d="M556.856 221.633L466.421 442.91M279.742 287.135L387.652 395.615M715.111 595.798L576.53 521.537M715.111 595.798L799.689 380.319M715.111 595.798L682.743 643.571M648.175 694.66L592.332 777.177" stroke="#01D1FF" stroke-width="0.461405" stroke-linecap="round"/>
<path d="M518.177 569.835L706.266 750.475L419.877 817.6L442.301 761.094C459.871 750.642 470.199 727.71 470.199 727.71L456.477 721.577L476.581 674.711M518.177 569.811L491.69 636.579M724.339 789.848L414.403 862.868M679.372 602.121L664.192 625.435M560.586 784.622L581.575 752.384C580.069 739.069 590.563 716.518 590.563 716.518L600.986 722.58L624.509 686.428L616.883 680.939C616.883 680.939 619.274 676.286 623.888 671.371M550.952 514.689L756.181 715.373M721.614 618.539L696.704 657.22M663.284 709.169L624.342 769.684M476.557 674.711L489.61 677.622C489.61 677.622 498.479 657.315 491.69 636.603M460.852 539.029L432.691 613.862M418.419 651.708L399.892 700.96M383.493 744.509L358.512 810.871" stroke="#01D1FF" stroke-width="2.72485" stroke-linecap="round"/>
<path d="M358.511 810.871L96.3027 656.838" stroke="#01D1FF" stroke-width="1.13541" stroke-linecap="round"/>
<path d="M361.116 803.951L106.295 654.261" stroke="#01D1FF" stroke-width="2.72485" stroke-linecap="round"/>
<path d="M119.078 586.658L96.3027 656.838L106.298 654.261M130.552 551.294L147.21 499.966M159.87 460.926L184.034 386.475" stroke="#01D1FF" stroke-width="1.13541" stroke-linecap="round"/>
<path d="M104.975 653.426L126.994 585.561M138.808 549.17L153.563 503.688M184.033 386.475L460.86 539.029M97.0645 703.871L351.492 858.477L358.089 877.758M364.592 896.752L368.704 908.755M373.007 921.355L381.923 947.365" stroke="#01D1FF" stroke-width="2.72485" stroke-linecap="round"/>
<path d="M371.754 858.357L409.357 971.991" stroke="#01D1FF" stroke-width="0.461405" stroke-linecap="round"/>
<path d="M414.402 862.868L441.081 955.097" stroke="#01D1FF" stroke-width="2.72485" stroke-linecap="round"/>
<path d="M724.672 863.154L724.863 886.778L441.08 955.097" stroke="#01D1FF" stroke-width="1.13541" stroke-linecap="round"/>
<path d="M439.789 946.411L718.791 879.237" stroke="#01D1FF" stroke-width="2.72485" stroke-linecap="round"/>
<path d="M715.016 841.94L724.96 840.89" stroke="#01D1FF" stroke-width="1.13541" stroke-linecap="round"/>
<path d="M715.016 833.206L724.53 832.204" stroke="#01D1FF" stroke-width="2.72485" stroke-linecap="round"/>
<path d="M715.014 833.207C715.014 833.207 715.014 818.459 724.361 813.639M715.014 841.94C715.014 841.94 710.352 854.731 724.672 863.154M724.6 840.914L724.528 832.204M724.337 789.848L724.385 813.639M724.863 886.778L718.791 879.237" stroke="#01D1FF" stroke-width="1.13541" stroke-linecap="round"/>
<path d="M718.791 879.237V859.909V858.453M718.791 791.161V807.912" stroke="#01D1FF" stroke-width="2.72485" stroke-linecap="round"/>
<path d="M724.386 813.639L718.314 806.122" stroke="#01D1FF" stroke-width="1.13541" stroke-linecap="round"/>
<path d="M715.015 833.206L708.967 825.666M709.278 827.479C709.278 827.479 709.278 812.732 718.625 807.912" stroke="#01D1FF" stroke-width="2.72485" stroke-linecap="round"/>
<path d="M715.015 841.94L708.967 834.4" stroke="#01D1FF" stroke-width="1.13541" stroke-linecap="round"/>
<path d="M718.792 858.453C704.496 850.054 707.747 834.686 707.747 834.686H715.78" stroke="#01D1FF" stroke-width="2.72485" stroke-linecap="round"/>
<path d="M724.959 840.89L718.887 833.35" stroke="#01D1FF" stroke-width="1.13541" stroke-linecap="round"/>
<path d="M910.132 465.866L721.158 264.346" stroke="#01D1FF" stroke-width="2.72485" stroke-linecap="round"/>
<path d="M914.411 466.176L722.855 261.865M846.16 566.59L851.037 565.993L843.626 558.119" stroke="#01D1FF" stroke-width="1.13541" stroke-linecap="round"/>
<path d="M721.613 618.539L798.255 625.674M858.879 631.329L879.055 633.214" stroke="#01D1FF" stroke-width="1.13541" stroke-linecap="round"/>
<path d="M719.939 624.361L796.27 631.472M855.293 636.985L877.382 639.037" stroke="#01D1FF" stroke-width="2.72485" stroke-linecap="round"/>
<path d="M715.11 595.798L798.995 604.078M709.779 868.785L553.819 836.332L443.758 932.88M484.612 796.363L443.758 773.884M306.157 679.006L411.222 529.149M277.805 702.296L249.453 723.94M279.455 672.325L156.047 567.449M301.83 694.589L379.547 737.255" stroke="#01D1FF" stroke-width="0.461405" stroke-linecap="round"/>
<path d="M418.419 651.708L409.072 646.172C409.072 646.172 411.869 625.769 432.643 613.862M383.469 744.414C378.64 710.075 392.266 696.474 392.266 696.474L399.892 700.96" stroke="#01D1FF" stroke-width="2.72485" stroke-linecap="round"/>
<path d="M149.419 553.919L139.426 556.496L130.553 551.294L140.545 548.717" stroke="#01D1FF" stroke-width="1.13541" stroke-linecap="round"/>
<path d="M149.419 553.919L140.545 548.717M156.026 505.144L147.155 499.918" stroke="#01D1FF" stroke-width="2.72485" stroke-linecap="round"/>
<path d="M139.426 556.496C139.426 556.496 138.919 571.864 119.092 586.658" stroke="#01D1FF" stroke-width="1.13541" stroke-linecap="round"/>
<path d="M149.418 553.919C149.418 553.919 148.875 570.336 127.057 585.513" stroke="#01D1FF" stroke-width="2.72485" stroke-linecap="round"/>
<path d="M118.738 587.708L126.995 585.561M159.87 460.926L168.044 458.827" stroke="#01D1FF" stroke-width="1.13541" stroke-linecap="round"/>
<path d="M168.045 458.826L190.387 389.983" stroke="#01D1FF" stroke-width="2.72485" stroke-linecap="round"/>
<path d="M156.025 505.144C162.148 491.685 162.434 480.78 159.869 460.95" stroke="#01D1FF" stroke-width="1.13541" stroke-linecap="round"/>
<path d="M156.026 505.144L164.202 503.02C170.324 489.562 170.611 478.656 168.046 458.827M146.143 525.928L294.109 651.445L397.357 504.022M137.889 575.371L266.164 687.573L242.449 702.44C229.966 698.98 221.711 703.418 216.631 707.212M169.748 748.041L147.893 763.933" stroke="#01D1FF" stroke-width="2.72485" stroke-linecap="round"/>
<path d="M216.631 707.212L224.419 713.583" stroke="#01D1FF" stroke-width="1.13541" stroke-linecap="round"/>
<path d="M215.596 719.287L224.422 713.583M302.547 721.076L376.942 761.905M430.347 791.232L460.85 807.984M332.692 685.115L384.352 713.249M454.013 751.501L528.168 792.211" stroke="#01D1FF" stroke-width="2.72485" stroke-linecap="round"/>
<path d="M152.723 795.217L147.055 800.873L380.576 943.499" stroke="#01D1FF" stroke-width="1.13541" stroke-linecap="round"/>
<path d="M152.723 795.217L376.632 931.95M302.549 721.076L271.997 740.524M216.07 776.199L180.319 798.987" stroke="#01D1FF" stroke-width="2.72485" stroke-linecap="round"/>
<path d="M302.548 721.076V714.514M302.548 714.514L272.498 733.676M302.548 714.514L376.942 755.367M210.803 773.001L174.117 796.387" stroke="#01D1FF" stroke-width="1.13541" stroke-linecap="round"/>
<path d="M271.566 734.702C271.566 734.702 273.669 743.722 268.888 750.069M332.692 685.115L369.77 631.281C387.914 624.099 399.867 605.82 399.867 605.82L390.137 601.763L412.872 568.785L421.932 572.532C421.932 572.532 436.49 557.14 433.574 538.742L440.937 528.052M66.1211 610.473L145.062 359.821" stroke="#01D1FF" stroke-width="2.72485" stroke-linecap="round"/>
<path d="M22.6152 369.032L66.1258 610.473" stroke="#01D1FF" stroke-width="1.13541" stroke-linecap="round"/>
<path d="M145.067 359.821L22.6152 369.032M30.7192 370.177L71.146 594.533M704.883 185.863L732.948 173.144M749.873 165.484L767.492 157.514M782.504 150.713L805.167 140.452" stroke="#01D1FF" stroke-width="2.72485" stroke-linecap="round"/>
<path d="M805.114 140.476L558.098 17.9416L558.193 29.5388" stroke="#01D1FF" stroke-width="1.13541" stroke-linecap="round"/>
<path d="M792.946 145.988L558.193 29.5388M753.024 222.348L767.224 215.929M790.938 205.191L809.465 196.792M826.39 189.132L844.248 181.042M760.937 153.767L760.53 160.664M801.074 200.586L809.154 212.278L817.354 208.198C817.354 208.198 826.725 203.33 826.414 189.156" stroke="#01D1FF" stroke-width="2.72485" stroke-linecap="round"/>
<path d="M907.766 393.873L838.176 183.81M919.479 406.854L753.025 222.348M239.939 331.424L262.602 299.472L357.435 394.517M196.142 393.133L183.646 410.743M700.146 556.21L724.338 500.801M766.866 403.513L793.808 341.828M763.065 525.737L742.459 573.271L837.292 580.549M807.745 422.627L827.276 377.527M679.372 602.121L589.678 552.559M763.113 525.713C779.488 515.667 783.959 504.237 783.959 504.237L774.396 499.608L792.35 458.182L800.238 461.976C800.238 461.976 812.478 441.622 807.769 422.627M724.362 500.801C721.422 484.359 727.828 469.302 727.828 469.302L736.339 473.407L754.674 431.385L747.335 427.877C747.335 427.877 752.116 410.887 766.842 403.513M572.944 230.772L637.322 263.034M700.504 294.724L793.377 341.279" stroke="#01D1FF" stroke-width="2.72485" stroke-linecap="round"/>
<path d="M753.239 299.425L711.715 278.235" stroke="#01D1FF" stroke-width="1.13541" stroke-linecap="round"/>
<path d="M844.919 324.218L852.425 226.787M708.872 847.214L587.838 822.015" stroke="#01D1FF" stroke-width="2.72485" stroke-linecap="round"/>
<path d="M711.978 880.884L561.086 849.481V857.451" stroke="#01D1FF" stroke-width="1.13541" stroke-linecap="round"/>
<path d="M692.877 884.869L561.086 857.451" stroke="#01D1FF" stroke-width="2.72485" stroke-linecap="round"/>
<path d="M561.087 849.481L534.026 874.537M518.583 888.806L499.531 906.441M477.848 926.533L462.357 940.851M518.846 889.355V897.349M468.501 871.243L479.689 875.157M519.038 888.973L526.902 891.718C526.902 891.718 534.457 889.212 534.026 874.584" stroke="#01D1FF" stroke-width="1.13541" stroke-linecap="round"/>
<path d="M561.087 857.451L534.025 882.507" stroke="#01D1FF" stroke-width="2.72485" stroke-linecap="round"/>
<path d="M526.902 891.718V899.688" stroke="#01D1FF" stroke-width="1.13541" stroke-linecap="round"/>
<path d="M534.025 874.584C537.539 889.45 526.901 899.688 526.901 899.688L518.845 897.325L506.414 908.851" stroke="#01D1FF" stroke-width="2.72485" stroke-linecap="round"/>
<path d="M499.53 906.441L509.212 909.853C509.212 909.853 495.681 925.268 477.848 926.533" stroke="#01D1FF" stroke-width="1.13541" stroke-linecap="round"/>
<path d="M509.212 909.853V917.823C509.212 917.823 495.681 933.238 477.848 934.503" stroke="#01D1FF" stroke-width="2.72485" stroke-linecap="round"/>
<path d="M477.848 926.533V934.503" stroke="#01D1FF" stroke-width="1.13541" stroke-linecap="round"/>
<path d="M477.848 934.503L473.832 938.226M479.689 875.157L458.198 895.058L445.934 890.763C445.934 890.763 437.854 900.499 435.129 914.554L430.539 918.611M472.876 881.457L468.501 879.643V871.243C468.501 871.243 479.617 863.512 494.128 861.794L520.304 837.549" stroke="#01D1FF" stroke-width="2.72485" stroke-linecap="round"/>
<path d="M558.098 17.9416L529.818 25.5776M507.179 31.6864L487.792 36.9362M466.636 42.6393L437.471 50.514M467.209 43.1166L467.281 50.7049M506.845 31.5193L506.964 43.1166" stroke="#01D1FF" stroke-width="1.13541" stroke-linecap="round"/>
<path d="M495.706 40.8496L487.793 36.9362M467.282 50.7049L448.086 55.9069" stroke="#01D1FF" stroke-width="2.72485" stroke-linecap="round"/>
<path d="M467.209 43.1166C473.831 46.4335 489.919 43.5938 495.704 40.8496" stroke="#01D1FF" stroke-width="1.13541" stroke-linecap="round"/>
<path d="M467.281 50.7049C473.903 54.0218 489.992 51.1822 495.777 48.438M495.705 40.8496L495.777 48.4618M558.194 29.5388L530.033 37.151M507.299 43.2837L496.016 46.3381" stroke="#01D1FF" stroke-width="2.72485" stroke-linecap="round"/>
<path d="M514.758 35.4328L506.846 31.5193" stroke="#01D1FF" stroke-width="1.13541" stroke-linecap="round"/>
<path d="M514.878 47.0539L506.965 43.1166" stroke="#01D1FF" stroke-width="2.72485" stroke-linecap="round"/>
<path d="M514.877 47.0539L514.758 35.4328C514.758 35.4328 522.886 36.2442 529.531 26.4367" stroke="#01D1FF" stroke-width="1.13541" stroke-linecap="round"/>
<path d="M514.877 47.0539C514.877 47.0539 523.005 47.8414 529.651 38.0577M779.464 150.379L544.305 33.7386" stroke="#01D1FF" stroke-width="2.72485" stroke-linecap="round"/>
<path d="M577.031 190.85L658.812 232.132" stroke="#01D1FF" stroke-width="1.13541" stroke-linecap="round"/>
<path d="M584.992 188.798L662.853 228.099" stroke="#01D1FF" stroke-width="2.72485" stroke-linecap="round"/>
<path d="M577.031 190.85L576.553 180.47M573.685 119.453L573.135 107.76M570.242 46.6005L571.916 81.9648L578.92 79.7694" stroke="#01D1FF" stroke-width="1.13541" stroke-linecap="round"/>
<path d="M573.135 107.76L583.271 112.342M578.92 79.7694L577.533 50.2038M580.402 111.053L580.976 123.152" stroke="#01D1FF" stroke-width="2.72485" stroke-linecap="round"/>
<path d="M580.402 111.053C580.402 111.053 583.606 98.7164 571.916 81.9648" stroke="#01D1FF" stroke-width="1.13541" stroke-linecap="round"/>
<path d="M578.92 79.7695C590.61 96.521 587.407 108.858 587.407 108.858L580.402 111.053M355.953 891.455C355.355 887.756 354.925 880.836 358.08 877.758M362.073 904.699C363.937 910.641 367.667 917.966 372.997 921.355" stroke="#01D1FF" stroke-width="2.72485" stroke-linecap="round"/>
<path d="M362.072 904.699L369.937 909.352" stroke="#01D1FF" stroke-width="1.13541" stroke-linecap="round"/>
<path d="M362.073 904.699L366.089 901.143M355.953 891.455L364.583 896.752" stroke="#01D1FF" stroke-width="2.72485" stroke-linecap="round"/>
<path d="M147.055 800.873L138.664 784.598M128.738 765.341L117.471 743.483M112.812 734.463L97.0488 703.871" stroke="#01D1FF" stroke-width="1.13541" stroke-linecap="round"/>
<path d="M118.496 728.808C124.807 733.89 128.309 738.186 131.238 743.054L125.57 748.733" stroke="#01D1FF" stroke-width="2.72485" stroke-linecap="round"/>
<path d="M125.568 748.733C122.639 743.841 119.135 739.546 112.816 734.439L118.484 728.784" stroke="#01D1FF" stroke-width="1.13541" stroke-linecap="round"/>
<path d="M125.57 748.733L117.471 743.483M118.484 728.784L109.561 711.483M152.722 795.217L144.331 778.943M134.293 759.471L127.671 746.633" stroke="#01D1FF" stroke-width="2.72485" stroke-linecap="round"/>
<path d="M134.352 759.4L128.684 765.055L136.78 770.305" stroke="#01D1FF" stroke-width="1.13541" stroke-linecap="round"/>
<path d="M142.448 764.649L134.352 759.4" stroke="#01D1FF" stroke-width="2.72485" stroke-linecap="round"/>
<path d="M142.447 764.625L136.779 770.305C136.779 770.305 141.068 778.871 138.661 784.598L144.329 778.943" stroke="#01D1FF" stroke-width="1.13541" stroke-linecap="round"/>
<path d="M142.447 764.625C142.447 764.625 146.736 773.216 144.329 778.943L368.24 915.676" stroke="#01D1FF" stroke-width="2.72485" stroke-linecap="round"/>
<path d="M162.096 778.871L190.79 760.831M237.599 731.385L249.454 723.94" stroke="#01D1FF" stroke-width="0.461405" stroke-linecap="round"/>
<path d="M216.632 707.212V715.707M147.893 763.933L141.955 731.17M130.615 668.555L119.678 608.182" stroke="#01D1FF" stroke-width="2.72485" stroke-linecap="round"/>
<path d="M85.4761 501.922L41.748 406.233M85.4761 501.922L106.781 473.955M85.4761 501.922L88.8397 524.878" stroke="#01D1FF" stroke-width="0.461405" stroke-linecap="round"/>
<path d="M96.1289 473.383L118.693 443.555" stroke="#01D1FF" stroke-width="1.13541" stroke-linecap="round"/>
<path d="M96.1277 473.383L83.9192 446.68M73.0158 422.794L61.7682 398.192M53.7408 380.605L47.5898 367.147" stroke="#01D1FF" stroke-width="2.72485" stroke-linecap="round"/>
<path d="M73.0156 422.794L80.4311 417.998" stroke="#01D1FF" stroke-width="1.13541" stroke-linecap="round"/>
<path d="M90.0963 460.187L130.121 407.259M83.9191 446.68C84.7677 433.986 80.4313 417.998 80.4313 417.998L67.5366 410.719M53.7383 380.605C62.973 385.497 68.6578 393.371 68.6578 393.371L61.7682 398.192" stroke="#01D1FF" stroke-width="2.72485" stroke-linecap="round"/>
<path d="M50.8203 445.487L61.4177 467.56M69.0149 483.405L82.5861 511.682" stroke="#01D1FF" stroke-width="1.13541" stroke-linecap="round"/>
<path d="M60.4629 483.548L74.0365 511.825" stroke="#01D1FF" stroke-width="2.72485" stroke-linecap="round"/>
<path d="M74.0371 511.825L82.5857 511.682L86.664 545.257" stroke="#01D1FF" stroke-width="1.13541" stroke-linecap="round"/>
<path d="M74.0371 511.825L80.4797 564.896" stroke="#01D1FF" stroke-width="2.72485" stroke-linecap="round"/>
<path d="M61.4165 467.56L60.8977 477.917M60.8977 477.917H54.3906M60.8977 477.917C60.8977 477.917 63.0899 483.858 69.0687 483.524M60.4626 483.548L69.0113 483.405" stroke="#01D1FF" stroke-width="1.13541" stroke-linecap="round"/>
<path d="M62.5639 483.524C56.5828 483.858 54.3906 477.917 54.3906 477.917L54.9094 467.56" stroke="#01D1FF" stroke-width="2.72485" stroke-linecap="round"/>
<path d="M61.4173 467.56H54.9102" stroke="#01D1FF" stroke-width="1.13541" stroke-linecap="round"/>
<path d="M50.8192 445.487L50.3004 455.844H46.1504M49.282 455.844L54.9094 467.56" stroke="#01D1FF" stroke-width="2.72485" stroke-linecap="round"/>
<path d="M386.935 40.0859L386.863 39.7997" stroke="#01D1FF" stroke-width="1.13541" stroke-linecap="round"/>
</g>
<defs>
<clipPath id="clip0_1064_1335">
<rect width="954" height="974" fill="white"/>
</clipPath>
</defs>
</svg>
