<svg
    width="41"
    height="41"
    viewBox="0 0 45 45"
    fill="none"
    xmlns="http://www.w3.org/2000/svg"
    id="TG_icon"
>
<g id="thefix" onclick="window.top.location.href='https://t.me/nerpyshka';">
  <a xmlns="http://www.w3.org/2000/svg"  href="https://t.me/nerpyshka">
  
  <style type="text/css">
  #TG_icon {
    cursor: pointer;
  }
  #TG_icon:hover #bg_fill,
  #TG_icon #bg_out {
    animation: tg_stroke_fill 0.2s ease-in 1 forwards;
  }
  #TG_icon #bg_fill,
  #TG_icon:hover #bg_out {
    animation: tg_stroke_out 0.2s ease-in 1 forwards;
  }
  #TG_icon #tg_fill {
    animation: tg_bg_out 0.1s ease-in 1 forwards;
  }
  #TG_icon:hover #tg_fill {
    animation: tg_bg_fill 0.3s ease-in 1 forwards;
  }
  @keyframes tg_stroke_fill {
    0% {
      fill: #afff0100;
    }
    100% {
      fill: #aeff01;
    }
  }
  @keyframes tg_stroke_out {
    0% {
      fill: #aeff01;
    }
    100% {
      fill: #afff0100;
    }
  }
  @keyframes tg_bg_fill {
    0% {
      transform: translateX(22.5);
      fill: #afff0100;
    }
    100% {
      /* transform: translate(0, 0); */
      cx: 22.5;
      cy: 22.5;
      width: 100%;
      height: 100%;
      r: 21.5;
      fill: #ff0101;
    }
  }
  @keyframes tg_bg_out {
    0% {
      /* transform: translateX(0); */
      cx: 22.5;
      cy: 22.5;
      width: 100%;
      height: 100%;
      r: 21.5;
      fill: #ff0101;
    }
    100% {
      transform: translateX(22.5);
      /* cx: 22.5;
      cy: 0;
      width: 3;
      height: 3;
      r: 1.5; */
      fill: #afff0100;
    }
  }
  </style>
  <g clip-path="url(#clip0_2264_13848)">
    <path
      id="bg_out"
      fill-rule="evenodd"
      clip-rule="evenodd"
      d="M28.545 33.5081C28.8975 33.7575 29.3513 33.8194 29.7563 33.6675C30.1594 33.5137 30.4575 33.1669 30.5475 32.7469C31.4981 28.2806 33.8044 16.9744 34.6688 12.9131C34.7344 12.6056 34.6256 12.2869 34.3856 12.0825C34.1438 11.8781 33.81 11.82 33.5138 11.9288C28.9275 13.6275 14.8031 18.9262 9.03 21.0619C8.66437 21.1987 8.42625 21.5494 8.4375 21.9375C8.45063 22.3237 8.71125 22.6594 9.08625 22.7719C11.6756 23.5463 15.0731 24.6244 15.0731 24.6244C15.0731 24.6244 16.6612 29.4206 17.4881 31.8581C17.5931 32.1656 17.8331 32.4056 18.1481 32.4881C18.465 32.5706 18.8006 32.4844 19.0369 32.2612C20.3662 31.0069 22.4212 29.0662 22.4212 29.0662C22.4212 29.0662 26.3287 31.9294 28.545 33.5081ZM18.3394 30.075L16.5019 24.0169L29.5125 15.7106C29.6456 15.6244 29.8256 15.6544 29.9231 15.78C30.0206 15.9056 30.0056 16.0856 29.8875 16.1925C25.8412 19.8394 18.7481 26.2388 18.7481 26.2388L18.3394 30.075Z"
      fill="#AEFF01"
    />
    <circle cx="22.5" cy="22.5" r="21.5" stroke="#AEFF01" stroke-width="2" />
    <mask
      id="mask0_2264_13843"
      style='mask-type:alpha'
      maskUnits="userSpaceOnUse"
      x="0"
      y="0"
      width="45"
      height="45"
    >
      <circle id="tg_fill" cx="21" cy="0" r="1.5" stroke="#afff0100" />
    </mask>
    <g mask="url(#mask0_2264_13843)">
      <path
        id="bg_out"
        fill-rule="evenodd"
        clip-rule="evenodd"
        d="M28.545 33.5081C28.8975 33.7575 29.3513 33.8194 29.7563 33.6675C30.1594 33.5137 30.4575 33.1669 30.5475 32.7469C31.4981 28.2806 33.8044 16.9744 34.6688 12.9131C34.7344 12.6056 34.6256 12.2869 34.3856 12.0825C34.1438 11.8781 33.81 11.82 33.5138 11.9288C28.9275 13.6275 14.8031 18.9262 9.03 21.0619C8.66437 21.1987 8.42625 21.5494 8.4375 21.9375C8.45063 22.3237 8.71125 22.6594 9.08625 22.7719C11.6756 23.5463 15.0731 24.6244 15.0731 24.6244C15.0731 24.6244 16.6612 29.4206 17.4881 31.8581C17.5931 32.1656 17.8331 32.4056 18.1481 32.4881C18.465 32.5706 18.8006 32.4844 19.0369 32.2612C20.3662 31.0069 22.4212 29.0662 22.4212 29.0662C22.4212 29.0662 26.3287 31.9294 28.545 33.5081ZM18.3394 30.075L16.5019 24.0169L29.5125 15.7106C29.6456 15.6244 29.8256 15.6544 29.9231 15.78C30.0206 15.9056 30.0056 16.0856 29.8875 16.1925C25.8412 19.8394 18.7481 26.2388 18.7481 26.2388L18.3394 30.075Z"
        fill="#AEFF01"
      />
      <path
        id="bg_fill"
        fill-rule="evenodd"
        clip-rule="evenodd"
        d="M22.5 0C10.0763 0 0 10.0725 0 22.5C0 34.9256 10.0763 45 22.5 45C34.9256 45 45 34.9256 45 22.5C45 10.0725 34.9256 0 22.5 0ZM28.545 33.5081C28.8975 33.7575 29.3512 33.8194 29.7562 33.6675C30.1594 33.5137 30.4575 33.1669 30.5475 32.7469C31.4981 28.2806 33.8044 16.9744 34.6687 12.9131C34.7344 12.6056 34.6256 12.2869 34.3856 12.0825C34.1438 11.8781 33.81 11.82 33.5138 11.9287C28.9275 13.6275 14.8031 18.9262 9.03 21.0619C8.66437 21.1987 8.42625 21.5494 8.4375 21.9375C8.45063 22.3237 8.71125 22.6594 9.08625 22.7719C11.6756 23.5463 15.0731 24.6244 15.0731 24.6244C15.0731 24.6244 16.6612 29.4206 17.4881 31.8581C17.5931 32.1656 17.8331 32.4056 18.1481 32.4881C18.465 32.5706 18.8006 32.4844 19.0369 32.2612C20.3662 31.0069 22.4213 29.0662 22.4213 29.0662C22.4213 29.0662 26.3287 31.9294 28.545 33.5081ZM16.5019 24.0169L18.3394 30.075L18.7481 26.2388C18.7481 26.2388 25.8412 19.8394 29.8875 16.1925C30.0056 16.0856 30.0206 15.9056 29.9231 15.78C29.8256 15.6544 29.6456 15.6244 29.5125 15.7106C24.825 18.7031 16.5019 24.0169 16.5019 24.0169Z"
        fill="#afff0100"
      />
    </g>
  </g>
  <defs>
    <clipPath id="clip0_2264_13848">
      <rect width="45" height="45" fill="white" />
    </clipPath>
  </defs>
</a>
</g>
</svg>
