<svg width="20" height="20" viewBox="0 0 20 20" fill="none" xmlns="http://www.w3.org/2000/svg">
<path d="M18.3327 11.6667C18.3327 16.2692 14.601 20 9.99935 20C5.39768 20 1.66602 16.2692 1.66602 11.6667C1.66602 7.06417 5.39768 3.33333 9.99935 3.33333C14.601 3.33333 18.3327 7.06417 18.3327 11.6667ZM16.666 11.6667C16.666 7.99083 13.6752 5 9.99935 5C6.32352 5 3.33268 7.99083 3.33268 11.6667C3.33268 15.3425 6.32352 18.3333 9.99935 18.3333C13.6752 18.3333 16.666 15.3425 16.666 11.6667ZM11.666 1.8175V0H8.33268V1.8175C9.50602 1.61917 10.4677 1.615 11.666 1.8175ZM17.2318 4.77917L18.3327 3.67833L17.1543 2.5L15.9818 3.6725C16.4285 4.0075 16.8468 4.37583 17.2318 4.77917ZM9.99935 6.66667V11.6667H14.9993C14.9993 8.90917 12.7568 6.66667 9.99935 6.66667Z" fill="#01D1FF"/>
</svg>
